G75*
%MOIN*%
%OFA0B0*%
%FSLAX24Y24*%
%IPPOS*%
%LPD*%
%AMOC8*
5,1,8,0,0,1.08239X$1,22.5*
%
%ADD10C,0.0660*%
%ADD11R,0.0236X0.0866*%
%ADD12R,0.0709X0.1024*%
%ADD13C,0.0750*%
%ADD14R,0.0571X0.0138*%
%ADD15OC8,0.0472*%
%ADD16OC8,0.0630*%
%ADD17C,0.0630*%
%ADD18R,0.0433X0.0394*%
%ADD19R,0.0600X0.0600*%
%ADD20OC8,0.0600*%
%ADD21R,0.0390X0.0120*%
%ADD22R,0.0394X0.0433*%
%ADD23R,0.0390X0.0272*%
%ADD24C,0.0540*%
%ADD25C,0.0277*%
%ADD26C,0.0118*%
%ADD27C,0.0394*%
%ADD28C,0.0197*%
%ADD29C,0.0591*%
%ADD30C,0.0079*%
%ADD31C,0.0356*%
%ADD32C,0.0315*%
%ADD33C,0.0236*%
%ADD34C,0.0238*%
%ADD35C,0.1575*%
D10*
X031202Y004963D03*
X031202Y005963D03*
X031202Y006963D03*
D11*
X027069Y003640D03*
X026675Y003640D03*
X026281Y003640D03*
X025887Y003640D03*
X025494Y003640D03*
X025100Y003640D03*
X021572Y003640D03*
X021179Y003640D03*
X020785Y003640D03*
X020391Y003640D03*
X019998Y003640D03*
X019604Y003640D03*
X019210Y003640D03*
X018817Y003640D03*
X018423Y003640D03*
X018029Y003640D03*
X017635Y003640D03*
X017242Y003640D03*
X016848Y003640D03*
X016454Y003640D03*
X016061Y003640D03*
X015667Y003640D03*
X015273Y003640D03*
X014880Y003640D03*
X014486Y003640D03*
X014092Y003640D03*
X013698Y003640D03*
X013305Y003640D03*
X012911Y003640D03*
X012517Y003640D03*
X004431Y003640D03*
X004037Y003640D03*
X003643Y003640D03*
X003250Y003640D03*
D12*
X002226Y002695D03*
X005454Y002695D03*
X011494Y002695D03*
X022596Y002695D03*
X024076Y002695D03*
X028092Y002695D03*
D13*
X027222Y005234D03*
X026222Y005234D03*
X025222Y005234D03*
X024222Y005234D03*
X023222Y005234D03*
X022222Y005234D03*
X021222Y005234D03*
X020222Y005234D03*
X020222Y010234D03*
X021222Y010234D03*
X022222Y010234D03*
X023222Y010234D03*
X024222Y010234D03*
X025222Y010234D03*
X026222Y010234D03*
X027222Y010234D03*
D14*
X014185Y009397D03*
X014185Y009147D03*
X014185Y008897D03*
X014185Y008647D03*
X014185Y008397D03*
X014185Y008147D03*
X014185Y007897D03*
X014185Y007647D03*
X012236Y007647D03*
X012236Y007897D03*
X012236Y008147D03*
X012236Y008397D03*
X012236Y008647D03*
X012236Y008897D03*
X012236Y009147D03*
X012236Y009397D03*
D15*
X012305Y010293D03*
X011517Y010293D03*
X010730Y010293D03*
X009943Y010293D03*
X009155Y010293D03*
X007187Y010293D03*
X006399Y010293D03*
X005612Y010293D03*
X004824Y010293D03*
X004037Y010293D03*
X015848Y010293D03*
X016635Y010293D03*
X017423Y010293D03*
X018210Y010293D03*
X030218Y010293D03*
X031006Y010293D03*
D16*
X029037Y006447D03*
X029037Y004888D03*
D17*
X029037Y003888D03*
X029037Y007447D03*
D18*
X025592Y006750D03*
X024923Y006750D03*
X022954Y006278D03*
X022285Y006278D03*
X019254Y005923D03*
X018584Y005923D03*
X013624Y007065D03*
X012954Y007065D03*
X007187Y008581D03*
X006202Y008581D03*
X005021Y008581D03*
X004037Y008581D03*
X004037Y009250D03*
X005021Y009250D03*
X006202Y009250D03*
X007187Y009250D03*
X002502Y010116D03*
X002502Y010786D03*
X017049Y011041D03*
X017718Y011041D03*
X024923Y008719D03*
X025592Y008719D03*
X007777Y002360D03*
X006950Y002360D03*
X006950Y001691D03*
X007777Y001691D03*
D19*
X007112Y006356D03*
X007112Y007636D03*
X002872Y006356D03*
D20*
X001872Y006356D03*
X000872Y006356D03*
X004112Y006356D03*
X005112Y006356D03*
X006112Y006356D03*
X006112Y007636D03*
X005112Y007636D03*
X004112Y007636D03*
D21*
X017888Y007587D03*
X017888Y007843D03*
X017888Y008099D03*
X017888Y008354D03*
X017888Y008610D03*
X017888Y008866D03*
X017888Y009122D03*
X020186Y009122D03*
X020186Y008866D03*
X020186Y008610D03*
X020186Y008354D03*
X020186Y008099D03*
X020186Y007843D03*
X020186Y007587D03*
X020186Y007331D03*
X020186Y007075D03*
X020186Y006819D03*
X021432Y006819D03*
X021432Y007075D03*
X021432Y007331D03*
X021432Y007587D03*
X021432Y007843D03*
X021432Y008099D03*
X021432Y008354D03*
X021432Y008610D03*
X021432Y008866D03*
X021432Y009122D03*
X023729Y009122D03*
X023729Y008866D03*
X023729Y008610D03*
X023729Y008354D03*
X023729Y008099D03*
X023729Y007843D03*
X023729Y007587D03*
X023729Y007331D03*
X023729Y007075D03*
X023729Y006819D03*
X017888Y006819D03*
X017888Y007075D03*
X017888Y007331D03*
D22*
X017069Y005510D03*
X017069Y004841D03*
X022482Y004034D03*
X023151Y004034D03*
X026439Y007400D03*
X026439Y008069D03*
X016380Y011041D03*
X015710Y011041D03*
D23*
X024746Y008108D03*
X025765Y008108D03*
X025765Y007734D03*
X025765Y007360D03*
X024746Y007360D03*
D24*
X002929Y007628D02*
X002389Y007628D01*
X001354Y007628D02*
X000814Y007628D01*
X000814Y008628D02*
X001354Y008628D01*
X002389Y008628D02*
X002929Y008628D01*
D25*
X001872Y008128D03*
X003486Y008089D03*
X005769Y008522D03*
X005533Y008876D03*
X004549Y008876D03*
X006675Y008876D03*
X008289Y008404D03*
X009746Y007734D03*
X010572Y007341D03*
X011360Y007065D03*
X013328Y007616D03*
X013604Y007931D03*
X012856Y008522D03*
X011281Y009427D03*
X012856Y009467D03*
X014234Y009703D03*
X014706Y009703D03*
X015612Y009506D03*
X016419Y009408D03*
X017029Y009506D03*
X017423Y009506D03*
X017069Y009034D03*
X016675Y008640D03*
X016360Y008325D03*
X016045Y008010D03*
X016950Y007813D03*
X017069Y008207D03*
X018328Y008286D03*
X018919Y008089D03*
X019234Y007774D03*
X019549Y007459D03*
X020651Y007419D03*
X020651Y007853D03*
X020887Y008364D03*
X020691Y008797D03*
X021006Y009191D03*
X022147Y009112D03*
X022698Y008758D03*
X022895Y008561D03*
X024943Y009230D03*
X025887Y009506D03*
X026872Y009506D03*
X027659Y009506D03*
X029234Y009506D03*
X029116Y008837D03*
X027659Y008719D03*
X026872Y008719D03*
X025966Y008719D03*
X028643Y008246D03*
X027029Y007656D03*
X025100Y007734D03*
X024785Y007734D03*
X024470Y007734D03*
X023053Y007341D03*
X022147Y007538D03*
X020415Y006317D03*
X020612Y006120D03*
X018407Y005451D03*
X017620Y005884D03*
X017344Y005530D03*
X016399Y005254D03*
X016399Y004860D03*
X017344Y004860D03*
X015848Y004309D03*
X015454Y004309D03*
X015572Y004860D03*
X014076Y004979D03*
X014076Y005372D03*
X014076Y005766D03*
X013328Y005805D03*
X013053Y006160D03*
X012620Y006278D03*
X011320Y006081D03*
X010179Y005608D03*
X009313Y005530D03*
X008092Y005293D03*
X007502Y005608D03*
X008092Y005884D03*
X006596Y005372D03*
X005887Y005569D03*
X005494Y005569D03*
X004864Y005530D03*
X004509Y004860D03*
X006163Y004860D03*
X006714Y004860D03*
X006439Y004585D03*
X006990Y004585D03*
X004943Y003758D03*
X003446Y002931D03*
X003919Y002419D03*
X005612Y001908D03*
X006399Y002183D03*
X006242Y002538D03*
X006399Y002813D03*
X008289Y002616D03*
X008722Y002616D03*
X009549Y002301D03*
X009943Y002301D03*
X010336Y002301D03*
X010730Y002301D03*
X012147Y003010D03*
X010631Y003502D03*
X011399Y003561D03*
X009864Y003404D03*
X010730Y004506D03*
X011320Y004506D03*
X011990Y004703D03*
X012620Y004703D03*
X013171Y004349D03*
X013958Y004467D03*
X010927Y004939D03*
X014431Y006278D03*
X014824Y006278D03*
X015415Y006199D03*
X015100Y006593D03*
X014549Y006671D03*
X014549Y007065D03*
X015100Y007301D03*
X016714Y006514D03*
X016439Y006199D03*
X017462Y006396D03*
X017423Y006908D03*
X017502Y007301D03*
X015376Y008443D03*
X018328Y008797D03*
X018761Y008797D03*
X019352Y009388D03*
X019391Y010293D03*
X018998Y010293D03*
X015061Y010097D03*
X014667Y010097D03*
X012895Y010097D03*
X014234Y011199D03*
X014667Y011199D03*
X008407Y010412D03*
X008013Y010175D03*
X003643Y009703D03*
X003565Y010057D03*
X003604Y010884D03*
X003210Y010884D03*
X002895Y011199D03*
X002502Y011199D03*
X000533Y009309D03*
X001872Y007144D03*
X003486Y006475D03*
X002856Y005490D03*
X002069Y005254D03*
X001360Y005530D03*
X002383Y004427D03*
X002305Y004034D03*
X001439Y003364D03*
X001399Y002498D03*
X003683Y001750D03*
X000769Y001593D03*
X007344Y001711D03*
X008289Y001711D03*
X008722Y001829D03*
X014667Y002419D03*
X015612Y002341D03*
X016635Y002419D03*
X016439Y002971D03*
X016832Y002971D03*
X017226Y002971D03*
X017777Y002971D03*
X018328Y002971D03*
X018722Y002971D03*
X019116Y002971D03*
X019509Y002971D03*
X019903Y002971D03*
X020592Y004171D03*
X023328Y003049D03*
X023328Y002341D03*
X028446Y001750D03*
X030021Y001750D03*
X031596Y001750D03*
X031596Y002813D03*
X030021Y002813D03*
X028446Y004388D03*
X030257Y004821D03*
X031596Y004388D03*
X033171Y004388D03*
X029706Y005687D03*
X028328Y005687D03*
X025887Y005963D03*
X025297Y005963D03*
X024706Y005963D03*
X025927Y006750D03*
X026478Y006750D03*
X030297Y006671D03*
X031793Y005963D03*
X033171Y005963D03*
X033171Y007538D03*
X031596Y007538D03*
X031596Y009112D03*
X033171Y009112D03*
X015651Y002931D03*
X015273Y002947D03*
X014667Y002813D03*
X014943Y005727D03*
X008880Y007026D03*
X008092Y006553D03*
D26*
X007112Y006356D02*
X007112Y006278D01*
X006718Y005884D01*
X004824Y005884D01*
X004628Y006081D01*
X004628Y006553D01*
X004352Y006829D01*
X003053Y006829D01*
X002659Y007223D01*
X002659Y007628D01*
X001084Y007628D01*
X000336Y006880D01*
X000336Y003561D01*
X001399Y002498D01*
X003446Y002931D02*
X004037Y002931D01*
X004431Y002538D01*
X004431Y001593D01*
X005927Y001593D01*
X006242Y001908D01*
X006242Y002538D01*
X004431Y001593D02*
X000769Y001593D01*
X012954Y007065D02*
X012954Y007951D01*
X013289Y008286D01*
X013289Y008719D01*
X012856Y009152D01*
X012856Y009467D01*
X013171Y009585D02*
X012974Y009782D01*
X012029Y009782D01*
X011517Y010293D01*
X011202Y010766D02*
X010730Y010293D01*
X010651Y011002D02*
X009943Y010293D01*
X009155Y010293D02*
X010100Y011238D01*
X013368Y011238D01*
X013880Y010727D01*
X013880Y009467D01*
X013949Y009397D01*
X014185Y009397D01*
X013845Y009147D02*
X013643Y009349D01*
X013643Y010648D01*
X013289Y011002D01*
X010651Y011002D01*
X011202Y010766D02*
X013210Y010766D01*
X013407Y010569D01*
X013407Y009270D01*
X013780Y008897D01*
X014185Y008897D01*
X014185Y009147D02*
X013845Y009147D01*
X013715Y008647D02*
X013171Y009191D01*
X013171Y009585D01*
X012236Y009147D02*
X010853Y009147D01*
X010139Y009860D01*
X008880Y009860D01*
X008722Y010018D01*
X008722Y010569D01*
X008565Y010727D01*
X007620Y010727D01*
X007187Y010293D01*
X008013Y010175D02*
X008013Y010018D01*
X008565Y009467D01*
X009982Y009467D01*
X010802Y008647D01*
X012236Y008647D01*
X012236Y008897D02*
X010827Y008897D01*
X010061Y009664D01*
X008722Y009664D01*
X008407Y009979D01*
X008407Y010412D01*
X007817Y009860D02*
X005257Y009860D01*
X004824Y010293D01*
X004706Y009624D02*
X004037Y010293D01*
X004706Y009624D02*
X007698Y009624D01*
X008250Y009073D01*
X009824Y009073D01*
X010751Y008147D01*
X012236Y008147D01*
X012236Y008397D02*
X010776Y008397D01*
X009903Y009270D01*
X008407Y009270D01*
X007817Y009860D01*
X007187Y008581D02*
X007112Y008506D01*
X006202Y008581D02*
X006112Y008490D01*
X005112Y008490D02*
X005021Y008581D01*
X012226Y007892D02*
X012231Y007892D01*
X012236Y007897D01*
X013624Y007282D02*
X013989Y007647D01*
X014185Y007647D01*
X013624Y007282D02*
X013624Y007065D01*
X014185Y008397D02*
X014542Y008397D01*
X014667Y008522D01*
X014667Y008994D01*
X015848Y010175D01*
X015848Y010293D01*
X017324Y009408D02*
X018210Y010293D01*
X017324Y009408D02*
X017265Y009349D01*
X017492Y009122D01*
X017888Y009122D01*
X021006Y009191D02*
X021074Y009122D01*
X021432Y009122D01*
X021822Y009122D01*
X022334Y008610D01*
X022334Y007065D01*
X022344Y007075D01*
X023729Y007075D01*
X023729Y006819D02*
X023200Y006819D01*
X022954Y006573D01*
X022954Y006278D01*
X022334Y006327D02*
X022285Y006278D01*
X022334Y006327D02*
X022334Y006819D01*
X022334Y007065D01*
X022334Y006819D02*
X021432Y006819D01*
X021055Y006819D01*
X020799Y007075D01*
X020186Y007075D01*
X019283Y007075D01*
X018781Y006573D01*
X018535Y006819D01*
X017888Y006819D01*
X017807Y006819D01*
X018584Y006376D02*
X018781Y006573D01*
X018584Y006376D02*
X018584Y005923D01*
X017659Y005923D01*
X017620Y005884D01*
X018545Y005963D02*
X018584Y005923D01*
X018584Y006022D01*
X023328Y003286D02*
X023683Y003640D01*
X025100Y003640D01*
X023328Y003286D02*
X023328Y002341D01*
X025336Y007656D02*
X025257Y007734D01*
X025966Y008719D02*
X026222Y008975D01*
X026222Y010234D01*
X025222Y010234D01*
X024222Y010234D01*
X023222Y010234D02*
X022222Y010234D01*
X029116Y008837D02*
X030966Y008837D01*
X031006Y008797D01*
X014185Y008647D02*
X013715Y008647D01*
D27*
X026222Y005589D02*
X026222Y005234D01*
X026222Y005589D02*
X027080Y006447D01*
X029037Y006447D01*
X031006Y008416D01*
X031006Y008797D01*
X031006Y010293D01*
X021380Y003640D02*
X021380Y003069D01*
X021813Y002636D01*
X021813Y002006D01*
X021675Y001868D01*
X014037Y001868D01*
X012718Y003187D01*
X012718Y003640D01*
X013506Y003640D02*
X013506Y003227D01*
X014352Y002380D01*
X020474Y002380D01*
X020966Y002380D01*
X021045Y002459D01*
X020474Y002380D02*
X020474Y003522D01*
X020592Y003640D01*
D28*
X020592Y004171D01*
X020592Y003640D02*
X020391Y003640D01*
X020592Y003640D02*
X020785Y003640D01*
X021179Y003640D02*
X021380Y003640D01*
X021572Y003640D01*
X019155Y005057D02*
X017817Y005057D01*
X017344Y005530D01*
X017226Y005648D01*
X017226Y006002D01*
X017462Y006238D01*
X017462Y006396D01*
X016714Y006514D02*
X016596Y006632D01*
X016596Y008089D01*
X016360Y008325D01*
X016045Y008010D02*
X016202Y007853D01*
X016202Y006435D01*
X016439Y006199D01*
X017069Y005510D02*
X017324Y005510D01*
X017344Y005530D01*
X018407Y005451D02*
X018446Y005490D01*
X019037Y005490D01*
X019254Y005707D01*
X019254Y005923D01*
X019254Y006612D01*
X019460Y006819D01*
X020186Y006819D01*
X020622Y006819D01*
X021635Y005805D01*
X022777Y005805D01*
X022954Y005982D01*
X022954Y006278D01*
X024037Y006278D01*
X024273Y006514D01*
X024273Y007538D01*
X024470Y007734D01*
X024785Y007734D01*
X025100Y007734D01*
X025257Y007734D01*
X025336Y007656D02*
X025336Y007498D01*
X025474Y007360D01*
X025765Y007360D01*
X026006Y007734D02*
X026340Y007400D01*
X026439Y007400D01*
X026439Y007144D01*
X026045Y006750D01*
X025927Y006750D01*
X025592Y006750D01*
X024923Y006750D02*
X024746Y006927D01*
X024746Y007360D01*
X025336Y007656D02*
X025336Y007971D01*
X025474Y008108D01*
X025765Y008108D01*
X026399Y008108D01*
X026439Y008069D01*
X027521Y008069D01*
X027856Y007734D01*
X027856Y006947D01*
X027080Y006502D02*
X027080Y006447D01*
X027080Y006502D02*
X026439Y007144D01*
X026006Y007734D02*
X025765Y007734D01*
X024746Y008108D02*
X024746Y008541D01*
X024923Y008719D01*
X024943Y008738D01*
X024943Y009230D01*
X024746Y009427D01*
X023131Y009427D01*
X022895Y009191D01*
X022895Y008955D01*
X022698Y008758D01*
X022895Y008955D02*
X022895Y008561D01*
X025592Y008719D02*
X025966Y008719D01*
X020415Y006317D02*
X020218Y006120D01*
X020612Y006120D01*
X020218Y006120D02*
X019155Y005057D01*
X017344Y004860D02*
X017324Y004841D01*
X017069Y004841D01*
X019254Y005923D02*
X019254Y006061D01*
X014903Y007931D02*
X014470Y007498D01*
X014057Y007498D01*
X013624Y007065D01*
X013624Y006770D01*
X013486Y006632D01*
X011793Y006632D01*
X011360Y007065D01*
X014903Y007931D02*
X014903Y008797D01*
X015612Y009506D01*
X016419Y009408D02*
X017324Y009408D01*
X019332Y009408D01*
X016419Y009408D02*
X015454Y008443D01*
X015376Y008443D01*
X012856Y009467D02*
X012786Y009397D01*
X012236Y009397D01*
X011312Y009397D01*
X011281Y009427D01*
X011990Y004703D02*
X012383Y004309D01*
X013328Y004309D01*
X013506Y004132D01*
X013506Y003640D01*
X013698Y003640D01*
X013506Y003640D02*
X013305Y003640D01*
X012911Y003640D02*
X012718Y003640D01*
X012517Y003640D01*
X012147Y003679D02*
X012147Y003010D01*
X010809Y003679D02*
X010631Y003502D01*
X010533Y003404D01*
X009864Y003404D01*
X010809Y003679D02*
X011281Y003679D01*
X011399Y003561D01*
X012147Y003679D02*
X011320Y004506D01*
X016454Y003640D02*
X016454Y002986D01*
D29*
X021065Y002498D03*
X021813Y002006D03*
D30*
X000672Y001434D02*
X000572Y001480D01*
X000482Y001543D01*
X000405Y001621D01*
X000342Y001711D01*
X000295Y001810D01*
X000267Y001916D01*
X000257Y002026D01*
X000257Y003389D01*
X000263Y003384D01*
X001142Y002504D01*
X001142Y002447D01*
X001181Y002353D01*
X001254Y002280D01*
X001348Y002241D01*
X001450Y002241D01*
X001545Y002280D01*
X001617Y002353D01*
X001656Y002447D01*
X001656Y002549D01*
X001617Y002644D01*
X001545Y002716D01*
X001450Y002755D01*
X001393Y002755D01*
X000513Y003635D01*
X000513Y003954D01*
X000513Y003954D01*
X000768Y003699D01*
X001101Y003561D01*
X001272Y003561D01*
X001221Y003510D01*
X001182Y003415D01*
X001182Y003313D01*
X001221Y003219D01*
X001293Y003147D01*
X001387Y003107D01*
X001490Y003107D01*
X001584Y003147D01*
X001656Y003219D01*
X001695Y003313D01*
X001695Y003364D01*
X002594Y003364D01*
X002738Y003220D01*
X002738Y002945D01*
X003328Y002354D01*
X003421Y002262D01*
X003713Y002262D01*
X003773Y002202D01*
X003868Y002163D01*
X003970Y002163D01*
X004064Y002202D01*
X004137Y002274D01*
X004176Y002368D01*
X004176Y002471D01*
X004137Y002565D01*
X004064Y002637D01*
X003970Y002676D01*
X003868Y002676D01*
X003773Y002637D01*
X003713Y002577D01*
X003551Y002577D01*
X003053Y003075D01*
X003053Y003119D01*
X003083Y003089D01*
X003417Y003089D01*
X003446Y003119D01*
X003476Y003089D01*
X003810Y003089D01*
X003840Y003119D01*
X003846Y003112D01*
X003873Y003097D01*
X003903Y003089D01*
X004017Y003089D01*
X004017Y003620D01*
X004057Y003620D01*
X004057Y003089D01*
X004171Y003089D01*
X004201Y003097D01*
X004228Y003112D01*
X004234Y003119D01*
X004264Y003089D01*
X004598Y003089D01*
X004667Y003158D01*
X004667Y004122D01*
X004598Y004191D01*
X004264Y004191D01*
X004234Y004161D01*
X004228Y004168D01*
X004201Y004183D01*
X004171Y004191D01*
X004057Y004191D01*
X004057Y003660D01*
X004017Y003660D01*
X004017Y004191D01*
X003903Y004191D01*
X003873Y004183D01*
X003846Y004168D01*
X003840Y004161D01*
X003838Y004163D01*
X003945Y004270D01*
X004956Y004270D01*
X005310Y003916D01*
X005148Y003916D01*
X005088Y003976D01*
X004994Y004015D01*
X004891Y004015D01*
X004797Y003976D01*
X004725Y003904D01*
X004686Y003809D01*
X004686Y003707D01*
X004725Y003613D01*
X004797Y003540D01*
X004891Y003501D01*
X004994Y003501D01*
X005088Y003540D01*
X005148Y003601D01*
X005389Y003601D01*
X005665Y003325D01*
X005051Y003325D01*
X004982Y003256D01*
X004982Y002134D01*
X005051Y002065D01*
X005406Y002065D01*
X005394Y002053D01*
X005355Y001959D01*
X005355Y001857D01*
X005394Y001762D01*
X005466Y001690D01*
X005561Y001651D01*
X005663Y001651D01*
X005757Y001690D01*
X005830Y001762D01*
X005845Y001800D01*
X005887Y001842D01*
X006084Y002039D01*
X006084Y003142D01*
X006216Y003010D01*
X006793Y003010D01*
X006793Y002675D01*
X006685Y002675D01*
X006616Y002606D01*
X006616Y002115D01*
X006685Y002045D01*
X007216Y002045D01*
X007238Y002067D01*
X007337Y001968D01*
X007293Y001968D01*
X007266Y001956D01*
X007216Y002006D01*
X006685Y002006D01*
X006616Y001937D01*
X006616Y001445D01*
X006665Y001396D01*
X000887Y001396D01*
X000778Y001405D01*
X000672Y001434D01*
X000594Y001470D02*
X006616Y001470D01*
X006616Y001547D02*
X000478Y001547D01*
X000402Y001625D02*
X006616Y001625D01*
X006616Y001702D02*
X005769Y001702D01*
X005837Y001779D02*
X006616Y001779D01*
X006616Y001856D02*
X005901Y001856D01*
X005979Y001934D02*
X006616Y001934D01*
X006642Y002088D02*
X006084Y002088D01*
X006084Y002165D02*
X006616Y002165D01*
X006616Y002242D02*
X006084Y002242D01*
X006084Y002320D02*
X006616Y002320D01*
X006616Y002397D02*
X006084Y002397D01*
X006084Y002474D02*
X006616Y002474D01*
X006616Y002551D02*
X006084Y002551D01*
X006084Y002629D02*
X006638Y002629D01*
X006793Y002706D02*
X006084Y002706D01*
X006084Y002783D02*
X006793Y002783D01*
X006793Y002860D02*
X006084Y002860D01*
X006084Y002938D02*
X006793Y002938D01*
X006950Y003089D02*
X006950Y002360D01*
X007167Y002360D01*
X007502Y002026D01*
X008446Y002026D01*
X008525Y002104D01*
X008880Y002104D01*
X009116Y001868D01*
X012187Y001868D01*
X012383Y002065D01*
X012383Y002301D01*
X012620Y002538D01*
X012620Y002616D01*
X012777Y002341D02*
X012856Y002341D01*
X012777Y002341D02*
X012580Y002144D01*
X012580Y002026D01*
X012265Y001711D01*
X008840Y001711D01*
X008722Y001829D01*
X008446Y001553D02*
X008289Y001711D01*
X008446Y001553D02*
X012344Y001553D01*
X012817Y002026D01*
X013053Y002026D01*
X013171Y002144D01*
X013373Y002011D02*
X013449Y002011D01*
X013408Y002046D02*
X013408Y002052D01*
X013770Y001690D01*
X013859Y001601D01*
X013974Y001553D01*
X021737Y001553D01*
X021832Y001593D01*
X021895Y001593D01*
X022047Y001656D01*
X022163Y001772D01*
X022226Y001924D01*
X022226Y002065D01*
X022999Y002065D01*
X023069Y002134D01*
X023069Y003256D01*
X022999Y003325D01*
X022193Y003325D01*
X022124Y003256D01*
X022124Y002708D01*
X022080Y002814D01*
X021991Y002903D01*
X021772Y003122D01*
X021809Y003158D01*
X021809Y003598D01*
X021832Y003575D01*
X021925Y003482D01*
X023472Y003482D01*
X024181Y004191D01*
X025232Y004191D01*
X025120Y004191D01*
X025120Y003660D01*
X025080Y003660D01*
X025080Y004191D01*
X024966Y004191D01*
X024936Y004183D01*
X024909Y004168D01*
X024887Y004146D01*
X024872Y004119D01*
X024864Y004089D01*
X024864Y003660D01*
X025080Y003660D01*
X025080Y003620D01*
X024864Y003620D01*
X024864Y003191D01*
X024865Y003188D01*
X024765Y003188D01*
X024657Y003143D01*
X024573Y003060D01*
X024549Y003001D01*
X024549Y003256D01*
X024480Y003325D01*
X023673Y003325D01*
X023604Y003256D01*
X023604Y002134D01*
X023673Y002065D01*
X024480Y002065D01*
X024549Y002134D01*
X024549Y002783D01*
X024549Y002783D01*
X024549Y002443D01*
X024591Y002342D01*
X024668Y002265D01*
X025141Y001792D01*
X025242Y001750D01*
X026651Y001750D01*
X026752Y001792D01*
X027302Y002342D01*
X027344Y002443D01*
X027344Y002553D01*
X027305Y002648D01*
X027305Y004122D01*
X027236Y004191D01*
X026901Y004191D01*
X026872Y004161D01*
X026842Y004191D01*
X026508Y004191D01*
X026478Y004161D01*
X026448Y004191D01*
X026124Y004191D01*
X026124Y004419D01*
X026163Y004514D01*
X026163Y004624D01*
X026121Y004725D01*
X026086Y004760D01*
X026107Y004753D01*
X026183Y004741D01*
X026183Y005195D01*
X026261Y005195D01*
X026261Y004741D01*
X026338Y004753D01*
X026411Y004777D01*
X026480Y004813D01*
X026543Y004858D01*
X026598Y004913D01*
X026644Y004976D01*
X026679Y005045D01*
X026703Y005119D01*
X026715Y005195D01*
X026261Y005195D01*
X026261Y005274D01*
X026183Y005274D01*
X026183Y005727D01*
X026107Y005715D01*
X026033Y005691D01*
X025964Y005656D01*
X025901Y005611D01*
X025846Y005556D01*
X025800Y005493D01*
X025765Y005424D01*
X025741Y005350D01*
X025729Y005274D01*
X026183Y005274D01*
X026183Y005195D01*
X025729Y005195D01*
X025741Y005119D01*
X025748Y005098D01*
X025714Y005133D01*
X025715Y005136D01*
X025715Y005332D01*
X025738Y005332D01*
X025715Y005332D02*
X025640Y005514D01*
X025501Y005652D01*
X025320Y005728D01*
X025124Y005728D01*
X024943Y005652D01*
X024804Y005514D01*
X024729Y005332D01*
X024715Y005332D01*
X024640Y005514D01*
X024501Y005652D01*
X024320Y005728D01*
X024124Y005728D01*
X023943Y005652D01*
X023804Y005514D01*
X023729Y005332D01*
X023715Y005332D01*
X023640Y005514D01*
X023501Y005652D01*
X023320Y005728D01*
X023124Y005728D01*
X022943Y005652D01*
X022804Y005514D01*
X022729Y005332D01*
X022715Y005332D01*
X022640Y005514D01*
X022565Y005589D01*
X022867Y005589D01*
X023044Y005766D01*
X023171Y005893D01*
X023171Y005963D01*
X023220Y005963D01*
X023289Y006032D01*
X023289Y006061D01*
X024127Y006061D01*
X024363Y006297D01*
X024490Y006424D01*
X024490Y007119D01*
X024502Y007106D01*
X024529Y007106D01*
X024529Y006838D01*
X024588Y006779D01*
X024588Y006504D01*
X024657Y006435D01*
X025188Y006435D01*
X025257Y006504D01*
X025257Y006996D01*
X025188Y007065D01*
X024962Y007065D01*
X024962Y007106D01*
X024989Y007106D01*
X025059Y007176D01*
X025059Y007478D01*
X025120Y007478D01*
X025120Y007408D01*
X025257Y007271D01*
X025384Y007144D01*
X025484Y007144D01*
X025522Y007106D01*
X026009Y007106D01*
X026078Y007176D01*
X026078Y007545D01*
X026070Y007553D01*
X026078Y007583D01*
X026078Y007706D01*
X025794Y007706D01*
X025794Y007763D01*
X026078Y007763D01*
X026078Y007886D01*
X026077Y007892D01*
X026124Y007892D01*
X026124Y007804D01*
X026078Y007804D01*
X026124Y007804D02*
X026193Y007734D01*
X026684Y007734D01*
X026754Y007804D01*
X027480Y007804D01*
X027432Y007853D02*
X027639Y007645D01*
X027639Y007149D01*
X027605Y007115D01*
X027560Y007006D01*
X027560Y006888D01*
X027605Y006779D01*
X027688Y006696D01*
X027797Y006651D01*
X027915Y006651D01*
X028024Y006696D01*
X028107Y006779D01*
X028152Y006888D01*
X028152Y007006D01*
X028107Y007115D01*
X028072Y007149D01*
X028072Y007824D01*
X027946Y007951D01*
X027738Y008159D01*
X027611Y008286D01*
X026754Y008286D01*
X026754Y008335D01*
X026684Y008404D01*
X026193Y008404D01*
X026124Y008335D01*
X026124Y008325D01*
X026047Y008325D01*
X026009Y008362D01*
X025522Y008362D01*
X025484Y008325D01*
X025384Y008325D01*
X025247Y008187D01*
X025120Y008060D01*
X025120Y007991D01*
X025059Y007991D01*
X025059Y008293D01*
X024989Y008362D01*
X024962Y008362D01*
X024962Y008404D01*
X025188Y008404D01*
X025257Y008473D01*
X025257Y008964D01*
X025188Y009034D01*
X025159Y009034D01*
X025159Y009084D01*
X025160Y009085D01*
X025199Y009179D01*
X025199Y009282D01*
X025160Y009376D01*
X025088Y009448D01*
X024994Y009487D01*
X024992Y009487D01*
X024835Y009644D01*
X023042Y009644D01*
X022806Y009408D01*
X022679Y009281D01*
X022679Y009045D01*
X022649Y009015D01*
X022647Y009015D01*
X022553Y008976D01*
X022481Y008904D01*
X022442Y008809D01*
X022442Y008707D01*
X022481Y008613D01*
X022553Y008540D01*
X022641Y008504D01*
X022678Y008416D01*
X022750Y008343D01*
X022844Y008304D01*
X022946Y008304D01*
X023041Y008343D01*
X023113Y008416D01*
X023152Y008510D01*
X023152Y008612D01*
X023113Y008707D01*
X023112Y008708D01*
X023112Y009101D01*
X023221Y009211D01*
X023416Y009211D01*
X023416Y009013D01*
X023435Y008994D01*
X023416Y008975D01*
X023416Y008757D01*
X023435Y008738D01*
X023416Y008719D01*
X023416Y008501D01*
X023435Y008482D01*
X023416Y008463D01*
X023416Y008246D01*
X023435Y008227D01*
X023416Y008208D01*
X023416Y007990D01*
X023435Y007971D01*
X023416Y007952D01*
X023416Y007734D01*
X023435Y007715D01*
X023416Y007696D01*
X023416Y007488D01*
X023268Y007488D01*
X023198Y007558D01*
X023104Y007598D01*
X023002Y007598D01*
X022907Y007558D01*
X022835Y007486D01*
X022796Y007392D01*
X022796Y007290D01*
X022835Y007195D01*
X022907Y007123D01*
X023002Y007084D01*
X023104Y007084D01*
X023198Y007123D01*
X023249Y007173D01*
X023422Y007173D01*
X023416Y007151D01*
X023416Y007075D01*
X023729Y007075D01*
X023729Y007075D01*
X023416Y007075D01*
X023416Y006999D01*
X023417Y006996D01*
X023127Y006996D01*
X023023Y006892D01*
X022881Y006750D01*
X022777Y006646D01*
X022777Y006593D01*
X022689Y006593D01*
X022620Y006523D01*
X022620Y006032D01*
X022630Y006022D01*
X022604Y006022D01*
X022612Y006035D01*
X022620Y006065D01*
X022620Y006238D01*
X022324Y006238D01*
X022324Y006317D01*
X022246Y006317D01*
X022246Y006593D01*
X022053Y006593D01*
X022023Y006585D01*
X021996Y006569D01*
X021974Y006547D01*
X021958Y006520D01*
X021950Y006490D01*
X021950Y006317D01*
X022246Y006317D01*
X022246Y006238D01*
X021950Y006238D01*
X021950Y006065D01*
X021958Y006035D01*
X021966Y006022D01*
X021725Y006022D01*
X020711Y007036D01*
X020499Y007036D01*
X020499Y007075D01*
X020499Y007151D01*
X020493Y007173D01*
X020574Y007173D01*
X020600Y007163D01*
X020702Y007163D01*
X020797Y007202D01*
X020809Y007214D01*
X020809Y007197D01*
X020901Y007104D01*
X020996Y007010D01*
X021088Y006917D01*
X021125Y006917D01*
X021118Y006895D01*
X021118Y006819D01*
X021118Y006744D01*
X021127Y006713D01*
X021142Y006687D01*
X021164Y006665D01*
X021191Y006649D01*
X021221Y006641D01*
X021432Y006641D01*
X021642Y006641D01*
X021672Y006649D01*
X021699Y006665D01*
X021721Y006687D01*
X021737Y006713D01*
X021745Y006744D01*
X021745Y006819D01*
X021432Y006819D01*
X021432Y006819D01*
X021745Y006819D01*
X021745Y006895D01*
X021737Y006925D01*
X021724Y006946D01*
X021745Y006966D01*
X021745Y007184D01*
X021726Y007203D01*
X021745Y007222D01*
X021745Y007440D01*
X021726Y007459D01*
X021745Y007478D01*
X021745Y007696D01*
X021726Y007715D01*
X021745Y007734D01*
X021745Y007952D01*
X021726Y007971D01*
X021745Y007990D01*
X021745Y008208D01*
X021726Y008227D01*
X021745Y008246D01*
X021745Y008463D01*
X021726Y008482D01*
X021745Y008501D01*
X021745Y008719D01*
X021726Y008738D01*
X021745Y008757D01*
X021745Y008975D01*
X021724Y008995D01*
X021737Y009017D01*
X021745Y009047D01*
X021745Y009122D01*
X021432Y009122D01*
X021432Y009122D01*
X021745Y009122D01*
X021745Y009198D01*
X021737Y009228D01*
X021721Y009255D01*
X021699Y009277D01*
X021672Y009292D01*
X021642Y009300D01*
X021432Y009300D01*
X021432Y009122D01*
X021432Y009122D01*
X021118Y009122D01*
X021118Y009047D01*
X021127Y009017D01*
X021139Y008995D01*
X021118Y008975D01*
X021118Y008757D01*
X021137Y008738D01*
X021118Y008719D01*
X021118Y008501D01*
X021137Y008482D01*
X021123Y008468D01*
X021105Y008510D01*
X021033Y008582D01*
X020938Y008621D01*
X020878Y008621D01*
X020908Y008652D01*
X020947Y008746D01*
X020947Y008848D01*
X020908Y008943D01*
X020848Y009003D01*
X020848Y009831D01*
X020756Y009923D01*
X020665Y010014D01*
X020715Y010136D01*
X020715Y010332D01*
X020640Y010514D01*
X020545Y010608D01*
X020899Y010608D01*
X020804Y010514D01*
X020729Y010332D01*
X020729Y010136D01*
X020804Y009955D01*
X020943Y009816D01*
X021124Y009741D01*
X021320Y009741D01*
X021501Y009816D01*
X021640Y009955D01*
X021715Y010136D01*
X021715Y010332D01*
X021640Y010514D01*
X021545Y010608D01*
X021899Y010608D01*
X021804Y010514D01*
X021729Y010332D01*
X021729Y010136D01*
X021804Y009955D01*
X021943Y009816D01*
X022124Y009741D01*
X022320Y009741D01*
X022501Y009816D01*
X022640Y009955D01*
X022682Y010057D01*
X022762Y010057D01*
X022804Y009955D01*
X022943Y009816D01*
X023124Y009741D01*
X023320Y009741D01*
X023501Y009816D01*
X023640Y009955D01*
X023715Y010136D01*
X023715Y010332D01*
X023640Y010514D01*
X023545Y010608D01*
X023899Y010608D01*
X023846Y010556D01*
X023800Y010493D01*
X023765Y010424D01*
X023741Y010350D01*
X023729Y010274D01*
X024183Y010274D01*
X024183Y010195D01*
X024261Y010195D01*
X024261Y009741D01*
X024338Y009753D01*
X024411Y009777D01*
X024480Y009813D01*
X024543Y009858D01*
X024598Y009913D01*
X024644Y009976D01*
X024679Y010045D01*
X024703Y010119D01*
X024715Y010195D01*
X024261Y010195D01*
X024261Y010274D01*
X024715Y010274D01*
X024703Y010350D01*
X024679Y010424D01*
X024644Y010493D01*
X024598Y010556D01*
X024545Y010608D01*
X024899Y010608D01*
X024846Y010556D01*
X024800Y010493D01*
X024765Y010424D01*
X024741Y010350D01*
X024729Y010274D01*
X025183Y010274D01*
X025183Y010195D01*
X025261Y010195D01*
X025261Y009741D01*
X025338Y009753D01*
X025411Y009777D01*
X025480Y009813D01*
X025543Y009858D01*
X025598Y009913D01*
X025644Y009976D01*
X025679Y010045D01*
X025703Y010119D01*
X025715Y010195D01*
X025261Y010195D01*
X025261Y010274D01*
X025715Y010274D01*
X025703Y010350D01*
X025679Y010424D01*
X025644Y010493D01*
X025598Y010556D01*
X025545Y010608D01*
X025899Y010608D01*
X025846Y010556D01*
X025800Y010493D01*
X025765Y010424D01*
X025741Y010350D01*
X025729Y010274D01*
X026183Y010274D01*
X026183Y010195D01*
X026261Y010195D01*
X026261Y009741D01*
X026338Y009753D01*
X026411Y009777D01*
X026480Y009813D01*
X026543Y009858D01*
X026598Y009913D01*
X026644Y009976D01*
X026679Y010045D01*
X026703Y010119D01*
X026715Y010195D01*
X026261Y010195D01*
X026261Y010274D01*
X026715Y010274D01*
X026703Y010350D01*
X026679Y010424D01*
X026644Y010493D01*
X026598Y010556D01*
X026545Y010608D01*
X026625Y010608D01*
X026779Y010454D01*
X026729Y010332D01*
X026729Y010136D01*
X026804Y009955D01*
X026943Y009816D01*
X027124Y009741D01*
X027320Y009741D01*
X027501Y009816D01*
X027640Y009955D01*
X027715Y010136D01*
X027715Y010332D01*
X027640Y010514D01*
X027501Y010652D01*
X027320Y010728D01*
X027124Y010728D01*
X027002Y010677D01*
X026848Y010831D01*
X026848Y010831D01*
X026756Y010923D01*
X019799Y010923D01*
X019720Y010845D01*
X018053Y010845D01*
X018053Y011002D01*
X017757Y011002D01*
X017757Y011081D01*
X018053Y011081D01*
X018053Y011254D01*
X018045Y011284D01*
X018029Y011311D01*
X018023Y011317D01*
X033171Y011317D01*
X033269Y011309D01*
X033366Y011286D01*
X033457Y011248D01*
X033541Y011197D01*
X033616Y011133D01*
X033680Y011057D01*
X033732Y010973D01*
X033770Y010882D01*
X033793Y010786D01*
X033801Y010687D01*
X033801Y002026D01*
X033793Y001927D01*
X033770Y001831D01*
X033732Y001740D01*
X033680Y001655D01*
X033616Y001580D01*
X033541Y001516D01*
X033457Y001464D01*
X033366Y001427D01*
X033269Y001404D01*
X033171Y001396D01*
X008062Y001396D01*
X008112Y001445D01*
X008112Y001525D01*
X008143Y001493D01*
X008238Y001454D01*
X008323Y001454D01*
X008381Y001396D01*
X012409Y001396D01*
X012502Y001488D01*
X012882Y001868D01*
X013118Y001868D01*
X013156Y001907D01*
X013269Y001907D01*
X013408Y002046D01*
X013296Y001934D02*
X013526Y001934D01*
X013604Y001856D02*
X012870Y001856D01*
X012793Y001779D02*
X013681Y001779D01*
X013758Y001702D02*
X012715Y001702D01*
X012638Y001625D02*
X013835Y001625D01*
X012561Y001547D02*
X032516Y001547D01*
X032597Y001514D02*
X032957Y001514D01*
X033290Y001652D01*
X033545Y001907D01*
X033683Y002239D01*
X033683Y002600D01*
X033545Y002932D01*
X033290Y003187D01*
X032957Y003325D01*
X032597Y003325D01*
X032264Y003187D01*
X032010Y002932D01*
X031872Y002600D01*
X031872Y002239D01*
X032010Y001907D01*
X032264Y001652D01*
X032597Y001514D01*
X032330Y001625D02*
X021972Y001625D01*
X022093Y001702D02*
X032214Y001702D01*
X032137Y001779D02*
X026721Y001779D01*
X026816Y001856D02*
X032060Y001856D01*
X031998Y001934D02*
X026894Y001934D01*
X026971Y002011D02*
X031966Y002011D01*
X031934Y002088D02*
X028518Y002088D01*
X028495Y002065D02*
X028565Y002134D01*
X028565Y003256D01*
X028495Y003325D01*
X027689Y003325D01*
X027620Y003256D01*
X027620Y002134D01*
X027689Y002065D01*
X028495Y002065D01*
X028565Y002165D02*
X031902Y002165D01*
X031872Y002242D02*
X028565Y002242D01*
X028565Y002320D02*
X031872Y002320D01*
X031872Y002397D02*
X028565Y002397D01*
X028565Y002474D02*
X031872Y002474D01*
X031872Y002551D02*
X028565Y002551D01*
X028565Y002629D02*
X031884Y002629D01*
X031916Y002706D02*
X028565Y002706D01*
X028565Y002783D02*
X031948Y002783D01*
X031980Y002860D02*
X028565Y002860D01*
X028565Y002938D02*
X032015Y002938D01*
X032092Y003015D02*
X028565Y003015D01*
X028565Y003092D02*
X032169Y003092D01*
X032246Y003169D02*
X028565Y003169D01*
X028565Y003247D02*
X032408Y003247D01*
X032594Y003324D02*
X028497Y003324D01*
X028894Y003478D02*
X027305Y003478D01*
X027305Y003401D02*
X033801Y003401D01*
X033801Y003324D02*
X032960Y003324D01*
X033146Y003247D02*
X033801Y003247D01*
X033801Y003169D02*
X033308Y003169D01*
X033385Y003092D02*
X033801Y003092D01*
X033801Y003015D02*
X033462Y003015D01*
X033540Y002938D02*
X033801Y002938D01*
X033801Y002860D02*
X033575Y002860D01*
X033607Y002783D02*
X033801Y002783D01*
X033801Y002706D02*
X033639Y002706D01*
X033671Y002629D02*
X033801Y002629D01*
X033801Y002551D02*
X033683Y002551D01*
X033683Y002474D02*
X033801Y002474D01*
X033801Y002397D02*
X033683Y002397D01*
X033683Y002320D02*
X033801Y002320D01*
X033801Y002242D02*
X033683Y002242D01*
X033652Y002165D02*
X033801Y002165D01*
X033801Y002088D02*
X033620Y002088D01*
X033588Y002011D02*
X033800Y002011D01*
X033794Y001934D02*
X033556Y001934D01*
X033495Y001856D02*
X033776Y001856D01*
X033748Y001779D02*
X033417Y001779D01*
X033340Y001702D02*
X033709Y001702D01*
X033654Y001625D02*
X033224Y001625D01*
X033038Y001547D02*
X033578Y001547D01*
X033466Y001470D02*
X012484Y001470D01*
X012502Y001488D02*
X012502Y001488D01*
X012108Y002026D02*
X012187Y002104D01*
X012187Y002577D01*
X012226Y002616D01*
X011021Y002629D02*
X010704Y002629D01*
X010775Y002558D02*
X010283Y003049D01*
X009890Y003049D01*
X009102Y003837D01*
X008315Y003837D01*
X008275Y003876D01*
X010795Y003876D01*
X010887Y003968D01*
X011198Y004279D01*
X011269Y004249D01*
X011271Y004249D01*
X011931Y003590D01*
X011931Y003291D01*
X011897Y003325D01*
X011090Y003325D01*
X011021Y003256D01*
X011021Y002183D01*
X010959Y002183D01*
X010987Y002250D01*
X010987Y002352D01*
X010948Y002447D01*
X010875Y002519D01*
X010781Y002558D01*
X010775Y002558D01*
X010797Y002551D02*
X011021Y002551D01*
X011021Y002474D02*
X010920Y002474D01*
X010968Y002397D02*
X011021Y002397D01*
X011021Y002320D02*
X010987Y002320D01*
X010984Y002242D02*
X011021Y002242D01*
X010730Y002301D02*
X010730Y002380D01*
X010218Y002892D01*
X009824Y002892D01*
X009037Y003679D01*
X008250Y003679D01*
X007502Y004427D01*
X007147Y004427D01*
X006990Y004585D01*
X007247Y004585D02*
X007247Y004636D01*
X007208Y004730D01*
X007135Y004803D01*
X007041Y004842D01*
X006971Y004842D01*
X006971Y004911D01*
X006932Y005006D01*
X006860Y005078D01*
X006765Y005117D01*
X006663Y005117D01*
X006569Y005078D01*
X006496Y005006D01*
X006457Y004911D01*
X006457Y004842D01*
X006420Y004842D01*
X006420Y004911D01*
X006381Y005006D01*
X006308Y005078D01*
X006214Y005117D01*
X006112Y005117D01*
X006045Y005089D01*
X006045Y005363D01*
X006105Y005424D01*
X006144Y005518D01*
X006144Y005620D01*
X006108Y005707D01*
X006791Y005707D01*
X007023Y005938D01*
X007461Y005938D01*
X007530Y006008D01*
X007530Y006705D01*
X007461Y006775D01*
X006763Y006775D01*
X006694Y006705D01*
X006694Y006110D01*
X006645Y006061D01*
X006408Y006061D01*
X006530Y006183D01*
X006530Y006530D01*
X006285Y006775D01*
X005939Y006775D01*
X005694Y006530D01*
X005694Y006183D01*
X005816Y006061D01*
X005408Y006061D01*
X005530Y006183D01*
X005530Y006530D01*
X005285Y006775D01*
X004944Y006775D01*
X004470Y007248D01*
X004393Y007326D01*
X004530Y007463D01*
X004530Y007809D01*
X004285Y008054D01*
X004269Y008054D01*
X004269Y008266D01*
X004302Y008266D01*
X004372Y008335D01*
X004372Y008690D01*
X004403Y008658D01*
X004498Y008619D01*
X004600Y008619D01*
X004687Y008655D01*
X004687Y008335D01*
X004756Y008266D01*
X004954Y008266D01*
X004954Y008054D01*
X004939Y008054D01*
X004694Y007809D01*
X004694Y007463D01*
X004939Y007218D01*
X005285Y007218D01*
X005530Y007463D01*
X005530Y007809D01*
X005285Y008054D01*
X005269Y008054D01*
X005269Y008266D01*
X005287Y008266D01*
X005356Y008335D01*
X005356Y008690D01*
X005388Y008658D01*
X005482Y008619D01*
X005532Y008619D01*
X005512Y008573D01*
X005512Y008471D01*
X005552Y008376D01*
X005624Y008304D01*
X005718Y008265D01*
X005820Y008265D01*
X005903Y008299D01*
X005937Y008266D01*
X005954Y008266D01*
X005954Y008054D01*
X005939Y008054D01*
X005694Y007809D01*
X005694Y007463D01*
X005939Y007218D01*
X006285Y007218D01*
X006530Y007463D01*
X006530Y007809D01*
X006285Y008054D01*
X006269Y008054D01*
X006269Y008266D01*
X006468Y008266D01*
X006537Y008335D01*
X006537Y008655D01*
X006624Y008619D01*
X006726Y008619D01*
X006820Y008658D01*
X006852Y008690D01*
X006852Y008335D01*
X006921Y008266D01*
X006954Y008266D01*
X006954Y008054D01*
X006763Y008054D01*
X006694Y007985D01*
X006694Y007287D01*
X006763Y007218D01*
X007461Y007218D01*
X007530Y007287D01*
X007530Y007985D01*
X007461Y008054D01*
X007269Y008054D01*
X007269Y008266D01*
X007452Y008266D01*
X007521Y008335D01*
X007521Y008827D01*
X007452Y008896D01*
X006932Y008896D01*
X006932Y008927D01*
X006928Y008935D01*
X007452Y008935D01*
X007521Y009004D01*
X007521Y009447D01*
X007625Y009447D01*
X008117Y008955D01*
X007909Y008955D01*
X007817Y008863D01*
X007817Y008863D01*
X007620Y008666D01*
X007620Y005779D01*
X007712Y005687D01*
X007842Y005687D01*
X007935Y005779D01*
X007935Y008535D01*
X008039Y008640D01*
X009799Y008640D01*
X010848Y007590D01*
X010848Y006921D01*
X012535Y005234D01*
X012515Y005215D01*
X011413Y005215D01*
X010980Y004782D01*
X010887Y004689D01*
X010887Y004414D01*
X010665Y004191D01*
X008197Y004191D01*
X008131Y004256D01*
X008131Y005044D01*
X007935Y005241D01*
X007935Y005477D01*
X007842Y005569D01*
X007712Y005569D01*
X007620Y005477D01*
X007620Y005110D01*
X007712Y005018D01*
X007817Y004913D01*
X007817Y004335D01*
X007567Y004585D01*
X007247Y004585D01*
X007246Y004637D02*
X007817Y004637D01*
X007817Y004714D02*
X007214Y004714D01*
X007146Y004791D02*
X007817Y004791D01*
X007817Y004869D02*
X006971Y004869D01*
X006957Y004946D02*
X007784Y004946D01*
X007707Y005023D02*
X006915Y005023D01*
X006806Y005100D02*
X007629Y005100D01*
X007620Y005178D02*
X006045Y005178D01*
X006045Y005255D02*
X007620Y005255D01*
X007620Y005332D02*
X006045Y005332D01*
X006091Y005409D02*
X007620Y005409D01*
X007629Y005487D02*
X006131Y005487D01*
X006144Y005564D02*
X007707Y005564D01*
X007848Y005564D02*
X012205Y005564D01*
X012128Y005641D02*
X006136Y005641D01*
X005887Y005569D02*
X005887Y004506D01*
X006596Y003797D01*
X007187Y003797D01*
X007935Y003049D01*
X008722Y003049D01*
X009037Y002734D01*
X009037Y002183D01*
X009194Y002026D01*
X012108Y002026D01*
X013722Y002629D02*
X016046Y002629D01*
X016045Y002630D02*
X016137Y002538D01*
X017567Y002538D01*
X017743Y002714D01*
X017828Y002714D01*
X017923Y002753D01*
X017995Y002825D01*
X018034Y002920D01*
X018034Y003022D01*
X018006Y003089D01*
X018099Y003089D01*
X018071Y003022D01*
X018071Y002920D01*
X018111Y002825D01*
X018183Y002753D01*
X018277Y002714D01*
X018379Y002714D01*
X018474Y002753D01*
X018525Y002804D01*
X018577Y002753D01*
X018671Y002714D01*
X018773Y002714D01*
X018868Y002753D01*
X018919Y002804D01*
X018970Y002753D01*
X019065Y002714D01*
X019167Y002714D01*
X019261Y002753D01*
X019313Y002804D01*
X019364Y002753D01*
X019458Y002714D01*
X019561Y002714D01*
X019655Y002753D01*
X019706Y002804D01*
X019758Y002753D01*
X019852Y002714D01*
X019954Y002714D01*
X020049Y002753D01*
X020121Y002825D01*
X020160Y002920D01*
X020160Y003022D01*
X020155Y003034D01*
X020155Y003089D01*
X020165Y003089D01*
X020194Y003119D01*
X020201Y003112D01*
X020228Y003097D01*
X020258Y003089D01*
X020372Y003089D01*
X020372Y003620D01*
X020411Y003620D01*
X020411Y003089D01*
X020525Y003089D01*
X020555Y003097D01*
X020582Y003112D01*
X020588Y003119D01*
X020594Y003112D01*
X020621Y003097D01*
X020651Y003089D01*
X020765Y003089D01*
X020765Y003620D01*
X020549Y003620D01*
X020411Y003620D01*
X020411Y003660D01*
X020372Y003660D01*
X020372Y004191D01*
X020258Y004191D01*
X020228Y004183D01*
X020201Y004168D01*
X020194Y004161D01*
X020165Y004191D01*
X019831Y004191D01*
X019801Y004161D01*
X019771Y004191D01*
X019437Y004191D01*
X019407Y004161D01*
X019377Y004191D01*
X019043Y004191D01*
X019013Y004161D01*
X018984Y004191D01*
X018650Y004191D01*
X018620Y004161D01*
X018590Y004191D01*
X018256Y004191D01*
X018226Y004161D01*
X018196Y004191D01*
X017862Y004191D01*
X017832Y004161D01*
X017802Y004191D01*
X017468Y004191D01*
X017439Y004161D01*
X017409Y004191D01*
X017399Y004191D01*
X017399Y004201D01*
X017307Y004293D01*
X017291Y004309D01*
X021491Y004309D01*
X021610Y004191D01*
X021405Y004191D01*
X021376Y004161D01*
X021346Y004191D01*
X021012Y004191D01*
X020982Y004161D01*
X020976Y004168D01*
X020949Y004183D01*
X020919Y004191D01*
X020805Y004191D01*
X020805Y003660D01*
X020765Y003660D01*
X020765Y004191D01*
X020651Y004191D01*
X020621Y004183D01*
X020594Y004168D01*
X020588Y004161D01*
X020582Y004168D01*
X020555Y004183D01*
X020525Y004191D01*
X020411Y004191D01*
X020411Y003660D01*
X020765Y003660D01*
X020765Y003620D01*
X020805Y003620D01*
X020805Y003089D01*
X020919Y003089D01*
X020949Y003097D01*
X020976Y003112D01*
X020982Y003119D01*
X021012Y003089D01*
X021065Y003089D01*
X021065Y003006D01*
X021113Y002891D01*
X021498Y002506D01*
X021498Y002276D01*
X021462Y002240D01*
X021439Y002183D01*
X014167Y002183D01*
X013262Y003089D01*
X013285Y003089D01*
X013285Y003620D01*
X013324Y003620D01*
X013324Y003089D01*
X013438Y003089D01*
X013468Y003097D01*
X013495Y003112D01*
X013502Y003119D01*
X013508Y003112D01*
X013535Y003097D01*
X013565Y003089D01*
X013679Y003089D01*
X013679Y003620D01*
X013718Y003620D01*
X013718Y003089D01*
X013832Y003089D01*
X013862Y003097D01*
X013889Y003112D01*
X013895Y003119D01*
X013925Y003089D01*
X014259Y003089D01*
X014289Y003119D01*
X014319Y003089D01*
X014653Y003089D01*
X014683Y003119D01*
X014712Y003089D01*
X015047Y003089D01*
X015076Y003119D01*
X015079Y003116D01*
X015055Y003093D01*
X015016Y002998D01*
X015016Y002896D01*
X015055Y002802D01*
X015128Y002729D01*
X015222Y002690D01*
X015324Y002690D01*
X015419Y002729D01*
X015454Y002765D01*
X015506Y002714D01*
X015600Y002674D01*
X015702Y002674D01*
X015797Y002714D01*
X015869Y002786D01*
X015903Y002868D01*
X015903Y002772D01*
X016045Y002630D01*
X015969Y002706D02*
X015778Y002706D01*
X015866Y002783D02*
X015903Y002783D01*
X015900Y002860D02*
X015903Y002860D01*
X016061Y002837D02*
X016202Y002695D01*
X017502Y002695D01*
X017777Y002971D01*
X017953Y002783D02*
X018153Y002783D01*
X018096Y002860D02*
X018010Y002860D01*
X018034Y002938D02*
X018071Y002938D01*
X018071Y003015D02*
X018034Y003015D01*
X018328Y002971D02*
X018423Y003065D01*
X018423Y003640D01*
X018817Y003640D02*
X018817Y003065D01*
X018722Y002971D01*
X018546Y002783D02*
X018504Y002783D01*
X018898Y002783D02*
X018940Y002783D01*
X019116Y002971D02*
X019210Y003065D01*
X019210Y003640D01*
X019604Y003640D02*
X019604Y003065D01*
X019509Y002971D01*
X019334Y002783D02*
X019292Y002783D01*
X019685Y002783D02*
X019727Y002783D01*
X019903Y002971D02*
X019998Y003065D01*
X019998Y003640D01*
X020372Y003710D02*
X020411Y003710D01*
X020411Y003633D02*
X020765Y003633D01*
X020765Y003710D02*
X020805Y003710D01*
X020805Y003787D02*
X020765Y003787D01*
X020765Y003865D02*
X020805Y003865D01*
X020805Y003942D02*
X020765Y003942D01*
X020765Y004019D02*
X020805Y004019D01*
X020805Y004096D02*
X020765Y004096D01*
X020765Y004173D02*
X020805Y004173D01*
X020965Y004173D02*
X020994Y004173D01*
X021363Y004173D02*
X021388Y004173D01*
X021550Y004251D02*
X017350Y004251D01*
X017426Y004173D02*
X017451Y004173D01*
X017242Y004136D02*
X017242Y003640D01*
X017242Y002986D01*
X017226Y002971D01*
X016848Y002986D02*
X016832Y002971D01*
X016848Y002986D02*
X016848Y003640D01*
X016454Y003640D02*
X016439Y003624D01*
X016061Y003640D02*
X016061Y002837D01*
X016439Y002971D02*
X016454Y002986D01*
X015667Y002947D02*
X015651Y002931D01*
X015667Y002947D02*
X015667Y003640D01*
X015273Y003640D02*
X015273Y002947D01*
X015016Y002938D02*
X013413Y002938D01*
X013336Y003015D02*
X015023Y003015D01*
X015050Y003092D02*
X015055Y003092D01*
X014709Y003092D02*
X014656Y003092D01*
X014315Y003092D02*
X014263Y003092D01*
X013922Y003092D02*
X013845Y003092D01*
X013718Y003092D02*
X013679Y003092D01*
X013679Y003169D02*
X013718Y003169D01*
X013718Y003247D02*
X013679Y003247D01*
X013679Y003324D02*
X013718Y003324D01*
X013718Y003401D02*
X013679Y003401D01*
X013679Y003478D02*
X013718Y003478D01*
X013718Y003556D02*
X013679Y003556D01*
X013679Y003620D02*
X013324Y003620D01*
X013324Y003660D01*
X013285Y003660D01*
X013285Y004191D01*
X013171Y004191D01*
X013141Y004183D01*
X013114Y004168D01*
X013108Y004161D01*
X013078Y004191D01*
X012744Y004191D01*
X012714Y004161D01*
X012684Y004191D01*
X012350Y004191D01*
X012281Y004122D01*
X012281Y003852D01*
X012237Y003896D01*
X011577Y004555D01*
X011577Y004557D01*
X011538Y004652D01*
X011466Y004724D01*
X011396Y004753D01*
X011543Y004900D01*
X012646Y004900D01*
X012738Y004992D01*
X012757Y005012D01*
X013578Y004191D01*
X013565Y004191D01*
X013535Y004183D01*
X013508Y004168D01*
X013502Y004161D01*
X013495Y004168D01*
X013468Y004183D01*
X013438Y004191D01*
X013324Y004191D01*
X013324Y003660D01*
X013541Y003660D01*
X013679Y003660D01*
X013679Y003620D01*
X013679Y003633D02*
X013324Y003633D01*
X013324Y003710D02*
X013285Y003710D01*
X013285Y003787D02*
X013324Y003787D01*
X013324Y003865D02*
X013285Y003865D01*
X013285Y003942D02*
X013324Y003942D01*
X013324Y004019D02*
X013285Y004019D01*
X013285Y004096D02*
X013324Y004096D01*
X013324Y004173D02*
X013285Y004173D01*
X013124Y004173D02*
X013096Y004173D01*
X012726Y004173D02*
X012702Y004173D01*
X012333Y004173D02*
X011959Y004173D01*
X012037Y004096D02*
X012281Y004096D01*
X012281Y004019D02*
X012114Y004019D01*
X012191Y003942D02*
X012281Y003942D01*
X012281Y003865D02*
X012268Y003865D01*
X011888Y003633D02*
X009306Y003633D01*
X009229Y003710D02*
X011810Y003710D01*
X011733Y003787D02*
X009152Y003787D01*
X009383Y003556D02*
X011931Y003556D01*
X011931Y003478D02*
X009461Y003478D01*
X009538Y003401D02*
X011931Y003401D01*
X011931Y003324D02*
X011898Y003324D01*
X011089Y003324D02*
X009615Y003324D01*
X009692Y003247D02*
X011021Y003247D01*
X011021Y003169D02*
X009770Y003169D01*
X009847Y003092D02*
X011021Y003092D01*
X011021Y003015D02*
X010318Y003015D01*
X010395Y002938D02*
X011021Y002938D01*
X011021Y002860D02*
X010472Y002860D01*
X010550Y002783D02*
X011021Y002783D01*
X011021Y002706D02*
X010627Y002706D01*
X010336Y002419D02*
X010336Y002301D01*
X010336Y002419D02*
X010021Y002734D01*
X009746Y002734D01*
X008958Y003522D01*
X008171Y003522D01*
X007423Y004270D01*
X006832Y004270D01*
X006714Y004388D01*
X006714Y004860D01*
X006457Y004869D02*
X006420Y004869D01*
X006406Y004946D02*
X006472Y004946D01*
X006514Y005023D02*
X006363Y005023D01*
X006255Y005100D02*
X006622Y005100D01*
X006163Y004860D02*
X006163Y004467D01*
X006675Y003955D01*
X007265Y003955D01*
X008013Y003207D01*
X008801Y003207D01*
X009549Y002459D01*
X009549Y002301D01*
X009785Y002577D02*
X009943Y002419D01*
X009943Y002301D01*
X009785Y002577D02*
X009667Y002577D01*
X008880Y003364D01*
X008092Y003364D01*
X007344Y004112D01*
X006754Y004112D01*
X006439Y004427D01*
X006439Y004585D01*
X005494Y004664D02*
X006517Y003640D01*
X007108Y003640D01*
X007856Y002892D01*
X008446Y002892D01*
X008722Y002616D01*
X008289Y002616D02*
X008171Y002734D01*
X007777Y002734D01*
X007029Y003482D01*
X006439Y003482D01*
X004864Y005057D01*
X004864Y005530D01*
X004632Y005641D02*
X003643Y005641D01*
X003643Y005564D02*
X004607Y005564D01*
X004607Y005581D02*
X004607Y005479D01*
X004646Y005384D01*
X004706Y005324D01*
X004706Y005027D01*
X004655Y005078D01*
X004561Y005117D01*
X004458Y005117D01*
X004364Y005078D01*
X004304Y005018D01*
X004063Y005018D01*
X003643Y005437D01*
X003643Y006269D01*
X003704Y006329D01*
X003731Y006396D01*
X004072Y006396D01*
X004072Y006317D01*
X003694Y006317D01*
X003694Y006183D01*
X003939Y005938D01*
X004072Y005938D01*
X004072Y006317D01*
X004151Y006317D01*
X004151Y005938D01*
X004285Y005938D01*
X004450Y006104D01*
X004450Y006007D01*
X004554Y005904D01*
X004714Y005744D01*
X004646Y005675D01*
X004607Y005581D01*
X004607Y005487D02*
X003643Y005487D01*
X003671Y005409D02*
X004636Y005409D01*
X004698Y005332D02*
X003749Y005332D01*
X003826Y005255D02*
X004706Y005255D01*
X004706Y005178D02*
X003903Y005178D01*
X003980Y005100D02*
X004418Y005100D01*
X004309Y005023D02*
X004058Y005023D01*
X003998Y004860D02*
X003486Y005372D01*
X003486Y006475D01*
X003290Y006307D02*
X003328Y006269D01*
X003328Y005307D01*
X003421Y005215D01*
X003893Y004742D01*
X003460Y004742D01*
X003092Y004374D01*
X003092Y004191D01*
X003083Y004191D01*
X003013Y004122D01*
X003013Y003390D01*
X002961Y003443D01*
X002724Y003679D01*
X001746Y003679D01*
X001794Y003699D01*
X002049Y003954D01*
X002054Y003967D01*
X002087Y003888D01*
X002159Y003816D01*
X002254Y003777D01*
X002356Y003777D01*
X002450Y003816D01*
X002510Y003876D01*
X002764Y003876D01*
X002921Y004034D01*
X003013Y004126D01*
X003013Y005285D01*
X003074Y005345D01*
X003113Y005439D01*
X003113Y005541D01*
X003074Y005636D01*
X003001Y005708D01*
X002907Y005747D01*
X002805Y005747D01*
X002710Y005708D01*
X002638Y005636D01*
X002599Y005541D01*
X002599Y005439D01*
X002638Y005345D01*
X002698Y005285D01*
X002698Y004256D01*
X002633Y004191D01*
X002510Y004191D01*
X002503Y004199D01*
X002529Y004210D01*
X002601Y004282D01*
X002640Y004376D01*
X002640Y004478D01*
X002601Y004573D01*
X002541Y004633D01*
X002541Y005910D01*
X002279Y006172D01*
X002290Y006183D01*
X002290Y006530D01*
X002045Y006775D01*
X001698Y006775D01*
X001454Y006530D01*
X001454Y006183D01*
X001698Y005938D01*
X002045Y005938D01*
X002056Y005949D01*
X002226Y005779D01*
X002226Y004633D01*
X002187Y004594D01*
X002187Y004647D01*
X002049Y004980D01*
X001794Y005234D01*
X001461Y005372D01*
X001101Y005372D01*
X000768Y005234D01*
X000513Y004980D01*
X000513Y004979D01*
X000513Y006123D01*
X000698Y005938D01*
X001045Y005938D01*
X001290Y006183D01*
X001290Y006530D01*
X001045Y006775D01*
X000698Y006775D01*
X000513Y006589D01*
X000513Y006807D01*
X000947Y007240D01*
X001431Y007240D01*
X001574Y007299D01*
X001683Y007408D01*
X001701Y007451D01*
X002042Y007451D01*
X002060Y007408D01*
X002169Y007299D01*
X002312Y007240D01*
X002482Y007240D01*
X002482Y007149D01*
X002586Y007045D01*
X002911Y006720D01*
X002911Y006396D01*
X002832Y006396D01*
X002832Y006317D01*
X002454Y006317D01*
X002454Y006041D01*
X002462Y006011D01*
X002477Y005984D01*
X002499Y005962D01*
X002526Y005946D01*
X002556Y005938D01*
X002832Y005938D01*
X002832Y006317D01*
X002911Y006317D01*
X002911Y005938D01*
X003187Y005938D01*
X003217Y005946D01*
X003244Y005962D01*
X003266Y005984D01*
X003282Y006011D01*
X003290Y006041D01*
X003290Y006307D01*
X003290Y006259D02*
X003328Y006259D01*
X003328Y006182D02*
X003290Y006182D01*
X003290Y006104D02*
X003328Y006104D01*
X003328Y006027D02*
X003286Y006027D01*
X003328Y005950D02*
X003224Y005950D01*
X003328Y005873D02*
X002541Y005873D01*
X002541Y005796D02*
X003328Y005796D01*
X003328Y005718D02*
X002977Y005718D01*
X003068Y005641D02*
X003328Y005641D01*
X003328Y005564D02*
X003103Y005564D01*
X003113Y005487D02*
X003328Y005487D01*
X003328Y005409D02*
X003100Y005409D01*
X003061Y005332D02*
X003328Y005332D01*
X003380Y005255D02*
X003013Y005255D01*
X003013Y005178D02*
X003458Y005178D01*
X003535Y005100D02*
X003013Y005100D01*
X003013Y005023D02*
X003612Y005023D01*
X003689Y004946D02*
X003013Y004946D01*
X003013Y004869D02*
X003767Y004869D01*
X003844Y004791D02*
X003013Y004791D01*
X003013Y004714D02*
X003432Y004714D01*
X003355Y004637D02*
X003013Y004637D01*
X003013Y004560D02*
X003277Y004560D01*
X003200Y004482D02*
X003013Y004482D01*
X003013Y004405D02*
X003123Y004405D01*
X003092Y004328D02*
X003013Y004328D01*
X003013Y004251D02*
X003092Y004251D01*
X003065Y004173D02*
X003013Y004173D01*
X003013Y004096D02*
X002984Y004096D01*
X003013Y004019D02*
X002907Y004019D01*
X002829Y003942D02*
X003013Y003942D01*
X003013Y003865D02*
X002499Y003865D01*
X002381Y003787D02*
X003013Y003787D01*
X003013Y003710D02*
X001805Y003710D01*
X001882Y003787D02*
X002228Y003787D01*
X002111Y003865D02*
X001960Y003865D01*
X002037Y003942D02*
X002065Y003942D01*
X002305Y004034D02*
X002698Y004034D01*
X002856Y004191D01*
X002856Y005490D01*
X002599Y005487D02*
X002541Y005487D01*
X002541Y005564D02*
X002608Y005564D01*
X002643Y005641D02*
X002541Y005641D01*
X002541Y005718D02*
X002735Y005718D01*
X002832Y005950D02*
X002911Y005950D01*
X002911Y006027D02*
X002832Y006027D01*
X002832Y006104D02*
X002911Y006104D01*
X002911Y006182D02*
X002832Y006182D01*
X002832Y006259D02*
X002911Y006259D01*
X002832Y006336D02*
X002290Y006336D01*
X002290Y006259D02*
X002454Y006259D01*
X002454Y006182D02*
X002288Y006182D01*
X002346Y006104D02*
X002454Y006104D01*
X002457Y006027D02*
X002424Y006027D01*
X002501Y005950D02*
X002520Y005950D01*
X002383Y005845D02*
X001872Y006356D01*
X001454Y006336D02*
X001290Y006336D01*
X001290Y006259D02*
X001454Y006259D01*
X001455Y006182D02*
X001288Y006182D01*
X001211Y006104D02*
X001532Y006104D01*
X001610Y006027D02*
X001134Y006027D01*
X001057Y005950D02*
X001687Y005950D01*
X002133Y005873D02*
X000513Y005873D01*
X000513Y005950D02*
X000687Y005950D01*
X000610Y006027D02*
X000513Y006027D01*
X000513Y006104D02*
X000532Y006104D01*
X000513Y005796D02*
X002210Y005796D01*
X002226Y005718D02*
X000513Y005718D01*
X000513Y005641D02*
X002226Y005641D01*
X002226Y005564D02*
X000513Y005564D01*
X000513Y005487D02*
X002226Y005487D01*
X002226Y005409D02*
X000513Y005409D01*
X000513Y005332D02*
X001004Y005332D01*
X000818Y005255D02*
X000513Y005255D01*
X000513Y005178D02*
X000711Y005178D01*
X000634Y005100D02*
X000513Y005100D01*
X000513Y005023D02*
X000557Y005023D01*
X001558Y005332D02*
X002226Y005332D01*
X002226Y005255D02*
X001745Y005255D01*
X001851Y005178D02*
X002226Y005178D01*
X002226Y005100D02*
X001928Y005100D01*
X002005Y005023D02*
X002226Y005023D01*
X002226Y004946D02*
X002063Y004946D01*
X002095Y004869D02*
X002226Y004869D01*
X002226Y004791D02*
X002127Y004791D01*
X002159Y004714D02*
X002226Y004714D01*
X002226Y004637D02*
X002187Y004637D01*
X002541Y004637D02*
X002698Y004637D01*
X002698Y004714D02*
X002541Y004714D01*
X002541Y004791D02*
X002698Y004791D01*
X002698Y004869D02*
X002541Y004869D01*
X002541Y004946D02*
X002698Y004946D01*
X002698Y005023D02*
X002541Y005023D01*
X002541Y005100D02*
X002698Y005100D01*
X002698Y005178D02*
X002541Y005178D01*
X002541Y005255D02*
X002698Y005255D01*
X002651Y005332D02*
X002541Y005332D01*
X002541Y005409D02*
X002611Y005409D01*
X003643Y005718D02*
X004689Y005718D01*
X004662Y005796D02*
X003643Y005796D01*
X003643Y005873D02*
X004585Y005873D01*
X004508Y005950D02*
X004297Y005950D01*
X004374Y006027D02*
X004450Y006027D01*
X004151Y006027D02*
X004072Y006027D01*
X004072Y005950D02*
X004151Y005950D01*
X004151Y006104D02*
X004072Y006104D01*
X004072Y006182D02*
X004151Y006182D01*
X004151Y006259D02*
X004072Y006259D01*
X004072Y006336D02*
X003707Y006336D01*
X003694Y006259D02*
X003643Y006259D01*
X003643Y006182D02*
X003695Y006182D01*
X003643Y006104D02*
X003772Y006104D01*
X003850Y006027D02*
X003643Y006027D01*
X003643Y005950D02*
X003927Y005950D01*
X002832Y006396D02*
X002832Y006775D01*
X002556Y006775D01*
X002526Y006767D01*
X002499Y006751D01*
X002477Y006729D01*
X002462Y006702D01*
X002454Y006672D01*
X002454Y006396D01*
X002832Y006396D01*
X002832Y006413D02*
X002911Y006413D01*
X002911Y006491D02*
X002832Y006491D01*
X002832Y006568D02*
X002911Y006568D01*
X002911Y006645D02*
X002832Y006645D01*
X002832Y006722D02*
X002909Y006722D01*
X002831Y006800D02*
X000513Y006800D01*
X000513Y006722D02*
X000646Y006722D01*
X000569Y006645D02*
X000513Y006645D01*
X000584Y006877D02*
X002754Y006877D01*
X002677Y006954D02*
X000661Y006954D01*
X000738Y007031D02*
X002600Y007031D01*
X002522Y007109D02*
X000815Y007109D01*
X000893Y007186D02*
X002482Y007186D01*
X002256Y007263D02*
X001487Y007263D01*
X001615Y007340D02*
X002128Y007340D01*
X002056Y007418D02*
X001687Y007418D01*
X001701Y007805D02*
X001683Y007848D01*
X001574Y007957D01*
X001431Y008016D01*
X000737Y008016D01*
X000594Y007957D01*
X000485Y007848D01*
X000426Y007705D01*
X000426Y007551D01*
X000485Y007408D01*
X000550Y007344D01*
X000263Y007057D01*
X000257Y007052D01*
X000257Y010687D01*
X000267Y010797D01*
X000295Y010903D01*
X000342Y011002D01*
X000405Y011092D01*
X000482Y011170D01*
X000572Y011233D01*
X000672Y011279D01*
X000778Y011308D01*
X000887Y011317D01*
X002666Y011317D01*
X002638Y011250D01*
X002638Y011148D01*
X002658Y011101D01*
X002541Y011101D01*
X002541Y010825D01*
X002462Y010825D01*
X002462Y010746D01*
X002541Y010746D01*
X002541Y010471D01*
X002734Y010471D01*
X002738Y010472D01*
X002738Y010431D01*
X002236Y010431D01*
X002187Y010382D01*
X002187Y010474D01*
X002049Y010806D01*
X001794Y011061D01*
X001461Y011199D01*
X001101Y011199D01*
X000768Y011061D01*
X000513Y010806D01*
X000376Y010474D01*
X000376Y010113D01*
X000513Y009781D01*
X000768Y009526D01*
X001101Y009388D01*
X001461Y009388D01*
X001794Y009526D01*
X002049Y009781D01*
X002167Y010066D01*
X002167Y009871D01*
X002236Y009801D01*
X002344Y009801D01*
X002344Y009016D01*
X002312Y009016D01*
X002169Y008957D01*
X002060Y008848D01*
X002001Y008705D01*
X002001Y008551D01*
X002060Y008408D01*
X002169Y008299D01*
X002312Y008240D01*
X003006Y008240D01*
X003149Y008299D01*
X003210Y008360D01*
X003210Y008142D01*
X003229Y008123D01*
X003229Y008038D01*
X003268Y007943D01*
X003340Y007871D01*
X003435Y007832D01*
X003486Y007832D01*
X003486Y007354D01*
X003578Y007262D01*
X003814Y007026D01*
X004247Y007026D01*
X004267Y007006D01*
X003126Y007006D01*
X002892Y007240D01*
X003006Y007240D01*
X003149Y007299D01*
X003258Y007408D01*
X003317Y007551D01*
X003317Y007705D01*
X003258Y007848D01*
X003149Y007957D01*
X003006Y008016D01*
X002312Y008016D01*
X002169Y007957D01*
X002060Y007848D01*
X002042Y007805D01*
X001701Y007805D01*
X001650Y007881D02*
X002093Y007881D01*
X002172Y007958D02*
X001571Y007958D01*
X001431Y008240D02*
X000737Y008240D01*
X000594Y008299D01*
X000485Y008408D01*
X000426Y008551D01*
X000426Y008705D01*
X000485Y008848D01*
X000594Y008957D01*
X000737Y009016D01*
X001431Y009016D01*
X001574Y008957D01*
X001683Y008848D01*
X001742Y008705D01*
X001742Y008551D01*
X001683Y008408D01*
X001574Y008299D01*
X001431Y008240D01*
X001497Y008267D02*
X002246Y008267D01*
X002124Y008344D02*
X001619Y008344D01*
X001689Y008422D02*
X002054Y008422D01*
X002022Y008499D02*
X001721Y008499D01*
X001742Y008576D02*
X002001Y008576D01*
X002001Y008653D02*
X001742Y008653D01*
X001732Y008731D02*
X002011Y008731D01*
X002043Y008808D02*
X001700Y008808D01*
X001646Y008885D02*
X002097Y008885D01*
X002182Y008962D02*
X001561Y008962D01*
X002344Y009040D02*
X000257Y009040D01*
X000257Y009117D02*
X002344Y009117D01*
X002344Y009194D02*
X000257Y009194D01*
X000257Y009271D02*
X002344Y009271D01*
X002344Y009349D02*
X000257Y009349D01*
X000257Y009426D02*
X001010Y009426D01*
X000823Y009503D02*
X000257Y009503D01*
X000257Y009580D02*
X000714Y009580D01*
X000636Y009658D02*
X000257Y009658D01*
X000257Y009735D02*
X000559Y009735D01*
X000500Y009812D02*
X000257Y009812D01*
X000257Y009889D02*
X000468Y009889D01*
X000436Y009967D02*
X000257Y009967D01*
X000257Y010044D02*
X000404Y010044D01*
X000376Y010121D02*
X000257Y010121D01*
X000257Y010198D02*
X000376Y010198D01*
X000376Y010275D02*
X000257Y010275D01*
X000257Y010353D02*
X000376Y010353D01*
X000376Y010430D02*
X000257Y010430D01*
X000257Y010507D02*
X000390Y010507D01*
X000422Y010584D02*
X000257Y010584D01*
X000257Y010662D02*
X000454Y010662D01*
X000485Y010739D02*
X000262Y010739D01*
X000272Y010816D02*
X000523Y010816D01*
X000600Y010893D02*
X000293Y010893D01*
X000327Y010971D02*
X000678Y010971D01*
X000755Y011048D02*
X000374Y011048D01*
X000438Y011125D02*
X000923Y011125D01*
X000674Y011280D02*
X002651Y011280D01*
X002638Y011202D02*
X000529Y011202D01*
X001640Y011125D02*
X002648Y011125D01*
X002541Y011048D02*
X002462Y011048D01*
X002462Y011101D02*
X002269Y011101D01*
X002239Y011093D01*
X002213Y011077D01*
X002191Y011055D01*
X002175Y011028D01*
X002167Y010998D01*
X002167Y010825D01*
X002462Y010825D01*
X002462Y011101D01*
X002502Y011199D02*
X002502Y010786D01*
X002462Y010816D02*
X002039Y010816D01*
X002077Y010739D02*
X002167Y010739D01*
X002167Y010746D02*
X002167Y010573D01*
X002175Y010543D01*
X002191Y010516D01*
X002213Y010494D01*
X002239Y010479D01*
X002269Y010471D01*
X002462Y010471D01*
X002462Y010746D01*
X002167Y010746D01*
X002167Y010662D02*
X002109Y010662D01*
X002141Y010584D02*
X002167Y010584D01*
X002173Y010507D02*
X002200Y010507D01*
X002187Y010430D02*
X002235Y010430D01*
X002462Y010507D02*
X002541Y010507D01*
X002541Y010584D02*
X002462Y010584D01*
X002462Y010662D02*
X002541Y010662D01*
X002541Y010739D02*
X002462Y010739D01*
X002462Y010893D02*
X002541Y010893D01*
X002541Y010971D02*
X002462Y010971D01*
X002186Y011048D02*
X001807Y011048D01*
X001885Y010971D02*
X002167Y010971D01*
X002167Y010893D02*
X001962Y010893D01*
X002895Y011199D02*
X002895Y009309D01*
X003368Y008837D01*
X003368Y008207D01*
X003486Y008089D01*
X003229Y008113D02*
X000257Y008113D01*
X000257Y008190D02*
X003210Y008190D01*
X003210Y008267D02*
X003072Y008267D01*
X003194Y008344D02*
X003210Y008344D01*
X003525Y008482D02*
X003525Y008916D01*
X003092Y009349D01*
X003092Y010727D01*
X003210Y010845D01*
X003210Y010884D01*
X003407Y011050D02*
X003356Y011102D01*
X003261Y011141D01*
X003159Y011141D01*
X003147Y011136D01*
X003152Y011148D01*
X003152Y011250D01*
X003124Y011317D01*
X009928Y011317D01*
X009259Y010648D01*
X009008Y010648D01*
X008899Y010539D01*
X008899Y010642D01*
X008742Y010800D01*
X008638Y010904D01*
X007546Y010904D01*
X007290Y010648D01*
X007040Y010648D01*
X006832Y010440D01*
X006832Y010147D01*
X006941Y010038D01*
X006644Y010038D01*
X006754Y010147D01*
X006754Y010440D01*
X006546Y010648D01*
X006252Y010648D01*
X006045Y010440D01*
X006045Y010147D01*
X006154Y010038D01*
X005857Y010038D01*
X005966Y010147D01*
X005966Y010440D01*
X005759Y010648D01*
X005465Y010648D01*
X005257Y010440D01*
X005257Y010147D01*
X005367Y010038D01*
X005331Y010038D01*
X005179Y010190D01*
X005179Y010440D01*
X004971Y010648D01*
X004678Y010648D01*
X004470Y010440D01*
X004470Y010147D01*
X004678Y009939D01*
X004928Y009939D01*
X005066Y009801D01*
X004780Y009801D01*
X004391Y010190D01*
X004391Y010440D01*
X004184Y010648D01*
X003890Y010648D01*
X003683Y010440D01*
X003683Y010147D01*
X003890Y009939D01*
X004141Y009939D01*
X004633Y009447D01*
X004687Y009447D01*
X004687Y009158D01*
X004614Y009230D01*
X004457Y009388D01*
X004372Y009388D01*
X004372Y009496D01*
X004302Y009565D01*
X003772Y009565D01*
X003702Y009496D01*
X003702Y009197D01*
X003407Y009493D01*
X003407Y010425D01*
X003609Y010627D01*
X003655Y010627D01*
X003749Y010666D01*
X003822Y010739D01*
X007382Y010739D01*
X007459Y010816D02*
X003854Y010816D01*
X003861Y010833D02*
X003861Y010935D01*
X003822Y011030D01*
X003749Y011102D01*
X003655Y011141D01*
X003553Y011141D01*
X003458Y011102D01*
X003407Y011050D01*
X003299Y011125D02*
X003515Y011125D01*
X003693Y011125D02*
X009736Y011125D01*
X009659Y011048D02*
X003803Y011048D01*
X003846Y010971D02*
X009582Y010971D01*
X009505Y010893D02*
X008648Y010893D01*
X008725Y010816D02*
X009427Y010816D01*
X009350Y010739D02*
X008803Y010739D01*
X008880Y010662D02*
X009273Y010662D01*
X008945Y010584D02*
X008899Y010584D01*
X007536Y010893D02*
X003861Y010893D01*
X003861Y010833D02*
X003822Y010739D01*
X003738Y010662D02*
X007304Y010662D01*
X006976Y010584D02*
X006609Y010584D01*
X006687Y010507D02*
X006899Y010507D01*
X006832Y010430D02*
X006754Y010430D01*
X006754Y010353D02*
X006832Y010353D01*
X006832Y010275D02*
X006754Y010275D01*
X006754Y010198D02*
X006832Y010198D01*
X006858Y010121D02*
X006728Y010121D01*
X006651Y010044D02*
X006935Y010044D01*
X006148Y010044D02*
X005863Y010044D01*
X005940Y010121D02*
X006071Y010121D01*
X006045Y010198D02*
X005966Y010198D01*
X005966Y010275D02*
X006045Y010275D01*
X006045Y010353D02*
X005966Y010353D01*
X005966Y010430D02*
X006045Y010430D01*
X006112Y010507D02*
X005899Y010507D01*
X005822Y010584D02*
X006189Y010584D01*
X005402Y010584D02*
X005035Y010584D01*
X005112Y010507D02*
X005324Y010507D01*
X005257Y010430D02*
X005179Y010430D01*
X005179Y010353D02*
X005257Y010353D01*
X005257Y010275D02*
X005179Y010275D01*
X005179Y010198D02*
X005257Y010198D01*
X005247Y010121D02*
X005283Y010121D01*
X005325Y010044D02*
X005360Y010044D01*
X005055Y009812D02*
X004769Y009812D01*
X004692Y009889D02*
X004978Y009889D01*
X004650Y009967D02*
X004615Y009967D01*
X004573Y010044D02*
X004537Y010044D01*
X004496Y010121D02*
X004460Y010121D01*
X004470Y010198D02*
X004391Y010198D01*
X004391Y010275D02*
X004470Y010275D01*
X004470Y010353D02*
X004391Y010353D01*
X004391Y010430D02*
X004470Y010430D01*
X004537Y010507D02*
X004324Y010507D01*
X004247Y010584D02*
X004614Y010584D01*
X003827Y010584D02*
X003566Y010584D01*
X003489Y010507D02*
X003750Y010507D01*
X003683Y010430D02*
X003412Y010430D01*
X003407Y010353D02*
X003683Y010353D01*
X003683Y010275D02*
X003407Y010275D01*
X003407Y010198D02*
X003683Y010198D01*
X003708Y010121D02*
X003407Y010121D01*
X003407Y010044D02*
X003786Y010044D01*
X003863Y009967D02*
X003407Y009967D01*
X003407Y009889D02*
X004191Y009889D01*
X004268Y009812D02*
X003407Y009812D01*
X003407Y009735D02*
X004345Y009735D01*
X004422Y009658D02*
X003407Y009658D01*
X003407Y009580D02*
X004500Y009580D01*
X004577Y009503D02*
X004365Y009503D01*
X004372Y009426D02*
X004687Y009426D01*
X004687Y009349D02*
X004496Y009349D01*
X004573Y009271D02*
X004687Y009271D01*
X004687Y009194D02*
X004650Y009194D01*
X004549Y009073D02*
X004549Y008876D01*
X004549Y009073D02*
X004391Y009230D01*
X004194Y009230D01*
X004175Y009250D01*
X004037Y009250D01*
X003702Y009271D02*
X003628Y009271D01*
X003702Y009349D02*
X003551Y009349D01*
X003474Y009426D02*
X003702Y009426D01*
X003710Y009503D02*
X003407Y009503D01*
X003250Y009427D02*
X003683Y008994D01*
X003683Y008640D01*
X003817Y008506D01*
X004112Y008506D01*
X004037Y008581D01*
X004112Y008506D02*
X004112Y007636D01*
X004530Y007649D02*
X004694Y007649D01*
X004694Y007572D02*
X004530Y007572D01*
X004530Y007495D02*
X004694Y007495D01*
X004739Y007418D02*
X004485Y007418D01*
X004407Y007340D02*
X004816Y007340D01*
X004893Y007263D02*
X004455Y007263D01*
X004533Y007186D02*
X007620Y007186D01*
X007620Y007263D02*
X007506Y007263D01*
X007530Y007340D02*
X007620Y007340D01*
X007620Y007418D02*
X007530Y007418D01*
X007530Y007495D02*
X007620Y007495D01*
X007620Y007572D02*
X007530Y007572D01*
X007530Y007649D02*
X007620Y007649D01*
X007620Y007727D02*
X007530Y007727D01*
X007530Y007804D02*
X007620Y007804D01*
X007620Y007881D02*
X007530Y007881D01*
X007530Y007958D02*
X007620Y007958D01*
X007620Y008036D02*
X007479Y008036D01*
X007620Y008113D02*
X007269Y008113D01*
X007269Y008190D02*
X007620Y008190D01*
X007620Y008267D02*
X007453Y008267D01*
X007521Y008344D02*
X007620Y008344D01*
X007620Y008422D02*
X007521Y008422D01*
X007521Y008499D02*
X007620Y008499D01*
X007620Y008576D02*
X007521Y008576D01*
X007521Y008653D02*
X007620Y008653D01*
X007685Y008731D02*
X007521Y008731D01*
X007521Y008808D02*
X007762Y008808D01*
X007839Y008885D02*
X007463Y008885D01*
X007479Y008962D02*
X008110Y008962D01*
X008032Y009040D02*
X007521Y009040D01*
X007521Y009117D02*
X007955Y009117D01*
X007878Y009194D02*
X007521Y009194D01*
X007521Y009271D02*
X007801Y009271D01*
X007723Y009349D02*
X007521Y009349D01*
X007521Y009426D02*
X007646Y009426D01*
X007187Y009250D02*
X006813Y009250D01*
X006675Y009112D01*
X006675Y008876D01*
X006808Y008653D02*
X006852Y008653D01*
X006852Y008576D02*
X006537Y008576D01*
X006537Y008499D02*
X006852Y008499D01*
X006852Y008422D02*
X006537Y008422D01*
X006537Y008344D02*
X006852Y008344D01*
X006920Y008267D02*
X006469Y008267D01*
X006269Y008190D02*
X006954Y008190D01*
X006954Y008113D02*
X006269Y008113D01*
X006304Y008036D02*
X006744Y008036D01*
X006694Y007958D02*
X006381Y007958D01*
X006458Y007881D02*
X006694Y007881D01*
X006694Y007804D02*
X006530Y007804D01*
X006530Y007727D02*
X006694Y007727D01*
X006694Y007649D02*
X006530Y007649D01*
X006530Y007572D02*
X006694Y007572D01*
X006694Y007495D02*
X006530Y007495D01*
X006485Y007418D02*
X006694Y007418D01*
X006694Y007340D02*
X006407Y007340D01*
X006330Y007263D02*
X006718Y007263D01*
X005893Y007263D02*
X005330Y007263D01*
X005407Y007340D02*
X005816Y007340D01*
X005739Y007418D02*
X005485Y007418D01*
X005530Y007495D02*
X005694Y007495D01*
X005694Y007572D02*
X005530Y007572D01*
X005530Y007649D02*
X005694Y007649D01*
X005694Y007727D02*
X005530Y007727D01*
X005530Y007804D02*
X005694Y007804D01*
X005766Y007881D02*
X005458Y007881D01*
X005381Y007958D02*
X005843Y007958D01*
X005920Y008036D02*
X005304Y008036D01*
X005269Y008113D02*
X005954Y008113D01*
X005954Y008190D02*
X005269Y008190D01*
X005288Y008267D02*
X005713Y008267D01*
X005826Y008267D02*
X005936Y008267D01*
X005583Y008344D02*
X005356Y008344D01*
X005356Y008422D02*
X005533Y008422D01*
X005512Y008499D02*
X005356Y008499D01*
X005356Y008576D02*
X005514Y008576D01*
X005400Y008653D02*
X005356Y008653D01*
X005112Y008490D02*
X005112Y007636D01*
X004843Y007958D02*
X004381Y007958D01*
X004458Y007881D02*
X004766Y007881D01*
X004694Y007804D02*
X004530Y007804D01*
X004530Y007727D02*
X004694Y007727D01*
X003801Y007971D02*
X003801Y008207D01*
X003525Y008482D01*
X004304Y008267D02*
X004754Y008267D01*
X004687Y008344D02*
X004372Y008344D01*
X004372Y008422D02*
X004687Y008422D01*
X004687Y008499D02*
X004372Y008499D01*
X004372Y008576D02*
X004687Y008576D01*
X004682Y008653D02*
X004687Y008653D01*
X004415Y008653D02*
X004372Y008653D01*
X004269Y008190D02*
X004954Y008190D01*
X004954Y008113D02*
X004269Y008113D01*
X004304Y008036D02*
X004920Y008036D01*
X003801Y007971D02*
X003643Y007813D01*
X003643Y007419D01*
X003880Y007183D01*
X004313Y007183D01*
X005112Y006384D01*
X005112Y006356D01*
X005530Y006336D02*
X005694Y006336D01*
X005694Y006259D02*
X005530Y006259D01*
X005528Y006182D02*
X005695Y006182D01*
X005772Y006104D02*
X005451Y006104D01*
X006451Y006104D02*
X006688Y006104D01*
X006694Y006182D02*
X006528Y006182D01*
X006530Y006259D02*
X006694Y006259D01*
X006694Y006336D02*
X006530Y006336D01*
X006530Y006413D02*
X006694Y006413D01*
X006694Y006491D02*
X006530Y006491D01*
X006492Y006568D02*
X006694Y006568D01*
X006694Y006645D02*
X006414Y006645D01*
X006337Y006722D02*
X006711Y006722D01*
X005886Y006722D02*
X005337Y006722D01*
X005414Y006645D02*
X005809Y006645D01*
X005732Y006568D02*
X005492Y006568D01*
X005530Y006491D02*
X005694Y006491D01*
X005694Y006413D02*
X005530Y006413D01*
X004919Y006800D02*
X007620Y006800D01*
X007620Y006877D02*
X004842Y006877D01*
X004764Y006954D02*
X007620Y006954D01*
X007620Y007031D02*
X004687Y007031D01*
X004610Y007109D02*
X007620Y007109D01*
X007935Y007109D02*
X010848Y007109D01*
X010848Y007186D02*
X007935Y007186D01*
X007935Y007263D02*
X010848Y007263D01*
X010848Y007340D02*
X007935Y007340D01*
X007935Y007418D02*
X010848Y007418D01*
X010848Y007495D02*
X007935Y007495D01*
X007935Y007572D02*
X010848Y007572D01*
X010789Y007649D02*
X007935Y007649D01*
X007935Y007727D02*
X010712Y007727D01*
X010635Y007804D02*
X007935Y007804D01*
X007935Y007881D02*
X010557Y007881D01*
X010480Y007958D02*
X007935Y007958D01*
X007935Y008036D02*
X010403Y008036D01*
X010326Y008113D02*
X007935Y008113D01*
X007935Y008190D02*
X010248Y008190D01*
X010171Y008267D02*
X007935Y008267D01*
X007935Y008344D02*
X010094Y008344D01*
X010017Y008422D02*
X007935Y008422D01*
X007935Y008499D02*
X009940Y008499D01*
X009862Y008576D02*
X007976Y008576D01*
X007112Y008506D02*
X007112Y007636D01*
X006112Y007636D02*
X006112Y008490D01*
X005809Y008561D02*
X005769Y008522D01*
X005809Y008561D02*
X005809Y009152D01*
X005907Y009250D01*
X006202Y009250D01*
X005533Y009112D02*
X005533Y008876D01*
X005533Y009112D02*
X005395Y009250D01*
X005021Y009250D01*
X006537Y008653D02*
X006541Y008653D01*
X003486Y007804D02*
X003276Y007804D01*
X003308Y007727D02*
X003486Y007727D01*
X003486Y007649D02*
X003317Y007649D01*
X003317Y007572D02*
X003486Y007572D01*
X003486Y007495D02*
X003294Y007495D01*
X003262Y007418D02*
X003486Y007418D01*
X003500Y007340D02*
X003190Y007340D01*
X003062Y007263D02*
X003577Y007263D01*
X003654Y007186D02*
X002946Y007186D01*
X003024Y007109D02*
X003731Y007109D01*
X003809Y007031D02*
X003101Y007031D01*
X002473Y006722D02*
X002097Y006722D01*
X002174Y006645D02*
X002454Y006645D01*
X002454Y006568D02*
X002251Y006568D01*
X002290Y006491D02*
X002454Y006491D01*
X002454Y006413D02*
X002290Y006413D01*
X001646Y006722D02*
X001097Y006722D01*
X001174Y006645D02*
X001569Y006645D01*
X001492Y006568D02*
X001251Y006568D01*
X001290Y006491D02*
X001454Y006491D01*
X001454Y006413D02*
X001290Y006413D01*
X000314Y007109D02*
X000257Y007109D01*
X000263Y007057D02*
X000263Y007057D01*
X000257Y007186D02*
X000391Y007186D01*
X000469Y007263D02*
X000257Y007263D01*
X000257Y007340D02*
X000546Y007340D01*
X000481Y007418D02*
X000257Y007418D01*
X000257Y007495D02*
X000449Y007495D01*
X000426Y007572D02*
X000257Y007572D01*
X000257Y007649D02*
X000426Y007649D01*
X000435Y007727D02*
X000257Y007727D01*
X000257Y007804D02*
X000467Y007804D01*
X000518Y007881D02*
X000257Y007881D01*
X000257Y007958D02*
X000597Y007958D01*
X000257Y008036D02*
X003230Y008036D01*
X003262Y007958D02*
X003146Y007958D01*
X003225Y007881D02*
X003330Y007881D01*
X002659Y008628D02*
X002502Y008786D01*
X002502Y010116D01*
X002620Y009998D01*
X002225Y009812D02*
X002062Y009812D01*
X002094Y009889D02*
X002167Y009889D01*
X002167Y009967D02*
X002126Y009967D01*
X002158Y010044D02*
X002167Y010044D01*
X002003Y009735D02*
X002344Y009735D01*
X002344Y009658D02*
X001926Y009658D01*
X001849Y009580D02*
X002344Y009580D01*
X002344Y009503D02*
X001739Y009503D01*
X001553Y009426D02*
X002344Y009426D01*
X003250Y009427D02*
X003250Y010490D01*
X003604Y010845D01*
X003604Y010884D01*
X003152Y011202D02*
X009813Y011202D01*
X009891Y011280D02*
X003140Y011280D01*
X000607Y008962D02*
X000257Y008962D01*
X000257Y008885D02*
X000522Y008885D01*
X000469Y008808D02*
X000257Y008808D01*
X000257Y008731D02*
X000437Y008731D01*
X000426Y008653D02*
X000257Y008653D01*
X000257Y008576D02*
X000426Y008576D01*
X000448Y008499D02*
X000257Y008499D01*
X000257Y008422D02*
X000480Y008422D01*
X000549Y008344D02*
X000257Y008344D01*
X000257Y008267D02*
X000671Y008267D01*
X002383Y005845D02*
X002383Y004427D01*
X002570Y004251D02*
X002693Y004251D01*
X002698Y004328D02*
X002620Y004328D01*
X002640Y004405D02*
X002698Y004405D01*
X002698Y004482D02*
X002639Y004482D01*
X002607Y004560D02*
X002698Y004560D01*
X003250Y004309D02*
X003525Y004585D01*
X005100Y004585D01*
X006360Y003325D01*
X006950Y003325D01*
X007915Y002360D01*
X007777Y002360D01*
X007294Y002011D02*
X006056Y002011D01*
X005927Y002104D02*
X005730Y001908D01*
X005612Y001908D01*
X005377Y002011D02*
X000259Y002011D01*
X000257Y002088D02*
X001800Y002088D01*
X001823Y002065D02*
X002629Y002065D01*
X002698Y002134D01*
X002698Y003256D01*
X002629Y003325D01*
X001823Y003325D01*
X001754Y003256D01*
X001754Y002134D01*
X001823Y002065D01*
X001754Y002165D02*
X000257Y002165D01*
X000257Y002242D02*
X001345Y002242D01*
X001453Y002242D02*
X001754Y002242D01*
X001754Y002320D02*
X001584Y002320D01*
X001635Y002397D02*
X001754Y002397D01*
X001754Y002474D02*
X001656Y002474D01*
X001655Y002551D02*
X001754Y002551D01*
X001754Y002629D02*
X001623Y002629D01*
X001555Y002706D02*
X001754Y002706D01*
X001754Y002783D02*
X001365Y002783D01*
X001288Y002860D02*
X001754Y002860D01*
X001754Y002938D02*
X001210Y002938D01*
X001133Y003015D02*
X001754Y003015D01*
X001754Y003092D02*
X001056Y003092D01*
X000979Y003169D02*
X001270Y003169D01*
X001209Y003247D02*
X000901Y003247D01*
X000824Y003324D02*
X001182Y003324D01*
X001182Y003401D02*
X000747Y003401D01*
X000670Y003478D02*
X001208Y003478D01*
X001267Y003556D02*
X000592Y003556D01*
X000515Y003633D02*
X000928Y003633D01*
X000757Y003710D02*
X000513Y003710D01*
X000513Y003787D02*
X000680Y003787D01*
X000603Y003865D02*
X000513Y003865D01*
X000513Y003942D02*
X000525Y003942D01*
X001439Y003364D02*
X001596Y003522D01*
X002659Y003522D01*
X002895Y003286D01*
X002895Y003010D01*
X003486Y002419D01*
X003919Y002419D01*
X004156Y002320D02*
X004982Y002320D01*
X004982Y002397D02*
X004176Y002397D01*
X004174Y002474D02*
X004982Y002474D01*
X004982Y002551D02*
X004142Y002551D01*
X004073Y002629D02*
X004982Y002629D01*
X004982Y002706D02*
X003422Y002706D01*
X003345Y002783D02*
X004982Y002783D01*
X004982Y002860D02*
X003268Y002860D01*
X003190Y002938D02*
X004982Y002938D01*
X004982Y003015D02*
X003113Y003015D01*
X003079Y003092D02*
X003053Y003092D01*
X002738Y003092D02*
X002698Y003092D01*
X002698Y003015D02*
X002738Y003015D01*
X002745Y002938D02*
X002698Y002938D01*
X002698Y002860D02*
X002822Y002860D01*
X002899Y002783D02*
X002698Y002783D01*
X002698Y002706D02*
X002977Y002706D01*
X003054Y002629D02*
X002698Y002629D01*
X002698Y002551D02*
X003131Y002551D01*
X003208Y002474D02*
X002698Y002474D01*
X002698Y002397D02*
X003286Y002397D01*
X003363Y002320D02*
X002698Y002320D01*
X002698Y002242D02*
X003733Y002242D01*
X003861Y002165D02*
X002698Y002165D01*
X002652Y002088D02*
X005028Y002088D01*
X004982Y002165D02*
X003976Y002165D01*
X004105Y002242D02*
X004982Y002242D01*
X005355Y001934D02*
X000266Y001934D01*
X000283Y001856D02*
X005355Y001856D01*
X005387Y001779D02*
X000310Y001779D01*
X000348Y001702D02*
X005454Y001702D01*
X005927Y002104D02*
X005927Y003286D01*
X005454Y003758D01*
X004943Y003758D01*
X005122Y003942D02*
X005284Y003942D01*
X005207Y004019D02*
X004667Y004019D01*
X004667Y003942D02*
X004763Y003942D01*
X004709Y003865D02*
X004667Y003865D01*
X004667Y003787D02*
X004686Y003787D01*
X004686Y003710D02*
X004667Y003710D01*
X004667Y003633D02*
X004716Y003633D01*
X004667Y003556D02*
X004782Y003556D01*
X004667Y003478D02*
X005511Y003478D01*
X005434Y003556D02*
X005103Y003556D01*
X004667Y003401D02*
X005589Y003401D01*
X005050Y003324D02*
X004667Y003324D01*
X004667Y003247D02*
X004982Y003247D01*
X004982Y003169D02*
X004667Y003169D01*
X004601Y003092D02*
X004982Y003092D01*
X004260Y003092D02*
X004183Y003092D01*
X004057Y003092D02*
X004017Y003092D01*
X004017Y003169D02*
X004057Y003169D01*
X004057Y003247D02*
X004017Y003247D01*
X004017Y003324D02*
X004057Y003324D01*
X004057Y003401D02*
X004017Y003401D01*
X004017Y003478D02*
X004057Y003478D01*
X004057Y003556D02*
X004017Y003556D01*
X004017Y003710D02*
X004057Y003710D01*
X004057Y003787D02*
X004017Y003787D01*
X004017Y003865D02*
X004057Y003865D01*
X004057Y003942D02*
X004017Y003942D01*
X004017Y004019D02*
X004057Y004019D01*
X004057Y004096D02*
X004017Y004096D01*
X004017Y004173D02*
X004057Y004173D01*
X003926Y004251D02*
X004975Y004251D01*
X005052Y004173D02*
X004615Y004173D01*
X004667Y004096D02*
X005130Y004096D01*
X005021Y004427D02*
X006281Y003167D01*
X006872Y003167D01*
X006950Y003089D01*
X006211Y003015D02*
X006084Y003015D01*
X006084Y003092D02*
X006134Y003092D01*
X008287Y003865D02*
X011656Y003865D01*
X011579Y003942D02*
X010861Y003942D01*
X010938Y004019D02*
X011501Y004019D01*
X011424Y004096D02*
X011015Y004096D01*
X011092Y004173D02*
X011347Y004173D01*
X011266Y004251D02*
X011170Y004251D01*
X010879Y004405D02*
X008131Y004405D01*
X008131Y004328D02*
X010802Y004328D01*
X010724Y004251D02*
X008137Y004251D01*
X007817Y004405D02*
X007746Y004405D01*
X007817Y004482D02*
X007669Y004482D01*
X007592Y004560D02*
X007817Y004560D01*
X008131Y004560D02*
X010887Y004560D01*
X010887Y004637D02*
X008131Y004637D01*
X008131Y004714D02*
X010912Y004714D01*
X010989Y004791D02*
X008131Y004791D01*
X008131Y004869D02*
X011067Y004869D01*
X011144Y004946D02*
X008131Y004946D01*
X008131Y005023D02*
X011221Y005023D01*
X011298Y005100D02*
X008075Y005100D01*
X007998Y005178D02*
X011376Y005178D01*
X011512Y004869D02*
X012901Y004869D01*
X012978Y004791D02*
X011435Y004791D01*
X011476Y004714D02*
X013055Y004714D01*
X013132Y004637D02*
X011544Y004637D01*
X011576Y004560D02*
X013209Y004560D01*
X013287Y004482D02*
X011650Y004482D01*
X011728Y004405D02*
X013364Y004405D01*
X013441Y004328D02*
X011805Y004328D01*
X011882Y004251D02*
X013518Y004251D01*
X013518Y004173D02*
X013485Y004173D01*
X013801Y004191D02*
X011006Y006986D01*
X011006Y007695D01*
X011202Y007892D01*
X012226Y007892D01*
X012310Y007892D01*
X012895Y007881D02*
X013347Y007881D01*
X013347Y007880D02*
X013350Y007873D01*
X013277Y007873D01*
X013183Y007834D01*
X013111Y007762D01*
X013071Y007667D01*
X013071Y007565D01*
X013111Y007471D01*
X013183Y007399D01*
X013277Y007359D01*
X013338Y007359D01*
X013289Y007311D01*
X013289Y006849D01*
X013288Y006849D01*
X013289Y006853D01*
X013289Y007026D01*
X012994Y007026D01*
X012994Y007104D01*
X013289Y007104D01*
X013289Y007278D01*
X013281Y007308D01*
X013265Y007334D01*
X013243Y007356D01*
X013216Y007372D01*
X013186Y007380D01*
X012994Y007380D01*
X012994Y007104D01*
X012915Y007104D01*
X012915Y007026D01*
X012620Y007026D01*
X012620Y006853D01*
X012621Y006849D01*
X012035Y006849D01*
X011209Y007675D01*
X011268Y007734D01*
X011832Y007734D01*
X011832Y007529D01*
X011901Y007460D01*
X012570Y007460D01*
X012600Y007489D01*
X012715Y007489D01*
X012803Y007577D01*
X012895Y007669D01*
X012895Y008265D01*
X012907Y008265D01*
X013001Y008304D01*
X013074Y008376D01*
X013113Y008471D01*
X013113Y008573D01*
X013074Y008667D01*
X013001Y008740D01*
X012907Y008779D01*
X012805Y008779D01*
X012710Y008740D01*
X012639Y008669D01*
X012639Y008765D01*
X012632Y008772D01*
X012639Y008779D01*
X012639Y009015D01*
X012632Y009022D01*
X012639Y009029D01*
X012639Y009265D01*
X012628Y009276D01*
X012631Y009282D01*
X012639Y009312D01*
X012639Y009397D01*
X012639Y009481D01*
X012631Y009511D01*
X012616Y009538D01*
X012594Y009560D01*
X012567Y009576D01*
X012537Y009584D01*
X012236Y009584D01*
X012236Y009397D01*
X012236Y009397D01*
X012639Y009397D01*
X012236Y009397D01*
X012236Y009397D01*
X012236Y009584D01*
X011935Y009584D01*
X011905Y009576D01*
X011878Y009560D01*
X011856Y009538D01*
X011840Y009511D01*
X011832Y009481D01*
X011832Y009397D01*
X012236Y009397D01*
X012236Y009397D01*
X011832Y009397D01*
X011832Y009324D01*
X010926Y009324D01*
X010213Y010038D01*
X010188Y010038D01*
X010297Y010147D01*
X010297Y010397D01*
X010725Y010825D01*
X011011Y010825D01*
X010834Y010648D01*
X010583Y010648D01*
X010376Y010440D01*
X010376Y010147D01*
X010583Y009939D01*
X010877Y009939D01*
X011084Y010147D01*
X011084Y010397D01*
X011276Y010589D01*
X011312Y010589D01*
X011163Y010440D01*
X011163Y010147D01*
X011371Y009939D01*
X011621Y009939D01*
X011956Y009604D01*
X012901Y009604D01*
X012994Y009511D01*
X012994Y009118D01*
X013097Y009014D01*
X013642Y008470D01*
X013781Y008470D01*
X013781Y008304D01*
X013754Y008304D01*
X013662Y008212D01*
X013638Y008188D01*
X013553Y008188D01*
X013458Y008149D01*
X013386Y008077D01*
X013347Y007982D01*
X013347Y007880D01*
X013347Y007958D02*
X012895Y007958D01*
X012895Y008036D02*
X013369Y008036D01*
X013422Y008113D02*
X012895Y008113D01*
X012895Y008190D02*
X013640Y008190D01*
X013717Y008267D02*
X012912Y008267D01*
X013042Y008344D02*
X013781Y008344D01*
X013781Y008422D02*
X013092Y008422D01*
X013113Y008499D02*
X013612Y008499D01*
X013535Y008576D02*
X013111Y008576D01*
X013079Y008653D02*
X013458Y008653D01*
X013381Y008731D02*
X013010Y008731D01*
X013226Y008885D02*
X012639Y008885D01*
X012639Y008808D02*
X013304Y008808D01*
X013149Y008962D02*
X012639Y008962D01*
X012639Y009040D02*
X013072Y009040D01*
X012995Y009117D02*
X012639Y009117D01*
X012639Y009194D02*
X012994Y009194D01*
X012994Y009271D02*
X012633Y009271D01*
X012639Y009349D02*
X012994Y009349D01*
X012994Y009426D02*
X012639Y009426D01*
X012634Y009503D02*
X012994Y009503D01*
X012925Y009580D02*
X012550Y009580D01*
X012236Y009580D02*
X012236Y009580D01*
X012236Y009503D02*
X012236Y009503D01*
X012236Y009426D02*
X012236Y009426D01*
X011832Y009426D02*
X010824Y009426D01*
X010747Y009503D02*
X011838Y009503D01*
X011922Y009580D02*
X010670Y009580D01*
X010593Y009658D02*
X011903Y009658D01*
X011825Y009735D02*
X010516Y009735D01*
X010438Y009812D02*
X011748Y009812D01*
X011671Y009889D02*
X010361Y009889D01*
X010284Y009967D02*
X010556Y009967D01*
X010479Y010044D02*
X010194Y010044D01*
X010271Y010121D02*
X010401Y010121D01*
X010376Y010198D02*
X010297Y010198D01*
X010297Y010275D02*
X010376Y010275D01*
X010376Y010353D02*
X010297Y010353D01*
X010330Y010430D02*
X010376Y010430D01*
X010407Y010507D02*
X010443Y010507D01*
X010484Y010584D02*
X010520Y010584D01*
X010561Y010662D02*
X010848Y010662D01*
X010925Y010739D02*
X010639Y010739D01*
X010716Y010816D02*
X011002Y010816D01*
X011271Y010584D02*
X011307Y010584D01*
X011230Y010507D02*
X011194Y010507D01*
X011163Y010430D02*
X011117Y010430D01*
X011084Y010353D02*
X011163Y010353D01*
X011163Y010275D02*
X011084Y010275D01*
X011084Y010198D02*
X011163Y010198D01*
X011189Y010121D02*
X011059Y010121D01*
X010981Y010044D02*
X011266Y010044D01*
X011343Y009967D02*
X010904Y009967D01*
X012471Y009959D02*
X012659Y010147D01*
X012659Y010440D01*
X012511Y010589D01*
X013137Y010589D01*
X013230Y010496D01*
X013230Y009776D01*
X013151Y009855D01*
X013047Y009959D01*
X012471Y009959D01*
X012479Y009967D02*
X013230Y009967D01*
X013230Y010044D02*
X012556Y010044D01*
X012633Y010121D02*
X013230Y010121D01*
X013230Y010198D02*
X012659Y010198D01*
X012659Y010275D02*
X013230Y010275D01*
X013230Y010353D02*
X012659Y010353D01*
X012659Y010430D02*
X013230Y010430D01*
X013218Y010507D02*
X012592Y010507D01*
X012515Y010584D02*
X013141Y010584D01*
X014234Y011199D02*
X014234Y009703D01*
X014706Y009703D02*
X015061Y009703D01*
X015415Y010057D01*
X015415Y010412D01*
X015691Y010687D01*
X016242Y010687D01*
X016380Y010825D01*
X016380Y011041D01*
X017049Y011041D01*
X017383Y011048D02*
X017679Y011048D01*
X017679Y011081D02*
X017679Y011002D01*
X017383Y011002D01*
X017383Y010845D01*
X017383Y011287D01*
X017354Y011317D01*
X017413Y011317D01*
X017407Y011311D01*
X017392Y011284D01*
X017383Y011254D01*
X017383Y011081D01*
X017679Y011081D01*
X017757Y011048D02*
X032251Y011048D01*
X032264Y011061D02*
X032010Y010806D01*
X031872Y010474D01*
X031872Y010113D01*
X032010Y009781D01*
X032264Y009526D01*
X032597Y009388D01*
X032957Y009388D01*
X033290Y009526D01*
X033545Y009781D01*
X033683Y010113D01*
X033683Y010474D01*
X033545Y010806D01*
X033290Y011061D01*
X032957Y011199D01*
X032597Y011199D01*
X032264Y011061D01*
X032174Y010971D02*
X018053Y010971D01*
X018053Y010893D02*
X019769Y010893D01*
X019864Y010766D02*
X026691Y010766D01*
X027222Y010234D01*
X026767Y010044D02*
X026678Y010044D01*
X026703Y010121D02*
X026735Y010121D01*
X026729Y010198D02*
X026261Y010198D01*
X026261Y010121D02*
X026183Y010121D01*
X026183Y010195D02*
X026183Y009741D01*
X026107Y009753D01*
X026033Y009777D01*
X025964Y009813D01*
X025901Y009858D01*
X025846Y009913D01*
X025800Y009976D01*
X025765Y010045D01*
X025741Y010119D01*
X025729Y010195D01*
X026183Y010195D01*
X026183Y010198D02*
X025261Y010198D01*
X025261Y010121D02*
X025183Y010121D01*
X025183Y010195D02*
X025183Y009741D01*
X025107Y009753D01*
X025033Y009777D01*
X024964Y009813D01*
X024901Y009858D01*
X024846Y009913D01*
X024800Y009976D01*
X024765Y010045D01*
X024741Y010119D01*
X024729Y010195D01*
X025183Y010195D01*
X025183Y010198D02*
X024261Y010198D01*
X024261Y010121D02*
X024183Y010121D01*
X024183Y010195D02*
X024183Y009741D01*
X024107Y009753D01*
X024033Y009777D01*
X023964Y009813D01*
X023901Y009858D01*
X023846Y009913D01*
X023800Y009976D01*
X023765Y010045D01*
X023741Y010119D01*
X023729Y010195D01*
X024183Y010195D01*
X024183Y010198D02*
X023715Y010198D01*
X023709Y010121D02*
X023741Y010121D01*
X023766Y010044D02*
X023677Y010044D01*
X023645Y009967D02*
X023807Y009967D01*
X023870Y009889D02*
X023574Y009889D01*
X023491Y009812D02*
X023965Y009812D01*
X024183Y009812D02*
X024261Y009812D01*
X024261Y009889D02*
X024183Y009889D01*
X024183Y009967D02*
X024261Y009967D01*
X024261Y010044D02*
X024183Y010044D01*
X024637Y009967D02*
X024807Y009967D01*
X024766Y010044D02*
X024678Y010044D01*
X024703Y010121D02*
X024741Y010121D01*
X024729Y010275D02*
X024715Y010275D01*
X024702Y010353D02*
X024742Y010353D01*
X024768Y010430D02*
X024676Y010430D01*
X024633Y010507D02*
X024811Y010507D01*
X024875Y010584D02*
X024569Y010584D01*
X023875Y010584D02*
X023569Y010584D01*
X023643Y010507D02*
X023811Y010507D01*
X023768Y010430D02*
X023675Y010430D01*
X023707Y010353D02*
X023742Y010353D01*
X023729Y010275D02*
X023715Y010275D01*
X022953Y009812D02*
X022491Y009812D01*
X022574Y009889D02*
X022870Y009889D01*
X022799Y009967D02*
X022645Y009967D01*
X022677Y010044D02*
X022767Y010044D01*
X021953Y009812D02*
X021491Y009812D01*
X021574Y009889D02*
X021870Y009889D01*
X021799Y009967D02*
X021645Y009967D01*
X021677Y010044D02*
X021767Y010044D01*
X021735Y010121D02*
X021709Y010121D01*
X021715Y010198D02*
X021729Y010198D01*
X021729Y010275D02*
X021715Y010275D01*
X021707Y010353D02*
X021737Y010353D01*
X021769Y010430D02*
X021675Y010430D01*
X021643Y010507D02*
X021801Y010507D01*
X021875Y010584D02*
X021569Y010584D01*
X020875Y010584D02*
X020569Y010584D01*
X020643Y010507D02*
X020801Y010507D01*
X020769Y010430D02*
X020675Y010430D01*
X020707Y010353D02*
X020737Y010353D01*
X020729Y010275D02*
X020715Y010275D01*
X020715Y010198D02*
X020729Y010198D01*
X020735Y010121D02*
X020709Y010121D01*
X020677Y010044D02*
X020767Y010044D01*
X020799Y009967D02*
X020713Y009967D01*
X020790Y009889D02*
X020870Y009889D01*
X020848Y009812D02*
X020953Y009812D01*
X020848Y009735D02*
X032055Y009735D01*
X031996Y009812D02*
X027491Y009812D01*
X027574Y009889D02*
X031964Y009889D01*
X031932Y009967D02*
X031180Y009967D01*
X031152Y009939D02*
X031360Y010147D01*
X031360Y010254D01*
X031045Y010254D01*
X031045Y010333D01*
X030966Y010333D01*
X030966Y010648D01*
X030859Y010648D01*
X030651Y010440D01*
X030651Y010333D01*
X030966Y010333D01*
X030966Y010254D01*
X030651Y010254D01*
X030651Y010147D01*
X030859Y009939D01*
X030966Y009939D01*
X030966Y010254D01*
X031045Y010254D01*
X031045Y009939D01*
X031152Y009939D01*
X031045Y009967D02*
X030966Y009967D01*
X030966Y010044D02*
X031045Y010044D01*
X031045Y010121D02*
X030966Y010121D01*
X030966Y010198D02*
X031045Y010198D01*
X031045Y010275D02*
X031872Y010275D01*
X031872Y010198D02*
X031360Y010198D01*
X031334Y010121D02*
X031872Y010121D01*
X031900Y010044D02*
X031257Y010044D01*
X030966Y010275D02*
X030572Y010275D01*
X030572Y010198D02*
X030651Y010198D01*
X030677Y010121D02*
X030547Y010121D01*
X030572Y010147D02*
X030365Y009939D01*
X030071Y009939D01*
X029864Y010147D01*
X029864Y010440D01*
X030071Y010648D01*
X030365Y010648D01*
X030572Y010440D01*
X030572Y010147D01*
X030469Y010044D02*
X030754Y010044D01*
X030831Y009967D02*
X030392Y009967D01*
X030044Y009967D02*
X027645Y009967D01*
X027677Y010044D02*
X029967Y010044D01*
X029889Y010121D02*
X027709Y010121D01*
X027715Y010198D02*
X029864Y010198D01*
X029864Y010275D02*
X027715Y010275D01*
X027707Y010353D02*
X029864Y010353D01*
X029864Y010430D02*
X027675Y010430D01*
X027643Y010507D02*
X029931Y010507D01*
X030008Y010584D02*
X027569Y010584D01*
X027479Y010662D02*
X031950Y010662D01*
X031982Y010739D02*
X026940Y010739D01*
X026863Y010816D02*
X032019Y010816D01*
X032097Y010893D02*
X026786Y010893D01*
X026649Y010584D02*
X026569Y010584D01*
X026633Y010507D02*
X026727Y010507D01*
X026769Y010430D02*
X026676Y010430D01*
X026702Y010353D02*
X026737Y010353D01*
X026729Y010275D02*
X026715Y010275D01*
X026261Y010044D02*
X026183Y010044D01*
X026183Y009967D02*
X026261Y009967D01*
X026261Y009889D02*
X026183Y009889D01*
X026183Y009812D02*
X026261Y009812D01*
X026479Y009812D02*
X026953Y009812D01*
X026870Y009889D02*
X026574Y009889D01*
X026637Y009967D02*
X026799Y009967D01*
X025965Y009812D02*
X025479Y009812D01*
X025574Y009889D02*
X025870Y009889D01*
X025807Y009967D02*
X025637Y009967D01*
X025678Y010044D02*
X025766Y010044D01*
X025741Y010121D02*
X025703Y010121D01*
X025715Y010275D02*
X025729Y010275D01*
X025742Y010353D02*
X025702Y010353D01*
X025676Y010430D02*
X025768Y010430D01*
X025811Y010507D02*
X025633Y010507D01*
X025569Y010584D02*
X025875Y010584D01*
X025261Y010044D02*
X025183Y010044D01*
X025183Y009967D02*
X025261Y009967D01*
X025261Y009889D02*
X025183Y009889D01*
X025183Y009812D02*
X025261Y009812D01*
X024965Y009812D02*
X024479Y009812D01*
X024574Y009889D02*
X024870Y009889D01*
X024899Y009580D02*
X032210Y009580D01*
X032132Y009658D02*
X020848Y009658D01*
X020848Y009580D02*
X022978Y009580D01*
X022901Y009503D02*
X020848Y009503D01*
X020848Y009426D02*
X022824Y009426D01*
X022747Y009349D02*
X020848Y009349D01*
X020848Y009271D02*
X021159Y009271D01*
X021164Y009277D02*
X021142Y009255D01*
X021127Y009228D01*
X021118Y009198D01*
X021118Y009122D01*
X021432Y009122D01*
X021432Y009122D01*
X021432Y009300D01*
X021221Y009300D01*
X021191Y009292D01*
X021164Y009277D01*
X021118Y009194D02*
X020848Y009194D01*
X020848Y009117D02*
X021118Y009117D01*
X021120Y009040D02*
X020848Y009040D01*
X020889Y008962D02*
X021118Y008962D01*
X021118Y008885D02*
X020932Y008885D01*
X020947Y008808D02*
X021118Y008808D01*
X021130Y008731D02*
X020941Y008731D01*
X020909Y008653D02*
X021118Y008653D01*
X021118Y008576D02*
X021039Y008576D01*
X021110Y008499D02*
X021121Y008499D01*
X020966Y008286D02*
X020887Y008364D01*
X020966Y008286D02*
X020966Y007262D01*
X021153Y007075D01*
X021432Y007075D01*
X021745Y007109D02*
X022942Y007109D01*
X022844Y007186D02*
X021743Y007186D01*
X021745Y007263D02*
X022807Y007263D01*
X022796Y007340D02*
X021745Y007340D01*
X021745Y007418D02*
X022807Y007418D01*
X022844Y007495D02*
X021745Y007495D01*
X021745Y007572D02*
X022940Y007572D01*
X023165Y007572D02*
X023416Y007572D01*
X023416Y007495D02*
X023262Y007495D01*
X023063Y007331D02*
X023729Y007331D01*
X024042Y007340D02*
X024057Y007340D01*
X024057Y007263D02*
X024042Y007263D01*
X024042Y007222D02*
X024042Y007440D01*
X024023Y007459D01*
X024042Y007478D01*
X024042Y007696D01*
X024023Y007715D01*
X024042Y007734D01*
X024042Y007952D01*
X024023Y007971D01*
X024042Y007990D01*
X024042Y008208D01*
X024023Y008227D01*
X024042Y008246D01*
X024042Y008463D01*
X024023Y008482D01*
X024042Y008501D01*
X024042Y008719D01*
X024023Y008738D01*
X024042Y008757D01*
X024042Y008975D01*
X024023Y008994D01*
X024042Y009013D01*
X024042Y009211D01*
X024656Y009211D01*
X024686Y009181D01*
X024686Y009179D01*
X024725Y009085D01*
X024726Y009084D01*
X024726Y009034D01*
X024657Y009034D01*
X024588Y008964D01*
X024588Y008690D01*
X024529Y008631D01*
X024529Y008362D01*
X024502Y008362D01*
X024433Y008293D01*
X024433Y007991D01*
X024419Y007991D01*
X024325Y007952D01*
X024252Y007880D01*
X024213Y007785D01*
X024213Y007784D01*
X024057Y007627D01*
X024057Y006604D01*
X023947Y006494D01*
X023289Y006494D01*
X023289Y006523D01*
X023222Y006590D01*
X023274Y006642D01*
X023484Y006642D01*
X023485Y006641D01*
X023973Y006641D01*
X024042Y006710D01*
X024042Y006928D01*
X024022Y006948D01*
X024034Y006969D01*
X024042Y006999D01*
X024042Y007075D01*
X024042Y007151D01*
X024034Y007181D01*
X024022Y007202D01*
X024042Y007222D01*
X024031Y007186D02*
X024057Y007186D01*
X024057Y007109D02*
X024042Y007109D01*
X024042Y007075D02*
X023729Y007075D01*
X023729Y007075D01*
X024042Y007075D01*
X024042Y007031D02*
X024057Y007031D01*
X024057Y006954D02*
X024025Y006954D01*
X024042Y006877D02*
X024057Y006877D01*
X024057Y006800D02*
X024042Y006800D01*
X024042Y006722D02*
X024057Y006722D01*
X024057Y006645D02*
X023977Y006645D01*
X024021Y006568D02*
X023245Y006568D01*
X022881Y006750D02*
X022881Y006750D01*
X022853Y006722D02*
X021739Y006722D01*
X021745Y006800D02*
X022930Y006800D01*
X023008Y006877D02*
X021745Y006877D01*
X021733Y006954D02*
X023085Y006954D01*
X023164Y007109D02*
X023416Y007109D01*
X023416Y007031D02*
X021745Y007031D01*
X021432Y006819D02*
X021432Y006641D01*
X021432Y006819D01*
X021432Y006819D01*
X021118Y006819D01*
X021432Y006819D01*
X021432Y006819D01*
X021432Y006800D02*
X021432Y006800D01*
X021432Y006722D02*
X021432Y006722D01*
X021432Y006645D02*
X021432Y006645D01*
X021658Y006645D02*
X022777Y006645D01*
X022664Y006568D02*
X022575Y006568D01*
X022574Y006569D02*
X022547Y006585D01*
X022517Y006593D01*
X022324Y006593D01*
X022324Y006317D01*
X022620Y006317D01*
X022620Y006490D01*
X022612Y006520D01*
X022596Y006547D01*
X022574Y006569D01*
X022620Y006491D02*
X022620Y006491D01*
X022620Y006413D02*
X022620Y006413D01*
X022620Y006336D02*
X022620Y006336D01*
X022620Y006259D02*
X022324Y006259D01*
X022324Y006336D02*
X022246Y006336D01*
X022246Y006259D02*
X021488Y006259D01*
X021565Y006182D02*
X021950Y006182D01*
X021950Y006104D02*
X021642Y006104D01*
X021720Y006027D02*
X021963Y006027D01*
X021468Y005666D02*
X021320Y005728D01*
X021124Y005728D01*
X020943Y005652D01*
X020804Y005514D01*
X020729Y005332D01*
X020706Y005332D01*
X020703Y005350D02*
X020679Y005424D01*
X020644Y005493D01*
X020598Y005556D01*
X020543Y005611D01*
X020480Y005656D01*
X020411Y005691D01*
X020338Y005715D01*
X020261Y005727D01*
X020261Y005274D01*
X020183Y005274D01*
X020183Y005727D01*
X020122Y005718D01*
X020308Y005904D01*
X020465Y005904D01*
X020466Y005902D01*
X020561Y005863D01*
X020663Y005863D01*
X020757Y005902D01*
X020830Y005975D01*
X020869Y006069D01*
X020869Y006171D01*
X020830Y006266D01*
X020757Y006338D01*
X020669Y006374D01*
X020633Y006463D01*
X020560Y006535D01*
X020466Y006574D01*
X020364Y006574D01*
X020269Y006535D01*
X020197Y006463D01*
X020158Y006368D01*
X020158Y006366D01*
X020128Y006337D01*
X020002Y006210D01*
X020002Y006210D01*
X019588Y005797D01*
X019588Y006169D01*
X019519Y006238D01*
X019470Y006238D01*
X019470Y006523D01*
X019550Y006603D01*
X020532Y006603D01*
X021419Y005716D01*
X021468Y005666D01*
X021416Y005718D02*
X021342Y005718D01*
X021339Y005796D02*
X020200Y005796D01*
X020183Y005718D02*
X020261Y005718D01*
X020319Y005718D02*
X021102Y005718D01*
X020931Y005641D02*
X020501Y005641D01*
X020590Y005564D02*
X020854Y005564D01*
X020793Y005487D02*
X020647Y005487D01*
X020684Y005409D02*
X020761Y005409D01*
X020703Y005350D02*
X020715Y005274D01*
X020261Y005274D01*
X020261Y005195D01*
X020261Y004741D01*
X020338Y004753D01*
X020411Y004777D01*
X020480Y004813D01*
X020543Y004858D01*
X020598Y004913D01*
X020644Y004976D01*
X020679Y005045D01*
X020703Y005119D01*
X020715Y005195D01*
X020261Y005195D01*
X020183Y005195D01*
X020183Y004741D01*
X020107Y004753D01*
X020033Y004777D01*
X019964Y004813D01*
X019901Y004858D01*
X019846Y004913D01*
X019800Y004976D01*
X019765Y005045D01*
X019741Y005119D01*
X019729Y005195D01*
X020183Y005195D01*
X020183Y005274D01*
X019729Y005274D01*
X019739Y005335D01*
X019245Y004841D01*
X017727Y004841D01*
X017600Y004968D01*
X017353Y005214D01*
X017314Y005175D01*
X016832Y005175D01*
X016832Y005169D01*
X016856Y005175D01*
X017029Y005175D01*
X017029Y004880D01*
X016754Y004880D01*
X016754Y004953D01*
X016656Y004855D01*
X016656Y004809D01*
X016617Y004715D01*
X016545Y004643D01*
X016500Y004624D01*
X016754Y004624D01*
X016754Y004801D01*
X017029Y004801D01*
X017029Y004880D01*
X017108Y004880D01*
X017383Y004880D01*
X017383Y005073D01*
X017375Y005103D01*
X017360Y005130D01*
X017338Y005152D01*
X017311Y005167D01*
X017281Y005175D01*
X017108Y005175D01*
X017108Y004880D01*
X017108Y004801D01*
X017383Y004801D01*
X017383Y004624D01*
X021491Y004624D01*
X021358Y004757D01*
X021320Y004741D01*
X021124Y004741D01*
X020943Y004816D01*
X020804Y004955D01*
X020729Y005136D01*
X020729Y005332D01*
X020729Y005255D02*
X020261Y005255D01*
X020261Y005332D02*
X020183Y005332D01*
X020183Y005255D02*
X019659Y005255D01*
X019732Y005178D02*
X019582Y005178D01*
X019504Y005100D02*
X019747Y005100D01*
X019776Y005023D02*
X019427Y005023D01*
X019350Y004946D02*
X019822Y004946D01*
X019890Y004869D02*
X019273Y004869D01*
X020005Y004791D02*
X017383Y004791D01*
X017383Y004714D02*
X021401Y004714D01*
X021479Y004637D02*
X017383Y004637D01*
X017383Y004946D02*
X017622Y004946D01*
X017699Y004869D02*
X017108Y004869D01*
X017108Y004946D02*
X017029Y004946D01*
X017029Y005023D02*
X017108Y005023D01*
X017108Y005100D02*
X017029Y005100D01*
X017317Y005178D02*
X017390Y005178D01*
X017376Y005100D02*
X017467Y005100D01*
X017544Y005023D02*
X017383Y005023D01*
X017029Y004869D02*
X016670Y004869D01*
X016649Y004791D02*
X016754Y004791D01*
X016754Y004714D02*
X016616Y004714D01*
X016531Y004637D02*
X016754Y004637D01*
X016747Y004946D02*
X016754Y004946D01*
X016675Y005097D02*
X016439Y004860D01*
X016399Y004860D01*
X016045Y004782D02*
X016360Y004467D01*
X021557Y004467D01*
X021872Y004152D01*
X021872Y003758D01*
X021990Y003640D01*
X023131Y003640D01*
X023131Y004014D01*
X023151Y004034D01*
X022836Y004019D02*
X022797Y004019D01*
X022797Y003942D02*
X022836Y003942D01*
X022836Y003865D02*
X022797Y003865D01*
X022797Y003797D02*
X022797Y004299D01*
X022728Y004368D01*
X022236Y004368D01*
X022214Y004347D01*
X021623Y004938D01*
X021640Y004955D01*
X021715Y005136D01*
X021715Y005332D01*
X021729Y005332D01*
X021729Y005136D01*
X021804Y004955D01*
X021943Y004816D01*
X022124Y004741D01*
X022320Y004741D01*
X022501Y004816D01*
X022640Y004955D01*
X022715Y005136D01*
X022715Y005332D01*
X022729Y005332D02*
X022729Y005136D01*
X022804Y004955D01*
X022943Y004816D01*
X023124Y004741D01*
X023320Y004741D01*
X023501Y004816D01*
X023640Y004955D01*
X023715Y005136D01*
X023715Y005332D01*
X023729Y005332D02*
X023729Y005136D01*
X023804Y004955D01*
X023943Y004816D01*
X024124Y004741D01*
X024320Y004741D01*
X024501Y004816D01*
X024640Y004955D01*
X024715Y005136D01*
X024715Y005332D01*
X024729Y005332D02*
X024729Y005136D01*
X024804Y004955D01*
X024943Y004816D01*
X025124Y004741D01*
X025320Y004741D01*
X025324Y004743D01*
X025651Y004416D01*
X025651Y004191D01*
X025651Y004217D01*
X025559Y004309D01*
X025362Y004506D01*
X024051Y004506D01*
X023466Y003922D01*
X023466Y004299D01*
X023397Y004368D01*
X022905Y004368D01*
X022836Y004299D01*
X022836Y003797D01*
X022797Y003797D01*
X023131Y003640D02*
X023407Y003640D01*
X024116Y004349D01*
X025297Y004349D01*
X025494Y004152D01*
X025494Y003640D01*
X025120Y003620D02*
X025120Y003094D01*
X025085Y003060D01*
X025080Y003048D01*
X025076Y003060D01*
X025046Y003089D01*
X025080Y003089D01*
X025080Y003620D01*
X025120Y003620D01*
X025080Y003633D02*
X023623Y003633D01*
X023700Y003710D02*
X024864Y003710D01*
X024864Y003787D02*
X023777Y003787D01*
X023854Y003865D02*
X024864Y003865D01*
X024864Y003942D02*
X023932Y003942D01*
X024009Y004019D02*
X024864Y004019D01*
X024866Y004096D02*
X024086Y004096D01*
X024163Y004173D02*
X024920Y004173D01*
X025080Y004173D02*
X025120Y004173D01*
X025120Y004096D02*
X025080Y004096D01*
X025080Y004019D02*
X025120Y004019D01*
X025120Y003942D02*
X025080Y003942D01*
X025080Y003865D02*
X025120Y003865D01*
X025120Y003787D02*
X025080Y003787D01*
X025080Y003710D02*
X025120Y003710D01*
X025120Y003556D02*
X025080Y003556D01*
X025080Y003478D02*
X025120Y003478D01*
X025120Y003401D02*
X025080Y003401D01*
X025080Y003324D02*
X025120Y003324D01*
X025120Y003247D02*
X025080Y003247D01*
X025080Y003169D02*
X025120Y003169D01*
X025118Y003092D02*
X025080Y003092D01*
X024864Y003247D02*
X024549Y003247D01*
X024549Y003169D02*
X024720Y003169D01*
X024606Y003092D02*
X024549Y003092D01*
X024549Y003015D02*
X024555Y003015D01*
X024549Y002783D02*
X024549Y002783D01*
X024549Y002706D02*
X024549Y002706D01*
X024549Y002629D02*
X024549Y002629D01*
X024549Y002551D02*
X024549Y002551D01*
X024549Y002474D02*
X024549Y002474D01*
X024549Y002397D02*
X024568Y002397D01*
X024549Y002320D02*
X024613Y002320D01*
X024549Y002242D02*
X024690Y002242D01*
X024768Y002165D02*
X024549Y002165D01*
X024503Y002088D02*
X024845Y002088D01*
X024922Y002011D02*
X022226Y002011D01*
X022226Y001934D02*
X024999Y001934D01*
X025077Y001856D02*
X022198Y001856D01*
X022166Y001779D02*
X025172Y001779D01*
X023650Y002088D02*
X023022Y002088D01*
X023069Y002165D02*
X023604Y002165D01*
X023604Y002242D02*
X023069Y002242D01*
X023069Y002320D02*
X023604Y002320D01*
X023604Y002397D02*
X023069Y002397D01*
X023069Y002474D02*
X023604Y002474D01*
X023604Y002551D02*
X023069Y002551D01*
X023069Y002629D02*
X023604Y002629D01*
X023604Y002706D02*
X023069Y002706D01*
X023069Y002783D02*
X023604Y002783D01*
X023604Y002860D02*
X023069Y002860D01*
X023069Y002938D02*
X023604Y002938D01*
X023604Y003015D02*
X023069Y003015D01*
X023069Y003092D02*
X023604Y003092D01*
X023604Y003169D02*
X023069Y003169D01*
X023069Y003247D02*
X023604Y003247D01*
X023672Y003324D02*
X023000Y003324D01*
X023545Y003556D02*
X024864Y003556D01*
X024864Y003478D02*
X021809Y003478D01*
X021809Y003401D02*
X024864Y003401D01*
X024864Y003324D02*
X024481Y003324D01*
X023486Y003942D02*
X023466Y003942D01*
X023466Y004019D02*
X023563Y004019D01*
X023641Y004096D02*
X023466Y004096D01*
X023466Y004173D02*
X023718Y004173D01*
X023795Y004251D02*
X023466Y004251D01*
X023437Y004328D02*
X023872Y004328D01*
X023950Y004405D02*
X022156Y004405D01*
X022079Y004482D02*
X024027Y004482D01*
X024003Y004791D02*
X023441Y004791D01*
X023554Y004869D02*
X023890Y004869D01*
X023813Y004946D02*
X023631Y004946D01*
X023668Y005023D02*
X023776Y005023D01*
X023744Y005100D02*
X023700Y005100D01*
X023715Y005178D02*
X023729Y005178D01*
X023729Y005255D02*
X023715Y005255D01*
X023683Y005409D02*
X023761Y005409D01*
X023793Y005487D02*
X023651Y005487D01*
X023590Y005564D02*
X023854Y005564D01*
X023931Y005641D02*
X023513Y005641D01*
X023342Y005718D02*
X024102Y005718D01*
X024342Y005718D02*
X025102Y005718D01*
X024931Y005641D02*
X024513Y005641D01*
X024590Y005564D02*
X024854Y005564D01*
X024793Y005487D02*
X024651Y005487D01*
X024683Y005409D02*
X024761Y005409D01*
X024729Y005255D02*
X024715Y005255D01*
X024715Y005178D02*
X024729Y005178D01*
X024744Y005100D02*
X024700Y005100D01*
X024668Y005023D02*
X024776Y005023D01*
X024813Y004946D02*
X024631Y004946D01*
X024554Y004869D02*
X024890Y004869D01*
X025003Y004791D02*
X024441Y004791D01*
X025353Y004714D02*
X021847Y004714D01*
X021924Y004637D02*
X025430Y004637D01*
X025507Y004560D02*
X022001Y004560D01*
X022003Y004791D02*
X021770Y004791D01*
X021692Y004869D02*
X021890Y004869D01*
X021813Y004946D02*
X021631Y004946D01*
X021668Y005023D02*
X021776Y005023D01*
X021744Y005100D02*
X021700Y005100D01*
X021715Y005178D02*
X021729Y005178D01*
X021729Y005255D02*
X021715Y005255D01*
X021715Y005332D02*
X021640Y005514D01*
X021565Y005589D01*
X021879Y005589D01*
X021804Y005514D01*
X021729Y005332D01*
X021761Y005409D02*
X021683Y005409D01*
X021651Y005487D02*
X021793Y005487D01*
X021854Y005564D02*
X021590Y005564D01*
X021262Y005873D02*
X020686Y005873D01*
X020805Y005950D02*
X021184Y005950D01*
X021107Y006027D02*
X020851Y006027D01*
X020869Y006104D02*
X021030Y006104D01*
X020953Y006182D02*
X020864Y006182D01*
X020876Y006259D02*
X020832Y006259D01*
X020798Y006336D02*
X020759Y006336D01*
X020721Y006413D02*
X020653Y006413D01*
X020644Y006491D02*
X020605Y006491D01*
X020567Y006568D02*
X020481Y006568D01*
X020349Y006568D02*
X019515Y006568D01*
X019470Y006491D02*
X020225Y006491D01*
X020177Y006413D02*
X019470Y006413D01*
X019470Y006336D02*
X020128Y006336D01*
X020128Y006337D02*
X020128Y006337D01*
X020051Y006259D02*
X019470Y006259D01*
X019576Y006182D02*
X019973Y006182D01*
X019896Y006104D02*
X019588Y006104D01*
X019588Y006027D02*
X019819Y006027D01*
X019742Y005950D02*
X019588Y005950D01*
X019588Y005873D02*
X019664Y005873D01*
X020122Y005718D02*
X020125Y005718D01*
X020183Y005641D02*
X020261Y005641D01*
X020261Y005564D02*
X020183Y005564D01*
X020183Y005487D02*
X020261Y005487D01*
X020261Y005409D02*
X020183Y005409D01*
X020183Y005178D02*
X020261Y005178D01*
X020261Y005100D02*
X020183Y005100D01*
X020183Y005023D02*
X020261Y005023D01*
X020261Y004946D02*
X020183Y004946D01*
X020183Y004869D02*
X020261Y004869D01*
X020261Y004791D02*
X020183Y004791D01*
X020439Y004791D02*
X021003Y004791D01*
X020890Y004869D02*
X020554Y004869D01*
X020622Y004946D02*
X020813Y004946D01*
X020776Y005023D02*
X020668Y005023D01*
X020697Y005100D02*
X020744Y005100D01*
X020729Y005178D02*
X020712Y005178D01*
X021222Y005116D02*
X021222Y005234D01*
X021222Y005116D02*
X022305Y004034D01*
X022482Y004034D01*
X022797Y004096D02*
X022836Y004096D01*
X022836Y004173D02*
X022797Y004173D01*
X022797Y004251D02*
X022836Y004251D01*
X022865Y004328D02*
X022768Y004328D01*
X023003Y004791D02*
X022441Y004791D01*
X022554Y004869D02*
X022890Y004869D01*
X022813Y004946D02*
X022631Y004946D01*
X022668Y005023D02*
X022776Y005023D01*
X022744Y005100D02*
X022700Y005100D01*
X022715Y005178D02*
X022729Y005178D01*
X022729Y005255D02*
X022715Y005255D01*
X022683Y005409D02*
X022761Y005409D01*
X022793Y005487D02*
X022651Y005487D01*
X022590Y005564D02*
X022854Y005564D01*
X022919Y005641D02*
X022931Y005641D01*
X022996Y005718D02*
X023102Y005718D01*
X023074Y005796D02*
X030786Y005796D01*
X030787Y005791D02*
X030819Y005728D01*
X030861Y005671D01*
X030910Y005621D01*
X030968Y005579D01*
X031030Y005547D01*
X031097Y005526D01*
X031163Y005515D01*
X031163Y005923D01*
X031242Y005923D01*
X031242Y006002D01*
X031650Y006002D01*
X031639Y006068D01*
X031618Y006135D01*
X031586Y006198D01*
X031544Y006255D01*
X031494Y006305D01*
X031437Y006346D01*
X031374Y006378D01*
X031307Y006400D01*
X031242Y006410D01*
X031242Y006002D01*
X031163Y006002D01*
X031163Y005923D01*
X030755Y005923D01*
X030765Y005858D01*
X030787Y005791D01*
X030826Y005718D02*
X027342Y005718D01*
X027320Y005728D02*
X027124Y005728D01*
X026943Y005652D01*
X026804Y005514D01*
X026729Y005332D01*
X026706Y005332D01*
X026703Y005350D02*
X026679Y005424D01*
X026644Y005493D01*
X026598Y005556D01*
X026543Y005611D01*
X026480Y005656D01*
X026411Y005691D01*
X026338Y005715D01*
X026261Y005727D01*
X026261Y005274D01*
X026715Y005274D01*
X026703Y005350D01*
X026729Y005332D02*
X026729Y005136D01*
X026804Y004955D01*
X026943Y004816D01*
X027124Y004741D01*
X027320Y004741D01*
X027501Y004816D01*
X027640Y004955D01*
X027715Y005136D01*
X027715Y005332D01*
X030938Y005332D01*
X030949Y005343D02*
X030822Y005217D01*
X030754Y005052D01*
X030754Y004874D01*
X030822Y004709D01*
X030949Y004583D01*
X031113Y004515D01*
X031291Y004515D01*
X031456Y004583D01*
X031582Y004709D01*
X031650Y004874D01*
X031650Y005052D01*
X031582Y005217D01*
X031456Y005343D01*
X031291Y005411D01*
X031113Y005411D01*
X030949Y005343D01*
X030861Y005255D02*
X029283Y005255D01*
X029216Y005321D02*
X029076Y005321D01*
X029076Y004927D01*
X028998Y004927D01*
X028998Y004849D01*
X028604Y004849D01*
X028604Y004709D01*
X028858Y004455D01*
X028998Y004455D01*
X028998Y004849D01*
X029076Y004849D01*
X029076Y004455D01*
X029216Y004455D01*
X029470Y004709D01*
X029470Y004849D01*
X029076Y004849D01*
X029076Y004927D01*
X029470Y004927D01*
X029470Y005067D01*
X029216Y005321D01*
X029076Y005255D02*
X028998Y005255D01*
X028998Y005321D02*
X028858Y005321D01*
X028604Y005067D01*
X028604Y004927D01*
X028998Y004927D01*
X028998Y005321D01*
X028791Y005255D02*
X027715Y005255D01*
X027715Y005178D02*
X028714Y005178D01*
X028637Y005100D02*
X027700Y005100D01*
X027668Y005023D02*
X028604Y005023D01*
X028604Y004946D02*
X027631Y004946D01*
X027554Y004869D02*
X028998Y004869D01*
X028998Y004946D02*
X029076Y004946D01*
X029076Y005023D02*
X028998Y005023D01*
X028998Y005100D02*
X029076Y005100D01*
X029076Y005178D02*
X028998Y005178D01*
X029360Y005178D02*
X030806Y005178D01*
X030774Y005100D02*
X029437Y005100D01*
X029470Y005023D02*
X030754Y005023D01*
X030754Y004946D02*
X029470Y004946D01*
X029470Y004791D02*
X030788Y004791D01*
X030820Y004714D02*
X029470Y004714D01*
X029398Y004637D02*
X030894Y004637D01*
X031004Y004560D02*
X029321Y004560D01*
X029244Y004482D02*
X033801Y004482D01*
X033801Y004405D02*
X026124Y004405D01*
X026124Y004328D02*
X033801Y004328D01*
X033801Y004251D02*
X029287Y004251D01*
X029282Y004255D02*
X029123Y004321D01*
X028951Y004321D01*
X028792Y004255D01*
X028670Y004133D01*
X028604Y003974D01*
X028604Y003802D01*
X028670Y003643D01*
X028792Y003521D01*
X028951Y003455D01*
X029123Y003455D01*
X029282Y003521D01*
X029404Y003643D01*
X029470Y003802D01*
X029470Y003974D01*
X029404Y004133D01*
X029282Y004255D01*
X029364Y004173D02*
X033801Y004173D01*
X033801Y004096D02*
X029420Y004096D01*
X029452Y004019D02*
X033801Y004019D01*
X033801Y003942D02*
X029470Y003942D01*
X029470Y003865D02*
X033801Y003865D01*
X033801Y003787D02*
X029464Y003787D01*
X029432Y003710D02*
X033801Y003710D01*
X033801Y003633D02*
X029394Y003633D01*
X029317Y003556D02*
X033801Y003556D01*
X033801Y003478D02*
X029180Y003478D01*
X028757Y003556D02*
X027305Y003556D01*
X027305Y003633D02*
X028680Y003633D01*
X028642Y003710D02*
X027305Y003710D01*
X027305Y003787D02*
X028610Y003787D01*
X028604Y003865D02*
X027305Y003865D01*
X027305Y003942D02*
X028604Y003942D01*
X028622Y004019D02*
X027305Y004019D01*
X027305Y004096D02*
X028654Y004096D01*
X028710Y004173D02*
X027253Y004173D01*
X026884Y004173D02*
X026859Y004173D01*
X026490Y004173D02*
X026466Y004173D01*
X026124Y004251D02*
X028787Y004251D01*
X028830Y004482D02*
X026150Y004482D01*
X026163Y004560D02*
X028753Y004560D01*
X028676Y004637D02*
X026158Y004637D01*
X026126Y004714D02*
X028604Y004714D01*
X028604Y004791D02*
X027441Y004791D01*
X027003Y004791D02*
X026439Y004791D01*
X026554Y004869D02*
X026890Y004869D01*
X026813Y004946D02*
X026622Y004946D01*
X026668Y005023D02*
X026776Y005023D01*
X026744Y005100D02*
X026697Y005100D01*
X026712Y005178D02*
X026729Y005178D01*
X026729Y005255D02*
X026261Y005255D01*
X026261Y005332D02*
X026183Y005332D01*
X026183Y005255D02*
X025715Y005255D01*
X025715Y005178D02*
X025732Y005178D01*
X025746Y005100D02*
X025747Y005100D01*
X026183Y005100D02*
X026261Y005100D01*
X026261Y005023D02*
X026183Y005023D01*
X026183Y004946D02*
X026261Y004946D01*
X026261Y004869D02*
X026183Y004869D01*
X026183Y004791D02*
X026261Y004791D01*
X025584Y004482D02*
X025386Y004482D01*
X025463Y004405D02*
X025651Y004405D01*
X025651Y004328D02*
X025540Y004328D01*
X025617Y004251D02*
X025651Y004251D01*
X025651Y004191D02*
X025651Y004191D01*
X025232Y004191D02*
X025232Y004191D01*
X027305Y003324D02*
X027688Y003324D01*
X027620Y003247D02*
X027305Y003247D01*
X027305Y003169D02*
X027620Y003169D01*
X027620Y003092D02*
X027305Y003092D01*
X027305Y003015D02*
X027620Y003015D01*
X027620Y002938D02*
X027305Y002938D01*
X027305Y002860D02*
X027620Y002860D01*
X027620Y002783D02*
X027305Y002783D01*
X027305Y002706D02*
X027620Y002706D01*
X027620Y002629D02*
X027313Y002629D01*
X027344Y002551D02*
X027620Y002551D01*
X027620Y002474D02*
X027344Y002474D01*
X027325Y002397D02*
X027620Y002397D01*
X027620Y002320D02*
X027280Y002320D01*
X027203Y002242D02*
X027620Y002242D01*
X027620Y002165D02*
X027125Y002165D01*
X027048Y002088D02*
X027666Y002088D01*
X022192Y003324D02*
X021809Y003324D01*
X021809Y003247D02*
X022124Y003247D01*
X022124Y003169D02*
X021809Y003169D01*
X021802Y003092D02*
X022124Y003092D01*
X022124Y003015D02*
X021879Y003015D01*
X021956Y002938D02*
X022124Y002938D01*
X022124Y002860D02*
X022034Y002860D01*
X021991Y002903D02*
X021991Y002903D01*
X022093Y002783D02*
X022124Y002783D01*
X021452Y002551D02*
X017581Y002551D01*
X017658Y002629D02*
X021374Y002629D01*
X021297Y002706D02*
X017735Y002706D01*
X016123Y002551D02*
X013799Y002551D01*
X013877Y002474D02*
X021498Y002474D01*
X021498Y002397D02*
X013954Y002397D01*
X014031Y002320D02*
X021498Y002320D01*
X021464Y002242D02*
X014108Y002242D01*
X013645Y002706D02*
X015184Y002706D01*
X015074Y002783D02*
X013568Y002783D01*
X013490Y002860D02*
X015031Y002860D01*
X015362Y002706D02*
X015524Y002706D01*
X013552Y003092D02*
X013451Y003092D01*
X013324Y003092D02*
X013285Y003092D01*
X013285Y003169D02*
X013324Y003169D01*
X013324Y003247D02*
X013285Y003247D01*
X013285Y003324D02*
X013324Y003324D01*
X013324Y003401D02*
X013285Y003401D01*
X013285Y003478D02*
X013324Y003478D01*
X013324Y003556D02*
X013285Y003556D01*
X013801Y004191D02*
X014116Y004191D01*
X014234Y004309D01*
X014234Y004821D01*
X014076Y004979D01*
X013958Y004664D02*
X013958Y004467D01*
X013958Y004664D02*
X012620Y006002D01*
X012620Y006278D01*
X013053Y006160D02*
X013407Y006160D01*
X014313Y007065D01*
X014549Y007065D01*
X015100Y007301D02*
X015218Y007301D01*
X015612Y007695D01*
X015612Y008246D01*
X016124Y008758D01*
X016399Y008758D01*
X016557Y008916D01*
X016793Y008916D01*
X017098Y008610D01*
X017888Y008610D01*
X018328Y008758D02*
X018565Y008522D01*
X019155Y008522D01*
X019500Y008866D01*
X020186Y008866D01*
X020480Y008994D02*
X020499Y009013D01*
X020499Y009231D01*
X020430Y009300D01*
X019942Y009300D01*
X019921Y009280D01*
X019454Y009280D01*
X019129Y008955D01*
X018967Y008955D01*
X018907Y009015D01*
X018813Y009054D01*
X018710Y009054D01*
X018616Y009015D01*
X018545Y008944D01*
X018474Y009015D01*
X018379Y009054D01*
X018277Y009054D01*
X018194Y009020D01*
X018201Y009047D01*
X018201Y009122D01*
X017888Y009122D01*
X017575Y009122D01*
X017575Y009047D01*
X017581Y009024D01*
X017325Y009024D01*
X017325Y009085D01*
X017286Y009179D01*
X017214Y009251D01*
X017120Y009290D01*
X017017Y009290D01*
X016923Y009251D01*
X016851Y009179D01*
X016812Y009085D01*
X016812Y009073D01*
X016491Y009073D01*
X016334Y008916D01*
X016058Y008916D01*
X015454Y008311D01*
X015454Y007760D01*
X015223Y007529D01*
X015151Y007558D01*
X015146Y007558D01*
X015297Y007709D01*
X015297Y008575D01*
X016425Y009703D01*
X016976Y009703D01*
X017094Y009821D01*
X017187Y009913D01*
X017187Y010029D01*
X017276Y009939D01*
X017570Y009939D01*
X017777Y010147D01*
X017777Y010440D01*
X017688Y010530D01*
X017945Y010530D01*
X017856Y010440D01*
X017856Y010333D01*
X018171Y010333D01*
X018171Y010254D01*
X018250Y010254D01*
X018250Y010333D01*
X018565Y010333D01*
X018565Y010440D01*
X018475Y010530D01*
X019820Y010530D01*
X019804Y010514D01*
X019729Y010332D01*
X019729Y010136D01*
X019804Y009955D01*
X019943Y009816D01*
X020124Y009741D01*
X020320Y009741D01*
X020442Y009792D01*
X020533Y009701D01*
X020533Y009003D01*
X020499Y008969D01*
X020499Y008975D01*
X020480Y008994D01*
X020499Y009040D02*
X020533Y009040D01*
X020533Y009117D02*
X020499Y009117D01*
X020499Y009194D02*
X020533Y009194D01*
X020533Y009271D02*
X020459Y009271D01*
X020533Y009349D02*
X016071Y009349D01*
X016148Y009426D02*
X020533Y009426D01*
X020533Y009503D02*
X016225Y009503D01*
X016302Y009580D02*
X020533Y009580D01*
X020533Y009658D02*
X016380Y009658D01*
X017008Y009735D02*
X020499Y009735D01*
X020691Y009766D02*
X020691Y008797D01*
X020186Y008610D02*
X019480Y008610D01*
X019234Y008364D01*
X018407Y008364D01*
X018328Y008286D01*
X018567Y008190D02*
X018683Y008190D01*
X018690Y008207D02*
X018662Y008140D01*
X018662Y008038D01*
X018701Y007943D01*
X018773Y007871D01*
X018868Y007832D01*
X018970Y007832D01*
X018982Y007837D01*
X018977Y007825D01*
X018977Y007723D01*
X019016Y007628D01*
X019088Y007556D01*
X019183Y007517D01*
X019285Y007517D01*
X019297Y007522D01*
X019292Y007510D01*
X019292Y007408D01*
X019331Y007313D01*
X019403Y007241D01*
X019498Y007202D01*
X019600Y007202D01*
X019694Y007241D01*
X019767Y007313D01*
X019806Y007408D01*
X019806Y007510D01*
X019767Y007604D01*
X019743Y007628D01*
X019801Y007685D01*
X019873Y007685D01*
X019873Y007478D01*
X019892Y007459D01*
X019873Y007440D01*
X019873Y007222D01*
X019893Y007202D01*
X019881Y007181D01*
X019873Y007151D01*
X019873Y007075D01*
X019873Y007036D01*
X019371Y007036D01*
X019244Y006909D01*
X019164Y006829D01*
X019037Y006702D01*
X019037Y006238D01*
X018988Y006238D01*
X018919Y006169D01*
X018919Y005707D01*
X018918Y005707D01*
X018919Y005711D01*
X018919Y005884D01*
X018624Y005884D01*
X018624Y005963D01*
X018919Y005963D01*
X018919Y006136D01*
X018911Y006166D01*
X018895Y006193D01*
X018873Y006215D01*
X018846Y006230D01*
X018816Y006238D01*
X018624Y006238D01*
X018624Y005963D01*
X018545Y005963D01*
X018545Y006238D01*
X018352Y006238D01*
X018322Y006230D01*
X018295Y006215D01*
X018273Y006193D01*
X018258Y006166D01*
X018250Y006136D01*
X018250Y005963D01*
X018545Y005963D01*
X018545Y005884D01*
X018250Y005884D01*
X018250Y005711D01*
X018258Y005681D01*
X018264Y005670D01*
X018262Y005669D01*
X018189Y005596D01*
X018150Y005502D01*
X018150Y005400D01*
X018189Y005305D01*
X018221Y005274D01*
X017906Y005274D01*
X017601Y005579D01*
X017601Y005581D01*
X017562Y005675D01*
X017490Y005747D01*
X017443Y005767D01*
X017443Y005912D01*
X017552Y006022D01*
X017679Y006149D01*
X017679Y006249D01*
X017680Y006250D01*
X017719Y006345D01*
X017719Y006447D01*
X017680Y006541D01*
X017608Y006614D01*
X017513Y006653D01*
X017478Y006653D01*
X017568Y006690D01*
X017586Y006708D01*
X017599Y006687D01*
X017621Y006665D01*
X017648Y006649D01*
X017678Y006641D01*
X017888Y006641D01*
X017888Y006819D01*
X017675Y006819D01*
X017675Y006819D01*
X017888Y006819D01*
X017888Y006819D01*
X017888Y006819D01*
X017888Y006641D01*
X018099Y006641D01*
X018129Y006649D01*
X018156Y006665D01*
X018178Y006687D01*
X018193Y006713D01*
X018201Y006744D01*
X018201Y006819D01*
X018201Y006895D01*
X018193Y006925D01*
X018181Y006946D01*
X018201Y006966D01*
X018201Y007184D01*
X018182Y007203D01*
X018201Y007222D01*
X018201Y007440D01*
X018182Y007459D01*
X018201Y007478D01*
X018201Y007696D01*
X018182Y007715D01*
X018201Y007734D01*
X018201Y007952D01*
X018182Y007971D01*
X018201Y007990D01*
X018201Y008060D01*
X018277Y008029D01*
X018379Y008029D01*
X018474Y008068D01*
X018546Y008140D01*
X018574Y008207D01*
X018690Y008207D01*
X018662Y008113D02*
X018519Y008113D01*
X018396Y008036D02*
X018663Y008036D01*
X018695Y007958D02*
X018195Y007958D01*
X018201Y007881D02*
X018763Y007881D01*
X018977Y007804D02*
X018201Y007804D01*
X018194Y007727D02*
X018977Y007727D01*
X019007Y007649D02*
X018201Y007649D01*
X018201Y007572D02*
X019072Y007572D01*
X019292Y007495D02*
X018201Y007495D01*
X018201Y007418D02*
X019292Y007418D01*
X019320Y007340D02*
X018201Y007340D01*
X018201Y007263D02*
X019381Y007263D01*
X019549Y007459D02*
X019549Y007656D01*
X019736Y007843D01*
X020186Y007843D01*
X020385Y007587D02*
X020651Y007853D01*
X020385Y007587D02*
X020186Y007587D01*
X019873Y007572D02*
X019780Y007572D01*
X019765Y007649D02*
X019873Y007649D01*
X019873Y007495D02*
X019806Y007495D01*
X019806Y007418D02*
X019873Y007418D01*
X019873Y007340D02*
X019778Y007340D01*
X019716Y007263D02*
X019873Y007263D01*
X019884Y007186D02*
X018199Y007186D01*
X018201Y007109D02*
X019873Y007109D01*
X019873Y007075D02*
X020186Y007075D01*
X020499Y007075D01*
X020186Y007075D01*
X020186Y007075D01*
X020186Y007075D01*
X019873Y007075D01*
X020186Y007331D02*
X020563Y007331D01*
X020651Y007419D01*
X020758Y007186D02*
X020820Y007186D01*
X020897Y007109D02*
X020499Y007109D01*
X020716Y007031D02*
X020974Y007031D01*
X020901Y007104D02*
X020901Y007104D01*
X020793Y006954D02*
X021051Y006954D01*
X021118Y006877D02*
X020870Y006877D01*
X020947Y006800D02*
X021118Y006800D01*
X021124Y006722D02*
X021025Y006722D01*
X021102Y006645D02*
X021205Y006645D01*
X021179Y006568D02*
X021995Y006568D01*
X021951Y006491D02*
X021256Y006491D01*
X021333Y006413D02*
X021950Y006413D01*
X021950Y006336D02*
X021411Y006336D01*
X022246Y006413D02*
X022324Y006413D01*
X022324Y006491D02*
X022246Y006491D01*
X022246Y006568D02*
X022324Y006568D01*
X022620Y006182D02*
X022620Y006182D01*
X022620Y006104D02*
X022620Y006104D01*
X022624Y006027D02*
X022607Y006027D01*
X023151Y005873D02*
X030763Y005873D01*
X030755Y006002D02*
X031163Y006002D01*
X031163Y006410D01*
X031097Y006400D01*
X031030Y006378D01*
X030968Y006346D01*
X030910Y006305D01*
X030861Y006255D01*
X030819Y006198D01*
X030787Y006135D01*
X030765Y006068D01*
X030755Y006002D01*
X030759Y006027D02*
X029230Y006027D01*
X029216Y006014D02*
X029470Y006268D01*
X029470Y006408D01*
X029076Y006408D01*
X029076Y006486D01*
X028998Y006486D01*
X028998Y006408D01*
X028604Y006408D01*
X028604Y006268D01*
X028858Y006014D01*
X028998Y006014D01*
X028998Y006408D01*
X029076Y006408D01*
X029076Y006014D01*
X029216Y006014D01*
X029307Y006104D02*
X030777Y006104D01*
X030811Y006182D02*
X029384Y006182D01*
X029461Y006259D02*
X030865Y006259D01*
X030954Y006336D02*
X029470Y006336D01*
X029470Y006486D02*
X029076Y006486D01*
X029076Y006880D01*
X029216Y006880D01*
X029470Y006626D01*
X029470Y006486D01*
X029470Y006491D02*
X033801Y006491D01*
X033801Y006568D02*
X031420Y006568D01*
X031456Y006583D02*
X031582Y006709D01*
X031650Y006874D01*
X031650Y007052D01*
X031582Y007217D01*
X031456Y007343D01*
X031291Y007411D01*
X031113Y007411D01*
X030949Y007343D01*
X030822Y007217D01*
X030754Y007052D01*
X030754Y006874D01*
X030822Y006709D01*
X030949Y006583D01*
X031113Y006515D01*
X031291Y006515D01*
X031456Y006583D01*
X031519Y006645D02*
X033801Y006645D01*
X033801Y006722D02*
X031588Y006722D01*
X031620Y006800D02*
X033801Y006800D01*
X033801Y006877D02*
X031650Y006877D01*
X031650Y006954D02*
X033801Y006954D01*
X033801Y007031D02*
X031650Y007031D01*
X031627Y007109D02*
X033801Y007109D01*
X033801Y007186D02*
X031595Y007186D01*
X031536Y007263D02*
X033801Y007263D01*
X033801Y007340D02*
X031459Y007340D01*
X030946Y007340D02*
X029462Y007340D01*
X029470Y007361D02*
X029404Y007202D01*
X029282Y007080D01*
X029123Y007014D01*
X028951Y007014D01*
X028792Y007080D01*
X028670Y007202D01*
X028604Y007361D01*
X028604Y007533D01*
X028670Y007692D01*
X028792Y007814D01*
X028951Y007880D01*
X029123Y007880D01*
X029282Y007814D01*
X029404Y007692D01*
X029470Y007533D01*
X029470Y007361D01*
X029470Y007418D02*
X033801Y007418D01*
X033801Y007495D02*
X029470Y007495D01*
X029454Y007572D02*
X033801Y007572D01*
X033801Y007649D02*
X029422Y007649D01*
X029370Y007727D02*
X033801Y007727D01*
X033801Y007804D02*
X029293Y007804D01*
X028781Y007804D02*
X028072Y007804D01*
X028072Y007727D02*
X028704Y007727D01*
X028652Y007649D02*
X028072Y007649D01*
X028072Y007572D02*
X028620Y007572D01*
X028604Y007495D02*
X028072Y007495D01*
X028072Y007418D02*
X028604Y007418D01*
X028612Y007340D02*
X028072Y007340D01*
X028072Y007263D02*
X028644Y007263D01*
X028686Y007186D02*
X028072Y007186D01*
X028110Y007109D02*
X028763Y007109D01*
X028909Y007031D02*
X028142Y007031D01*
X028152Y006954D02*
X030754Y006954D01*
X030754Y006877D02*
X029220Y006877D01*
X029297Y006800D02*
X030785Y006800D01*
X030817Y006722D02*
X029374Y006722D01*
X029451Y006645D02*
X030886Y006645D01*
X030985Y006568D02*
X029470Y006568D01*
X029076Y006568D02*
X028998Y006568D01*
X028998Y006645D02*
X029076Y006645D01*
X029076Y006722D02*
X028998Y006722D01*
X028998Y006800D02*
X029076Y006800D01*
X029076Y006877D02*
X028998Y006877D01*
X028998Y006880D02*
X028858Y006880D01*
X028604Y006626D01*
X028604Y006486D01*
X028998Y006486D01*
X028998Y006880D01*
X028854Y006877D02*
X028147Y006877D01*
X028115Y006800D02*
X028777Y006800D01*
X028700Y006722D02*
X028050Y006722D01*
X027662Y006722D02*
X025631Y006722D01*
X025631Y006711D02*
X025631Y006790D01*
X025553Y006790D01*
X025553Y007065D01*
X025360Y007065D01*
X025330Y007057D01*
X025303Y007042D01*
X025281Y007020D01*
X025266Y006993D01*
X025257Y006963D01*
X025257Y006790D01*
X025553Y006790D01*
X025553Y006711D01*
X025631Y006711D01*
X025631Y006435D01*
X025824Y006435D01*
X025854Y006443D01*
X025881Y006459D01*
X025903Y006481D01*
X025919Y006508D01*
X025927Y006538D01*
X025927Y006711D01*
X025631Y006711D01*
X025631Y006645D02*
X025553Y006645D01*
X025553Y006711D02*
X025553Y006435D01*
X025360Y006435D01*
X025330Y006443D01*
X025303Y006459D01*
X025281Y006481D01*
X025266Y006508D01*
X025257Y006538D01*
X025257Y006711D01*
X025553Y006711D01*
X025553Y006722D02*
X025257Y006722D01*
X025257Y006645D02*
X025257Y006645D01*
X025257Y006568D02*
X025257Y006568D01*
X025244Y006491D02*
X025275Y006491D01*
X025553Y006491D02*
X025631Y006491D01*
X025631Y006568D02*
X025553Y006568D01*
X025909Y006491D02*
X028604Y006491D01*
X028604Y006568D02*
X025927Y006568D01*
X025927Y006645D02*
X028623Y006645D01*
X028998Y006491D02*
X029076Y006491D01*
X029076Y006413D02*
X033801Y006413D01*
X033801Y006336D02*
X031451Y006336D01*
X031540Y006259D02*
X033801Y006259D01*
X033801Y006182D02*
X031594Y006182D01*
X031627Y006104D02*
X033801Y006104D01*
X033801Y006027D02*
X031646Y006027D01*
X031650Y005923D02*
X031242Y005923D01*
X031242Y005515D01*
X031307Y005526D01*
X031374Y005547D01*
X031437Y005579D01*
X031494Y005621D01*
X031544Y005671D01*
X031586Y005728D01*
X031618Y005791D01*
X031639Y005858D01*
X031650Y005923D01*
X031642Y005873D02*
X033801Y005873D01*
X033801Y005950D02*
X031242Y005950D01*
X031242Y005873D02*
X031163Y005873D01*
X031163Y005950D02*
X023171Y005950D01*
X023284Y006027D02*
X028844Y006027D01*
X028767Y006104D02*
X024170Y006104D01*
X024247Y006182D02*
X028690Y006182D01*
X028613Y006259D02*
X024324Y006259D01*
X024402Y006336D02*
X028604Y006336D01*
X028998Y006336D02*
X029076Y006336D01*
X029076Y006259D02*
X028998Y006259D01*
X028998Y006182D02*
X029076Y006182D01*
X029076Y006104D02*
X028998Y006104D01*
X028998Y006027D02*
X029076Y006027D01*
X028998Y006413D02*
X024479Y006413D01*
X024490Y006491D02*
X024602Y006491D01*
X024588Y006568D02*
X024490Y006568D01*
X024490Y006645D02*
X024588Y006645D01*
X024588Y006722D02*
X024490Y006722D01*
X024490Y006800D02*
X024567Y006800D01*
X024529Y006877D02*
X024490Y006877D01*
X024490Y006954D02*
X024529Y006954D01*
X024529Y007031D02*
X024490Y007031D01*
X024490Y007109D02*
X024500Y007109D01*
X024992Y007109D02*
X025519Y007109D01*
X025553Y007031D02*
X025631Y007031D01*
X025631Y007065D02*
X025824Y007065D01*
X025854Y007057D01*
X025881Y007042D01*
X025903Y007020D01*
X025919Y006993D01*
X025927Y006963D01*
X025927Y006790D01*
X025631Y006790D01*
X025631Y007065D01*
X025631Y006954D02*
X025553Y006954D01*
X025553Y006877D02*
X025631Y006877D01*
X025631Y006800D02*
X025553Y006800D01*
X025257Y006800D02*
X025257Y006800D01*
X025257Y006877D02*
X025257Y006877D01*
X025257Y006954D02*
X025257Y006954D01*
X025222Y007031D02*
X025293Y007031D01*
X025342Y007186D02*
X025059Y007186D01*
X025059Y007263D02*
X025265Y007263D01*
X025188Y007340D02*
X025059Y007340D01*
X025059Y007418D02*
X025120Y007418D01*
X025794Y007727D02*
X026197Y007727D01*
X026196Y007726D02*
X026169Y007711D01*
X026147Y007689D01*
X026132Y007662D01*
X026124Y007632D01*
X026124Y007439D01*
X026399Y007439D01*
X026399Y007360D01*
X026478Y007360D01*
X026478Y007065D01*
X026651Y007065D01*
X026681Y007073D01*
X026708Y007089D01*
X026730Y007111D01*
X026745Y007138D01*
X026754Y007168D01*
X026754Y007360D01*
X026478Y007360D01*
X026478Y007439D01*
X026754Y007439D01*
X026754Y007632D01*
X026745Y007662D01*
X026730Y007689D01*
X026708Y007711D01*
X026681Y007726D01*
X026651Y007734D01*
X026478Y007734D01*
X026478Y007439D01*
X026399Y007439D01*
X026399Y007734D01*
X026226Y007734D01*
X026196Y007726D01*
X026128Y007649D02*
X026078Y007649D01*
X026075Y007572D02*
X026124Y007572D01*
X026124Y007495D02*
X026078Y007495D01*
X026078Y007418D02*
X026399Y007418D01*
X026399Y007360D02*
X026124Y007360D01*
X026124Y007168D01*
X026132Y007138D01*
X026147Y007111D01*
X026169Y007089D01*
X026196Y007073D01*
X026226Y007065D01*
X026399Y007065D01*
X026399Y007360D01*
X026399Y007340D02*
X026478Y007340D01*
X026478Y007263D02*
X026399Y007263D01*
X026399Y007186D02*
X026478Y007186D01*
X026478Y007109D02*
X026399Y007109D01*
X026149Y007109D02*
X026011Y007109D01*
X026078Y007186D02*
X026124Y007186D01*
X026124Y007263D02*
X026078Y007263D01*
X026078Y007340D02*
X026124Y007340D01*
X026399Y007495D02*
X026478Y007495D01*
X026478Y007572D02*
X026399Y007572D01*
X026399Y007649D02*
X026478Y007649D01*
X026478Y007727D02*
X026399Y007727D01*
X026680Y007727D02*
X027558Y007727D01*
X027635Y007649D02*
X026749Y007649D01*
X026754Y007572D02*
X027639Y007572D01*
X027639Y007495D02*
X026754Y007495D01*
X026754Y007340D02*
X027639Y007340D01*
X027639Y007263D02*
X026754Y007263D01*
X026754Y007186D02*
X027639Y007186D01*
X027602Y007109D02*
X026728Y007109D01*
X025927Y006954D02*
X027560Y006954D01*
X027564Y006877D02*
X025927Y006877D01*
X025927Y006800D02*
X027596Y006800D01*
X027570Y007031D02*
X025891Y007031D01*
X026478Y007418D02*
X027639Y007418D01*
X027432Y007853D02*
X026754Y007853D01*
X026754Y007804D01*
X026124Y007881D02*
X026078Y007881D01*
X025249Y008190D02*
X025059Y008190D01*
X025059Y008267D02*
X025327Y008267D01*
X025360Y008404D02*
X025553Y008404D01*
X025553Y008679D01*
X025631Y008679D01*
X025631Y008404D01*
X025824Y008404D01*
X025854Y008412D01*
X025881Y008427D01*
X025903Y008449D01*
X025919Y008476D01*
X025927Y008506D01*
X025927Y008679D01*
X025631Y008679D01*
X025631Y008758D01*
X025553Y008758D01*
X025553Y009034D01*
X025360Y009034D01*
X025330Y009026D01*
X025303Y009010D01*
X025281Y008988D01*
X025266Y008961D01*
X025257Y008931D01*
X025257Y008758D01*
X025553Y008758D01*
X025553Y008679D01*
X025257Y008679D01*
X025257Y008506D01*
X025266Y008476D01*
X025281Y008449D01*
X025303Y008427D01*
X025330Y008412D01*
X025360Y008404D01*
X025313Y008422D02*
X025206Y008422D01*
X025257Y008499D02*
X025259Y008499D01*
X025257Y008576D02*
X025257Y008576D01*
X025257Y008653D02*
X025257Y008653D01*
X025257Y008731D02*
X025553Y008731D01*
X025553Y008808D02*
X025631Y008808D01*
X025631Y008758D02*
X025631Y009034D01*
X025824Y009034D01*
X025854Y009026D01*
X025881Y009010D01*
X025903Y008988D01*
X025919Y008961D01*
X025927Y008931D01*
X025927Y008758D01*
X025631Y008758D01*
X025631Y008731D02*
X033801Y008731D01*
X033801Y008808D02*
X025927Y008808D01*
X025927Y008885D02*
X033801Y008885D01*
X033801Y008962D02*
X025918Y008962D01*
X025631Y008962D02*
X025553Y008962D01*
X025553Y008885D02*
X025631Y008885D01*
X025266Y008962D02*
X025257Y008962D01*
X025257Y008885D02*
X025257Y008885D01*
X025257Y008808D02*
X025257Y008808D01*
X025553Y008653D02*
X025631Y008653D01*
X025631Y008576D02*
X025553Y008576D01*
X025553Y008499D02*
X025631Y008499D01*
X025631Y008422D02*
X025553Y008422D01*
X025504Y008344D02*
X025007Y008344D01*
X024529Y008422D02*
X024042Y008422D01*
X024040Y008499D02*
X024529Y008499D01*
X024529Y008576D02*
X024042Y008576D01*
X024042Y008653D02*
X024551Y008653D01*
X024588Y008731D02*
X024031Y008731D01*
X024042Y008808D02*
X024588Y008808D01*
X024588Y008885D02*
X024042Y008885D01*
X024042Y008962D02*
X024588Y008962D01*
X024726Y009040D02*
X024042Y009040D01*
X024042Y009117D02*
X024712Y009117D01*
X024673Y009194D02*
X024042Y009194D01*
X023416Y009194D02*
X023205Y009194D01*
X023127Y009117D02*
X023416Y009117D01*
X023416Y009040D02*
X023112Y009040D01*
X023112Y008962D02*
X023416Y008962D01*
X023416Y008885D02*
X023112Y008885D01*
X023112Y008808D02*
X023416Y008808D01*
X023427Y008731D02*
X023112Y008731D01*
X023135Y008653D02*
X023416Y008653D01*
X023416Y008576D02*
X023152Y008576D01*
X023148Y008499D02*
X023418Y008499D01*
X023416Y008422D02*
X023116Y008422D01*
X023042Y008344D02*
X023416Y008344D01*
X023416Y008267D02*
X021745Y008267D01*
X021745Y008190D02*
X023416Y008190D01*
X023416Y008113D02*
X021745Y008113D01*
X021745Y008036D02*
X023416Y008036D01*
X023423Y007958D02*
X021738Y007958D01*
X021745Y007881D02*
X023416Y007881D01*
X023416Y007804D02*
X021745Y007804D01*
X021737Y007727D02*
X023423Y007727D01*
X023416Y007649D02*
X021745Y007649D01*
X023053Y007341D02*
X023063Y007331D01*
X024042Y007418D02*
X024057Y007418D01*
X024057Y007495D02*
X024042Y007495D01*
X024042Y007572D02*
X024057Y007572D01*
X024042Y007649D02*
X024079Y007649D01*
X024035Y007727D02*
X024156Y007727D01*
X024221Y007804D02*
X024042Y007804D01*
X024042Y007881D02*
X024253Y007881D01*
X024339Y007958D02*
X024036Y007958D01*
X024042Y008036D02*
X024433Y008036D01*
X024433Y008113D02*
X024042Y008113D01*
X024042Y008190D02*
X024433Y008190D01*
X024433Y008267D02*
X024042Y008267D01*
X024042Y008344D02*
X024484Y008344D01*
X025059Y008113D02*
X025172Y008113D01*
X025120Y008036D02*
X025059Y008036D01*
X025871Y008422D02*
X033801Y008422D01*
X033801Y008499D02*
X025925Y008499D01*
X025927Y008576D02*
X033801Y008576D01*
X033801Y008653D02*
X025927Y008653D01*
X026027Y008344D02*
X026134Y008344D01*
X026744Y008344D02*
X033801Y008344D01*
X033801Y008267D02*
X027629Y008267D01*
X027707Y008190D02*
X033801Y008190D01*
X033801Y008113D02*
X027784Y008113D01*
X027861Y008036D02*
X033801Y008036D01*
X033801Y007958D02*
X027938Y007958D01*
X028016Y007881D02*
X033801Y007881D01*
X033801Y009040D02*
X025159Y009040D01*
X025173Y009117D02*
X033801Y009117D01*
X033801Y009194D02*
X025199Y009194D01*
X025199Y009271D02*
X033801Y009271D01*
X033801Y009349D02*
X025172Y009349D01*
X025110Y009426D02*
X032506Y009426D01*
X032319Y009503D02*
X024976Y009503D01*
X022679Y009271D02*
X021704Y009271D01*
X021745Y009194D02*
X022679Y009194D01*
X022679Y009117D02*
X021745Y009117D01*
X021743Y009040D02*
X022674Y009040D01*
X022540Y008962D02*
X021745Y008962D01*
X021745Y008885D02*
X022473Y008885D01*
X022442Y008808D02*
X021745Y008808D01*
X021733Y008731D02*
X022442Y008731D01*
X022464Y008653D02*
X021745Y008653D01*
X021745Y008576D02*
X022517Y008576D01*
X022643Y008499D02*
X021742Y008499D01*
X021745Y008422D02*
X022675Y008422D01*
X022749Y008344D02*
X021745Y008344D01*
X020186Y008354D02*
X019460Y008354D01*
X019194Y008089D01*
X018919Y008089D01*
X019234Y007774D02*
X019559Y008099D01*
X020186Y008099D01*
X019194Y008797D02*
X018761Y008797D01*
X019194Y008797D02*
X019519Y009122D01*
X020186Y009122D01*
X019446Y009271D02*
X018161Y009271D01*
X018156Y009277D02*
X018129Y009292D01*
X018099Y009300D01*
X017888Y009300D01*
X017678Y009300D01*
X017648Y009292D01*
X017621Y009277D01*
X017599Y009255D01*
X017583Y009228D01*
X017575Y009198D01*
X017575Y009122D01*
X017888Y009122D01*
X017888Y009122D01*
X017888Y009300D01*
X017888Y009122D01*
X017888Y009122D01*
X017888Y009122D01*
X018201Y009122D01*
X018201Y009198D01*
X018193Y009228D01*
X018178Y009255D01*
X018156Y009277D01*
X018201Y009194D02*
X019368Y009194D01*
X019291Y009117D02*
X018201Y009117D01*
X018199Y009040D02*
X018242Y009040D01*
X018415Y009040D02*
X018675Y009040D01*
X018563Y008962D02*
X018527Y008962D01*
X018848Y009040D02*
X019214Y009040D01*
X019137Y008962D02*
X018960Y008962D01*
X018328Y008797D02*
X018328Y008758D01*
X017888Y008866D02*
X017236Y008866D01*
X017069Y009034D01*
X017325Y009040D02*
X017577Y009040D01*
X017575Y009117D02*
X017312Y009117D01*
X017271Y009194D02*
X017575Y009194D01*
X017615Y009271D02*
X017166Y009271D01*
X016971Y009271D02*
X015994Y009271D01*
X015916Y009194D02*
X016866Y009194D01*
X016825Y009117D02*
X015839Y009117D01*
X015762Y009040D02*
X016458Y009040D01*
X016381Y008962D02*
X015685Y008962D01*
X015607Y008885D02*
X016028Y008885D01*
X015951Y008808D02*
X015530Y008808D01*
X015453Y008731D02*
X015874Y008731D01*
X015796Y008653D02*
X015376Y008653D01*
X015298Y008576D02*
X015719Y008576D01*
X015642Y008499D02*
X015297Y008499D01*
X015297Y008422D02*
X015565Y008422D01*
X015487Y008344D02*
X015297Y008344D01*
X015297Y008267D02*
X015454Y008267D01*
X015454Y008190D02*
X015297Y008190D01*
X015297Y008113D02*
X015454Y008113D01*
X015454Y008036D02*
X015297Y008036D01*
X015297Y007958D02*
X015454Y007958D01*
X015454Y007881D02*
X015297Y007881D01*
X015297Y007804D02*
X015454Y007804D01*
X015421Y007727D02*
X015297Y007727D01*
X015343Y007649D02*
X015238Y007649D01*
X015266Y007572D02*
X015160Y007572D01*
X015139Y007774D02*
X014824Y007459D01*
X014824Y006278D01*
X014509Y006199D02*
X014509Y005451D01*
X015100Y004860D01*
X015572Y004860D01*
X015887Y004703D02*
X015887Y005018D01*
X015179Y005727D01*
X014943Y005727D01*
X015415Y005727D02*
X016045Y005097D01*
X016045Y004782D01*
X015887Y004703D02*
X016360Y004230D01*
X017147Y004230D01*
X017242Y004136D01*
X017820Y004173D02*
X017844Y004173D01*
X018214Y004173D02*
X018238Y004173D01*
X018607Y004173D02*
X018632Y004173D01*
X019001Y004173D02*
X019026Y004173D01*
X019395Y004173D02*
X019419Y004173D01*
X019789Y004173D02*
X019813Y004173D01*
X020182Y004173D02*
X020211Y004173D01*
X020372Y004173D02*
X020411Y004173D01*
X020411Y004096D02*
X020372Y004096D01*
X020372Y004019D02*
X020411Y004019D01*
X020411Y003942D02*
X020372Y003942D01*
X020372Y003865D02*
X020411Y003865D01*
X020411Y003787D02*
X020372Y003787D01*
X020372Y003556D02*
X020411Y003556D01*
X020411Y003478D02*
X020372Y003478D01*
X020372Y003401D02*
X020411Y003401D01*
X020411Y003324D02*
X020372Y003324D01*
X020372Y003247D02*
X020411Y003247D01*
X020411Y003169D02*
X020372Y003169D01*
X020372Y003092D02*
X020411Y003092D01*
X020538Y003092D02*
X020639Y003092D01*
X020765Y003092D02*
X020805Y003092D01*
X020805Y003169D02*
X020765Y003169D01*
X020765Y003247D02*
X020805Y003247D01*
X020805Y003324D02*
X020765Y003324D01*
X020765Y003401D02*
X020805Y003401D01*
X020805Y003478D02*
X020765Y003478D01*
X020765Y003556D02*
X020805Y003556D01*
X021809Y003556D02*
X021851Y003556D01*
X021008Y003092D02*
X020931Y003092D01*
X021065Y003015D02*
X020160Y003015D01*
X020160Y002938D02*
X021093Y002938D01*
X021143Y002860D02*
X020135Y002860D01*
X020079Y002783D02*
X021220Y002783D01*
X020245Y003092D02*
X020168Y003092D01*
X020572Y004173D02*
X020605Y004173D01*
X019738Y005332D02*
X019736Y005332D01*
X018919Y005718D02*
X018919Y005718D01*
X018919Y005796D02*
X018919Y005796D01*
X018919Y005873D02*
X018919Y005873D01*
X018919Y005950D02*
X018624Y005950D01*
X018624Y006027D02*
X018545Y006027D01*
X018545Y005950D02*
X017480Y005950D01*
X017443Y005873D02*
X018250Y005873D01*
X018250Y005796D02*
X017443Y005796D01*
X017519Y005718D02*
X018250Y005718D01*
X018234Y005641D02*
X017576Y005641D01*
X017616Y005564D02*
X018176Y005564D01*
X018150Y005487D02*
X017693Y005487D01*
X017771Y005409D02*
X018150Y005409D01*
X018178Y005332D02*
X017848Y005332D01*
X017147Y006238D02*
X016675Y005766D01*
X016675Y005097D01*
X016399Y005254D02*
X016399Y005727D01*
X016990Y006317D01*
X016990Y007419D01*
X017413Y007843D01*
X017888Y007843D01*
X017888Y008099D02*
X017354Y008099D01*
X017069Y007813D01*
X016950Y007813D01*
X016380Y007804D02*
X015927Y007804D01*
X015927Y007881D02*
X016380Y007881D01*
X016380Y007958D02*
X015927Y007958D01*
X015927Y008036D02*
X016343Y008036D01*
X016310Y008068D02*
X016380Y007999D01*
X016380Y006542D01*
X016457Y006465D01*
X016457Y006463D01*
X016496Y006368D01*
X016569Y006296D01*
X016663Y006257D01*
X016707Y006257D01*
X016242Y005792D01*
X016242Y005460D01*
X016181Y005400D01*
X016142Y005305D01*
X016142Y005222D01*
X016110Y005254D01*
X015572Y005792D01*
X015572Y005993D01*
X015633Y006053D01*
X015672Y006148D01*
X015672Y006250D01*
X015633Y006344D01*
X015560Y006417D01*
X015466Y006456D01*
X015364Y006456D01*
X015300Y006429D01*
X015318Y006447D01*
X015357Y006542D01*
X015357Y006627D01*
X015927Y007197D01*
X015927Y008102D01*
X016103Y008278D01*
X016103Y008274D01*
X016142Y008179D01*
X016214Y008107D01*
X016309Y008068D01*
X016310Y008068D01*
X016209Y008113D02*
X015937Y008113D01*
X016015Y008190D02*
X016138Y008190D01*
X016106Y008267D02*
X016092Y008267D01*
X015769Y008167D02*
X015769Y007262D01*
X015100Y006593D01*
X015336Y006491D02*
X016431Y006491D01*
X016478Y006413D02*
X015564Y006413D01*
X015636Y006336D02*
X016529Y006336D01*
X016659Y006259D02*
X015668Y006259D01*
X015672Y006182D02*
X016632Y006182D01*
X016554Y006104D02*
X015654Y006104D01*
X015606Y006027D02*
X016477Y006027D01*
X016400Y005950D02*
X015572Y005950D01*
X015572Y005873D02*
X016323Y005873D01*
X016245Y005796D02*
X015572Y005796D01*
X015646Y005718D02*
X016242Y005718D01*
X016242Y005641D02*
X015723Y005641D01*
X015800Y005564D02*
X016242Y005564D01*
X016242Y005487D02*
X015878Y005487D01*
X015955Y005409D02*
X016191Y005409D01*
X016154Y005332D02*
X016032Y005332D01*
X016109Y005255D02*
X016142Y005255D01*
X015415Y005727D02*
X015415Y006199D01*
X015357Y006568D02*
X016380Y006568D01*
X016380Y006645D02*
X015375Y006645D01*
X015452Y006722D02*
X016380Y006722D01*
X016380Y006800D02*
X015530Y006800D01*
X015607Y006877D02*
X016380Y006877D01*
X016380Y006954D02*
X015684Y006954D01*
X015761Y007031D02*
X016380Y007031D01*
X016380Y007109D02*
X015839Y007109D01*
X015916Y007186D02*
X016380Y007186D01*
X016380Y007263D02*
X015927Y007263D01*
X015927Y007340D02*
X016380Y007340D01*
X016380Y007418D02*
X015927Y007418D01*
X015927Y007495D02*
X016380Y007495D01*
X016380Y007572D02*
X015927Y007572D01*
X015927Y007649D02*
X016380Y007649D01*
X016380Y007727D02*
X015927Y007727D01*
X015139Y007774D02*
X015139Y008640D01*
X016360Y009860D01*
X016911Y009860D01*
X017029Y009979D01*
X017029Y010530D01*
X017187Y010687D01*
X019785Y010687D01*
X019864Y010766D01*
X019801Y010507D02*
X018498Y010507D01*
X018565Y010430D02*
X019769Y010430D01*
X019737Y010353D02*
X018565Y010353D01*
X018565Y010254D02*
X018250Y010254D01*
X018250Y009939D01*
X018357Y009939D01*
X018565Y010147D01*
X018565Y010254D01*
X018565Y010198D02*
X019729Y010198D01*
X019735Y010121D02*
X018539Y010121D01*
X018462Y010044D02*
X019767Y010044D01*
X019799Y009967D02*
X018384Y009967D01*
X018250Y009967D02*
X018171Y009967D01*
X018171Y009939D02*
X018171Y010254D01*
X017856Y010254D01*
X017856Y010147D01*
X018063Y009939D01*
X018171Y009939D01*
X018171Y010044D02*
X018250Y010044D01*
X018250Y010121D02*
X018171Y010121D01*
X018171Y010198D02*
X018250Y010198D01*
X018250Y010275D02*
X019729Y010275D01*
X020222Y010234D02*
X020691Y009766D01*
X019953Y009812D02*
X017085Y009812D01*
X017163Y009889D02*
X019870Y009889D01*
X021432Y009271D02*
X021432Y009271D01*
X021432Y009194D02*
X021432Y009194D01*
X018171Y010275D02*
X017777Y010275D01*
X017777Y010198D02*
X017856Y010198D01*
X017882Y010121D02*
X017751Y010121D01*
X017674Y010044D02*
X017959Y010044D01*
X018036Y009967D02*
X017597Y009967D01*
X017249Y009967D02*
X017187Y009967D01*
X016635Y010293D02*
X016242Y010687D01*
X015710Y011041D02*
X015297Y011041D01*
X015061Y010805D01*
X015061Y010097D01*
X014667Y010097D02*
X014667Y011199D01*
X017383Y011202D02*
X017383Y011202D01*
X017383Y011125D02*
X017383Y011125D01*
X017383Y011280D02*
X017390Y011280D01*
X018046Y011280D02*
X033382Y011280D01*
X033532Y011202D02*
X018053Y011202D01*
X018053Y011125D02*
X032419Y011125D01*
X033136Y011125D02*
X033623Y011125D01*
X033686Y011048D02*
X033303Y011048D01*
X033381Y010971D02*
X033733Y010971D01*
X033765Y010893D02*
X033458Y010893D01*
X033535Y010816D02*
X033786Y010816D01*
X033797Y010739D02*
X033573Y010739D01*
X033605Y010662D02*
X033801Y010662D01*
X033801Y010584D02*
X033637Y010584D01*
X033669Y010507D02*
X033801Y010507D01*
X033801Y010430D02*
X033683Y010430D01*
X033683Y010353D02*
X033801Y010353D01*
X033801Y010275D02*
X033683Y010275D01*
X033683Y010198D02*
X033801Y010198D01*
X033801Y010121D02*
X033683Y010121D01*
X033654Y010044D02*
X033801Y010044D01*
X033801Y009967D02*
X033622Y009967D01*
X033590Y009889D02*
X033801Y009889D01*
X033801Y009812D02*
X033558Y009812D01*
X033499Y009735D02*
X033801Y009735D01*
X033801Y009658D02*
X033422Y009658D01*
X033345Y009580D02*
X033801Y009580D01*
X033801Y009503D02*
X033235Y009503D01*
X033049Y009426D02*
X033801Y009426D01*
X031872Y010353D02*
X031360Y010353D01*
X031360Y010333D02*
X031360Y010440D01*
X031152Y010648D01*
X031045Y010648D01*
X031045Y010333D01*
X031360Y010333D01*
X031360Y010430D02*
X031872Y010430D01*
X031886Y010507D02*
X031293Y010507D01*
X031216Y010584D02*
X031918Y010584D01*
X031045Y010584D02*
X030966Y010584D01*
X030966Y010507D02*
X031045Y010507D01*
X031045Y010430D02*
X030966Y010430D01*
X030966Y010353D02*
X031045Y010353D01*
X030718Y010507D02*
X030505Y010507D01*
X030572Y010430D02*
X030651Y010430D01*
X030651Y010353D02*
X030572Y010353D01*
X030428Y010584D02*
X030795Y010584D01*
X030869Y007263D02*
X029430Y007263D01*
X029388Y007186D02*
X030810Y007186D01*
X030778Y007109D02*
X029311Y007109D01*
X029165Y007031D02*
X030754Y007031D01*
X031163Y006336D02*
X031242Y006336D01*
X031242Y006259D02*
X031163Y006259D01*
X031163Y006182D02*
X031242Y006182D01*
X031242Y006104D02*
X031163Y006104D01*
X031163Y006027D02*
X031242Y006027D01*
X031242Y005796D02*
X031163Y005796D01*
X031163Y005718D02*
X031242Y005718D01*
X031242Y005641D02*
X031163Y005641D01*
X031163Y005564D02*
X031242Y005564D01*
X031406Y005564D02*
X033801Y005564D01*
X033801Y005641D02*
X031514Y005641D01*
X031579Y005718D02*
X033801Y005718D01*
X033801Y005796D02*
X031619Y005796D01*
X030998Y005564D02*
X027590Y005564D01*
X027640Y005514D02*
X027501Y005652D01*
X027320Y005728D01*
X027513Y005641D02*
X030890Y005641D01*
X031110Y005409D02*
X027683Y005409D01*
X027715Y005332D02*
X027640Y005514D01*
X027651Y005487D02*
X033801Y005487D01*
X033801Y005409D02*
X031295Y005409D01*
X031467Y005332D02*
X033801Y005332D01*
X033801Y005255D02*
X031544Y005255D01*
X031598Y005178D02*
X033801Y005178D01*
X033801Y005100D02*
X031630Y005100D01*
X031650Y005023D02*
X033801Y005023D01*
X033801Y004946D02*
X031650Y004946D01*
X031648Y004869D02*
X033801Y004869D01*
X033801Y004791D02*
X031616Y004791D01*
X031584Y004714D02*
X033801Y004714D01*
X033801Y004637D02*
X031510Y004637D01*
X031400Y004560D02*
X033801Y004560D01*
X030756Y004869D02*
X029076Y004869D01*
X029076Y004791D02*
X028998Y004791D01*
X028998Y004714D02*
X029076Y004714D01*
X029076Y004637D02*
X028998Y004637D01*
X028998Y004560D02*
X029076Y004560D01*
X029076Y004482D02*
X028998Y004482D01*
X026761Y005409D02*
X026684Y005409D01*
X026647Y005487D02*
X026793Y005487D01*
X026854Y005564D02*
X026590Y005564D01*
X026501Y005641D02*
X026931Y005641D01*
X027102Y005718D02*
X026319Y005718D01*
X026261Y005718D02*
X026183Y005718D01*
X026125Y005718D02*
X025342Y005718D01*
X025513Y005641D02*
X025943Y005641D01*
X025854Y005564D02*
X025590Y005564D01*
X025651Y005487D02*
X025797Y005487D01*
X025760Y005409D02*
X025683Y005409D01*
X026183Y005409D02*
X026261Y005409D01*
X026261Y005487D02*
X026183Y005487D01*
X026183Y005564D02*
X026261Y005564D01*
X026261Y005641D02*
X026183Y005641D01*
X026183Y005178D02*
X026261Y005178D01*
X020538Y005873D02*
X020277Y005873D01*
X019037Y006259D02*
X017684Y006259D01*
X017679Y006182D02*
X018267Y006182D01*
X018250Y006104D02*
X017635Y006104D01*
X017557Y006027D02*
X018250Y006027D01*
X018545Y006104D02*
X018624Y006104D01*
X018624Y006182D02*
X018545Y006182D01*
X018902Y006182D02*
X018931Y006182D01*
X018919Y006104D02*
X018919Y006104D01*
X018919Y006027D02*
X018919Y006027D01*
X019037Y006336D02*
X017716Y006336D01*
X017719Y006413D02*
X019037Y006413D01*
X019037Y006491D02*
X017701Y006491D01*
X017653Y006568D02*
X019037Y006568D01*
X019037Y006645D02*
X018115Y006645D01*
X018196Y006722D02*
X019057Y006722D01*
X019135Y006800D02*
X018201Y006800D01*
X018201Y006819D02*
X017888Y006819D01*
X017888Y006819D01*
X018201Y006819D01*
X018201Y006877D02*
X019212Y006877D01*
X019289Y006954D02*
X018189Y006954D01*
X018201Y007031D02*
X019366Y007031D01*
X017888Y007075D02*
X017708Y007075D01*
X017541Y006908D01*
X017423Y006908D01*
X017888Y006800D02*
X017888Y006800D01*
X017888Y006722D02*
X017888Y006722D01*
X017888Y006645D02*
X017888Y006645D01*
X017662Y006645D02*
X017531Y006645D01*
X017147Y006238D02*
X017147Y007341D01*
X017393Y007587D01*
X017888Y007587D01*
X017888Y007331D02*
X017531Y007331D01*
X017502Y007301D01*
X018201Y008036D02*
X018261Y008036D01*
X017888Y008354D02*
X017216Y008354D01*
X017069Y008207D01*
X016675Y008640D02*
X016635Y008601D01*
X016202Y008601D01*
X015769Y008167D01*
X014185Y008147D02*
X013819Y008147D01*
X013604Y007931D01*
X013643Y007616D02*
X013924Y007897D01*
X014185Y007897D01*
X013643Y007616D02*
X013328Y007616D01*
X013096Y007727D02*
X012895Y007727D01*
X012895Y007804D02*
X013153Y007804D01*
X013071Y007649D02*
X012875Y007649D01*
X012803Y007577D02*
X012803Y007577D01*
X012798Y007572D02*
X013071Y007572D01*
X013101Y007495D02*
X012721Y007495D01*
X012722Y007380D02*
X012692Y007372D01*
X012665Y007356D01*
X012643Y007334D01*
X012628Y007308D01*
X012620Y007278D01*
X012620Y007104D01*
X012915Y007104D01*
X012915Y007380D01*
X012722Y007380D01*
X012649Y007340D02*
X011544Y007340D01*
X011621Y007263D02*
X012620Y007263D01*
X012620Y007186D02*
X011698Y007186D01*
X011775Y007109D02*
X012620Y007109D01*
X012620Y006954D02*
X011930Y006954D01*
X012007Y006877D02*
X012620Y006877D01*
X012915Y007031D02*
X011853Y007031D01*
X010970Y006800D02*
X007935Y006800D01*
X007935Y006877D02*
X010892Y006877D01*
X010848Y006954D02*
X007935Y006954D01*
X007935Y007031D02*
X010848Y007031D01*
X011047Y006722D02*
X007935Y006722D01*
X007935Y006645D02*
X011124Y006645D01*
X011201Y006568D02*
X007935Y006568D01*
X007935Y006491D02*
X011278Y006491D01*
X011356Y006413D02*
X007935Y006413D01*
X007935Y006336D02*
X011433Y006336D01*
X011510Y006259D02*
X007935Y006259D01*
X007935Y006182D02*
X011587Y006182D01*
X011665Y006104D02*
X007935Y006104D01*
X007935Y006027D02*
X011742Y006027D01*
X011819Y005950D02*
X007935Y005950D01*
X007935Y005873D02*
X011896Y005873D01*
X011974Y005796D02*
X007935Y005796D01*
X007874Y005718D02*
X012051Y005718D01*
X012283Y005487D02*
X007925Y005487D01*
X007935Y005409D02*
X012360Y005409D01*
X012437Y005332D02*
X007935Y005332D01*
X007935Y005255D02*
X012514Y005255D01*
X012692Y004946D02*
X012823Y004946D01*
X014076Y005372D02*
X014116Y005372D01*
X015179Y004309D01*
X015454Y004309D01*
X015612Y004585D02*
X015848Y004349D01*
X015848Y004309D01*
X015612Y004585D02*
X015139Y004585D01*
X014352Y005372D01*
X014352Y005530D01*
X014116Y005766D01*
X014076Y005766D01*
X013801Y005884D02*
X013722Y005805D01*
X013328Y005805D01*
X013801Y005884D02*
X013801Y006278D01*
X014194Y006671D01*
X014549Y006671D01*
X013289Y006877D02*
X013289Y006877D01*
X013289Y006954D02*
X013289Y006954D01*
X013289Y007031D02*
X012994Y007031D01*
X012994Y007109D02*
X012915Y007109D01*
X012915Y007186D02*
X012994Y007186D01*
X012994Y007263D02*
X012915Y007263D01*
X012915Y007340D02*
X012994Y007340D01*
X013164Y007418D02*
X011466Y007418D01*
X011389Y007495D02*
X011866Y007495D01*
X011832Y007572D02*
X011312Y007572D01*
X011235Y007649D02*
X011832Y007649D01*
X011832Y007727D02*
X011260Y007727D01*
X012236Y007647D02*
X012650Y007647D01*
X012738Y007734D01*
X012738Y008404D01*
X012856Y008522D01*
X012702Y008731D02*
X012639Y008731D01*
X011832Y009349D02*
X010902Y009349D01*
X013117Y009889D02*
X013230Y009889D01*
X013230Y009812D02*
X013194Y009812D01*
X017383Y010845D02*
X017383Y010845D01*
X017710Y010507D02*
X017923Y010507D01*
X017856Y010430D02*
X017777Y010430D01*
X017777Y010353D02*
X017856Y010353D01*
X017888Y009271D02*
X017888Y009271D01*
X017888Y009194D02*
X017888Y009194D01*
X013318Y007340D02*
X013260Y007340D01*
X013289Y007263D02*
X013289Y007263D01*
X013289Y007186D02*
X013289Y007186D01*
X013289Y007109D02*
X013289Y007109D01*
X014431Y006278D02*
X014509Y006199D01*
X017552Y006022D02*
X017552Y006022D01*
X010887Y004482D02*
X008131Y004482D01*
X006071Y005100D02*
X006045Y005100D01*
X005494Y004664D02*
X005494Y005569D01*
X006803Y005718D02*
X007681Y005718D01*
X007620Y005796D02*
X006880Y005796D01*
X006957Y005873D02*
X007620Y005873D01*
X007620Y005950D02*
X007472Y005950D01*
X007530Y006027D02*
X007620Y006027D01*
X007620Y006104D02*
X007530Y006104D01*
X007530Y006182D02*
X007620Y006182D01*
X007620Y006259D02*
X007530Y006259D01*
X007530Y006336D02*
X007620Y006336D01*
X007620Y006413D02*
X007530Y006413D01*
X007530Y006491D02*
X007620Y006491D01*
X007620Y006568D02*
X007530Y006568D01*
X007530Y006645D02*
X007620Y006645D01*
X007620Y006722D02*
X007513Y006722D01*
X004706Y005100D02*
X004601Y005100D01*
X004509Y004860D02*
X003998Y004860D01*
X003880Y004427D02*
X005021Y004427D01*
X004246Y004173D02*
X004217Y004173D01*
X003857Y004173D02*
X003848Y004173D01*
X003643Y004191D02*
X003880Y004427D01*
X003643Y004191D02*
X003643Y003640D01*
X003250Y003640D02*
X003250Y004309D01*
X003013Y003633D02*
X002771Y003633D01*
X002848Y003556D02*
X003013Y003556D01*
X003013Y003478D02*
X002925Y003478D01*
X003002Y003401D02*
X003013Y003401D01*
X002634Y003324D02*
X002630Y003324D01*
X002698Y003247D02*
X002712Y003247D01*
X002698Y003169D02*
X002738Y003169D01*
X003420Y003092D02*
X003473Y003092D01*
X003814Y003092D02*
X003891Y003092D01*
X003765Y002629D02*
X003499Y002629D01*
X001754Y003169D02*
X001607Y003169D01*
X001668Y003247D02*
X001754Y003247D01*
X001695Y003324D02*
X001822Y003324D01*
X000709Y002938D02*
X000257Y002938D01*
X000257Y003015D02*
X000632Y003015D01*
X000555Y003092D02*
X000257Y003092D01*
X000257Y003169D02*
X000477Y003169D01*
X000400Y003247D02*
X000257Y003247D01*
X000257Y003324D02*
X000323Y003324D01*
X000257Y002860D02*
X000786Y002860D01*
X000864Y002783D02*
X000257Y002783D01*
X000257Y002706D02*
X000941Y002706D01*
X001018Y002629D02*
X000257Y002629D01*
X000257Y002551D02*
X001095Y002551D01*
X001142Y002474D02*
X000257Y002474D01*
X000257Y002397D02*
X001163Y002397D01*
X001214Y002320D02*
X000257Y002320D01*
X006950Y001691D02*
X007324Y001691D01*
X007344Y001711D01*
X007364Y001691D01*
X007777Y001691D01*
X008112Y001470D02*
X008199Y001470D01*
D31*
X024824Y002892D03*
X025336Y002892D03*
X025848Y002892D03*
X027856Y006947D03*
D32*
X025887Y004569D02*
X025222Y005234D01*
X025336Y002892D02*
X025336Y002656D01*
X025533Y002459D01*
X026360Y002459D01*
X026675Y002774D01*
X027069Y002498D02*
X026596Y002026D01*
X025297Y002026D01*
X024824Y002498D01*
X024824Y002892D01*
D33*
X025848Y002892D02*
X026084Y002892D01*
X026281Y003089D01*
X026281Y003640D01*
X025887Y003640D02*
X025887Y004569D01*
X026675Y003640D02*
X026675Y002774D01*
X027069Y002498D02*
X027069Y003640D01*
D34*
X013171Y002144D03*
X012856Y002341D03*
X012620Y002616D03*
X012226Y002616D03*
D35*
X001281Y004467D03*
X001281Y010293D03*
X032777Y010293D03*
X032777Y002419D03*
M02*
