%
M48
M72
T01C0.0118
T02C0.0157
T03C0.0236
T04C0.0315
T05C0.0320
T06C0.0360
T07C0.0394
T08C0.0400
T09C0.0866
%
T01
X12226Y2616
X12620Y2616
X12856Y2341
X13171Y2144
T02
X769Y1593
X1399Y2498
X3446Y2931
X3919Y2419
X5612Y1908
X6399Y2183
X6242Y2538
X6399Y2813
X8289Y2616
X8722Y2616
X9549Y2301
X9943Y2301
X10336Y2301
X10730Y2301
X12147Y3010
X10631Y3502
X11399Y3561
X9864Y3404
X10730Y4506
X11320Y4506
X11990Y4703
X12620Y4703
X13171Y4349
X13958Y4467
X14076Y4979
X14076Y5372
X14076Y5766
X13328Y5805
X13053Y6160
X12620Y6278
X11320Y6081
X10179Y5608
X9313Y5530
X8092Y5293
X7502Y5608
X8092Y5884
X6596Y5372
X5887Y5569
X5494Y5569
X4864Y5530
X4509Y4860
X6163Y4860
X6714Y4860
X6439Y4585
X6990Y4585
X4943Y3758
X2383Y4427
X2305Y4034
X1439Y3364
X3683Y1750
X7344Y1711
X8289Y1711
X8722Y1829
X14667Y2419
X15612Y2341
X16635Y2419
X16439Y2971
X16832Y2971
X17226Y2971
X17777Y2971
X18328Y2971
X18722Y2971
X19116Y2971
X19509Y2971
X19903Y2971
X20592Y4171
X23328Y3049
X23328Y2341
X28446Y1750
X30021Y1750
X31596Y1750
X31596Y2813
X30021Y2813
X28446Y4388
X30257Y4821
X31596Y4388
X33171Y4388
X29706Y5687
X28328Y5687
X25887Y5963
X25297Y5963
X24706Y5963
X25927Y6750
X26478Y6750
X27029Y7656
X28643Y8246
X27659Y8719
X26872Y8719
X25966Y8719
X24943Y9230
X25887Y9506
X26872Y9506
X27659Y9506
X29234Y9506
X29116Y8837
X31596Y9112
X33171Y9112
X33171Y7538
X31596Y7538
X30297Y6671
X31793Y5963
X33171Y5963
X25100Y7734
X24785Y7734
X24470Y7734
X23053Y7341
X22147Y7538
X20651Y7419
X20651Y7853
X19549Y7459
X19234Y7774
X18919Y8089
X18328Y8286
X17069Y8207
X16360Y8325
X16045Y8010
X16950Y7813
X17502Y7301
X17423Y6908
X16714Y6514
X16439Y6199
X15415Y6199
X14824Y6278
X14431Y6278
X15100Y6593
X14549Y6671
X14549Y7065
X15100Y7301
X13604Y7931
X13328Y7616
X11360Y7065
X10572Y7341
X9746Y7734
X8880Y7026
X8092Y6553
X3486Y6475
X1872Y7144
X3486Y8089
X1872Y8128
X4549Y8876
X5533Y8876
X5769Y8522
X6675Y8876
X8289Y8404
X11281Y9427
X12856Y9467
X14234Y9703
X14706Y9703
X15612Y9506
X16419Y9408
X17029Y9506
X17423Y9506
X17069Y9034
X16675Y8640
X15376Y8443
X12856Y8522
X12895Y10097
X14667Y10097
X15061Y10097
X14667Y11199
X14234Y11199
X18998Y10293
X19391Y10293
X19352Y9388
X18761Y8797
X18328Y8797
X20691Y8797
X20887Y8364
X22698Y8758
X22895Y8561
X22147Y9112
X21006Y9191
X20415Y6317
X20612Y6120
X18407Y5451
X17620Y5884
X17344Y5530
X16399Y5254
X16399Y4860
X17344Y4860
X15848Y4309
X15454Y4309
X15572Y4860
X14943Y5727
X17462Y6396
X10927Y4939
X15273Y2947
X15651Y2931
X14667Y2813
X2856Y5490
X2069Y5254
X1360Y5530
X533Y9309
X3565Y10057
X3643Y9703
X3604Y10884
X3210Y10884
X2895Y11199
X2502Y11199
X8013Y10175
X8407Y10412
T03
X27856Y6947
X25848Y2892
X25336Y2892
X24824Y2892
T04
X25222Y5234
X26222Y5234
X27222Y5234
X24222Y5234
X23222Y5234
X22222Y5234
X21222Y5234
X20222Y5234
X20222Y10234
X21222Y10234
X22222Y10234
X23222Y10234
X24222Y10234
X25222Y10234
X26222Y10234
X27222Y10234
X30218Y10293
X31006Y10293
X18210Y10293
X17423Y10293
X16635Y10293
X15848Y10293
X12305Y10293
X11517Y10293
X10730Y10293
X9943Y10293
X9155Y10293
X7187Y10293
X6399Y10293
X5612Y10293
X4824Y10293
X4037Y10293
T05
X29037Y7447
X29037Y6447
X29037Y4888
X29037Y3888
T06
X2659Y7628
X1084Y7628
X1084Y8628
X2659Y8628
T07
X21065Y2498
X21813Y2006
X31202Y4963
X31202Y5963
X31202Y6963
T08
X7112Y6356
X6112Y6356
X5112Y6356
X4112Y6356
X2872Y6356
X1872Y6356
X872Y6356
X4112Y7636
X5112Y7636
X6112Y7636
X7112Y7636
T09
X1281Y10293
X1281Y4467
X32777Y2419
X32777Y10293
M30
