G75*
%MOIN*%
%OFA0B0*%
%FSLAX24Y24*%
%IPPOS*%
%LPD*%
%AMOC8*
5,1,8,0,0,1.08239X$1,22.5*
%
%ADD10C,0.0000*%
%ADD11C,0.0050*%
%ADD12C,0.0118*%
%ADD13C,0.0060*%
%ADD14C,0.0020*%
%ADD15C,0.0004*%
%ADD16C,0.0030*%
%ADD17R,0.0295X0.0130*%
D10*
X000887Y001238D02*
X033171Y001238D01*
X033171Y001239D02*
X033225Y001241D01*
X033278Y001246D01*
X033331Y001255D01*
X033383Y001268D01*
X033435Y001284D01*
X033485Y001304D01*
X033533Y001327D01*
X033580Y001354D01*
X033625Y001383D01*
X033668Y001416D01*
X033708Y001451D01*
X033746Y001489D01*
X033781Y001529D01*
X033814Y001572D01*
X033843Y001617D01*
X033870Y001664D01*
X033893Y001712D01*
X033913Y001762D01*
X033929Y001814D01*
X033942Y001866D01*
X033951Y001919D01*
X033956Y001972D01*
X033958Y002026D01*
X033958Y010687D01*
X033956Y010741D01*
X033951Y010794D01*
X033942Y010847D01*
X033929Y010899D01*
X033913Y010951D01*
X033893Y011001D01*
X033870Y011049D01*
X033843Y011096D01*
X033814Y011141D01*
X033781Y011184D01*
X033746Y011224D01*
X033708Y011262D01*
X033668Y011297D01*
X033625Y011330D01*
X033580Y011359D01*
X033533Y011386D01*
X033485Y011409D01*
X033435Y011429D01*
X033383Y011445D01*
X033331Y011458D01*
X033278Y011467D01*
X033225Y011472D01*
X033171Y011474D01*
X033171Y011475D02*
X000887Y011475D01*
X000887Y011474D02*
X000833Y011472D01*
X000780Y011467D01*
X000727Y011458D01*
X000675Y011445D01*
X000623Y011429D01*
X000573Y011409D01*
X000525Y011386D01*
X000478Y011359D01*
X000433Y011330D01*
X000390Y011297D01*
X000350Y011262D01*
X000312Y011224D01*
X000277Y011184D01*
X000244Y011141D01*
X000215Y011096D01*
X000188Y011049D01*
X000165Y011001D01*
X000145Y010951D01*
X000129Y010899D01*
X000116Y010847D01*
X000107Y010794D01*
X000102Y010741D01*
X000100Y010687D01*
X000100Y002026D01*
X000102Y001972D01*
X000107Y001919D01*
X000116Y001866D01*
X000129Y001814D01*
X000145Y001762D01*
X000165Y001712D01*
X000188Y001664D01*
X000215Y001617D01*
X000244Y001572D01*
X000277Y001529D01*
X000312Y001489D01*
X000350Y001451D01*
X000390Y001416D01*
X000433Y001383D01*
X000478Y001354D01*
X000525Y001327D01*
X000573Y001304D01*
X000623Y001284D01*
X000675Y001268D01*
X000727Y001255D01*
X000780Y001246D01*
X000833Y001241D01*
X000887Y001239D01*
D11*
X001675Y001081D02*
X006006Y001081D01*
X006006Y001514D01*
X001675Y001514D01*
X001675Y001081D01*
X006320Y001801D02*
X006600Y001801D01*
X006600Y001941D01*
X006553Y001988D01*
X006460Y001988D01*
X006413Y001941D01*
X006413Y001801D01*
X006413Y001894D02*
X006320Y001988D01*
X006320Y002105D02*
X006507Y002291D01*
X006553Y002291D01*
X006600Y002245D01*
X006600Y002151D01*
X006553Y002105D01*
X006320Y002105D02*
X006320Y002291D01*
X008131Y002331D02*
X008131Y002144D01*
X008131Y002237D02*
X008411Y002237D01*
X008318Y002144D01*
X008364Y002027D02*
X008271Y002027D01*
X008224Y001980D01*
X008224Y001840D01*
X008131Y001840D02*
X008411Y001840D01*
X008411Y001980D01*
X008364Y002027D01*
X008224Y001934D02*
X008131Y002027D01*
X010943Y001514D02*
X010943Y001081D01*
X023147Y001081D01*
X023147Y001514D01*
X010943Y001514D01*
X011622Y003621D02*
X011622Y003668D01*
X011435Y003855D01*
X011435Y003901D01*
X011622Y003901D01*
X011739Y003901D02*
X011926Y003621D01*
X011739Y003621D02*
X011926Y003901D01*
X015939Y004255D02*
X016079Y004255D01*
X016126Y004302D01*
X016126Y004396D01*
X016079Y004442D01*
X015939Y004442D01*
X015939Y004536D02*
X015939Y004255D01*
X016243Y004255D02*
X016243Y004396D01*
X016289Y004442D01*
X016383Y004442D01*
X016383Y004349D02*
X016243Y004349D01*
X016243Y004255D02*
X016383Y004255D01*
X016430Y004302D01*
X016383Y004349D01*
X016547Y004349D02*
X016733Y004349D01*
X016733Y004302D02*
X016733Y004396D01*
X016687Y004442D01*
X016593Y004442D01*
X016547Y004396D01*
X016547Y004349D01*
X016593Y004255D02*
X016687Y004255D01*
X016733Y004302D01*
X016850Y004255D02*
X016850Y004396D01*
X016897Y004442D01*
X016991Y004442D01*
X017037Y004396D01*
X017146Y004442D02*
X017240Y004442D01*
X017193Y004489D02*
X017193Y004302D01*
X017146Y004255D01*
X017037Y004255D02*
X017037Y004536D01*
X017357Y004396D02*
X017357Y004255D01*
X017357Y004396D02*
X017404Y004442D01*
X017544Y004442D01*
X017544Y004255D01*
X017653Y004255D02*
X017746Y004255D01*
X017700Y004255D02*
X017700Y004442D01*
X017746Y004442D01*
X017700Y004536D02*
X017700Y004582D01*
X017859Y004442D02*
X017906Y004442D01*
X017999Y004349D01*
X017999Y004442D02*
X017999Y004255D01*
X018117Y004396D02*
X018163Y004349D01*
X018303Y004349D01*
X018303Y004255D02*
X018303Y004536D01*
X018163Y004536D01*
X018117Y004489D01*
X018117Y004396D01*
X022393Y005733D02*
X022393Y005827D01*
X022440Y005873D01*
X022487Y005873D01*
X022580Y005827D01*
X022580Y005967D01*
X022393Y005967D01*
X022697Y005920D02*
X022744Y005967D01*
X022837Y005967D01*
X022884Y005920D01*
X022884Y005733D01*
X022837Y005687D01*
X022744Y005687D01*
X022697Y005733D01*
X022580Y005733D02*
X022533Y005687D01*
X022440Y005687D01*
X022393Y005733D01*
X024885Y006206D02*
X024931Y006159D01*
X025025Y006159D01*
X025072Y006206D01*
X025189Y006159D02*
X025375Y006159D01*
X025282Y006159D02*
X025282Y006439D01*
X025375Y006346D01*
X025493Y006393D02*
X025539Y006439D01*
X025633Y006439D01*
X025679Y006393D01*
X025679Y006206D01*
X025633Y006159D01*
X025539Y006159D01*
X025493Y006206D01*
X025072Y006393D02*
X025025Y006439D01*
X024931Y006439D01*
X024885Y006393D01*
X024885Y006346D01*
X024931Y006299D01*
X024885Y006252D01*
X024885Y006206D01*
X024931Y006299D02*
X024978Y006299D01*
X024943Y007175D02*
X024943Y008293D01*
X025572Y008293D01*
X025572Y007175D01*
X024943Y007175D01*
X024808Y007578D02*
X024714Y007578D01*
X024668Y007625D01*
X024668Y007859D01*
X024551Y007812D02*
X024504Y007859D01*
X024411Y007859D01*
X024364Y007812D01*
X024364Y007765D01*
X024551Y007578D01*
X024364Y007578D01*
X024808Y007578D02*
X024855Y007625D01*
X024855Y007859D01*
X026832Y007774D02*
X027019Y007961D01*
X027065Y007961D01*
X027112Y007914D01*
X027112Y007821D01*
X027065Y007774D01*
X027065Y007657D02*
X027112Y007610D01*
X027112Y007517D01*
X027065Y007470D01*
X026878Y007470D01*
X026832Y007517D01*
X026832Y007610D01*
X026878Y007657D01*
X026832Y007774D02*
X026832Y007961D01*
X025640Y009080D02*
X025593Y009033D01*
X025500Y009033D01*
X025453Y009080D01*
X025336Y009033D02*
X025149Y009033D01*
X025243Y009033D02*
X025243Y009313D01*
X025336Y009220D01*
X025453Y009267D02*
X025500Y009313D01*
X025593Y009313D01*
X025640Y009267D01*
X025640Y009080D01*
X025032Y009173D02*
X024892Y009313D01*
X024892Y009033D01*
X024845Y009173D02*
X025032Y009173D01*
X023375Y009438D02*
X023329Y009392D01*
X023235Y009392D01*
X023188Y009438D01*
X023188Y009672D01*
X023071Y009672D02*
X022885Y009672D01*
X022885Y009625D01*
X023071Y009438D01*
X023071Y009392D01*
X023375Y009438D02*
X023375Y009672D01*
X019871Y009672D02*
X019871Y009438D01*
X019825Y009392D01*
X019731Y009392D01*
X019685Y009438D01*
X019685Y009672D01*
X019568Y009532D02*
X019474Y009625D01*
X019381Y009672D01*
X019427Y009532D02*
X019381Y009485D01*
X019381Y009438D01*
X019427Y009392D01*
X019521Y009392D01*
X019568Y009438D01*
X019568Y009532D01*
X019427Y009532D01*
X018839Y010841D02*
X018746Y010841D01*
X018699Y010888D01*
X018582Y010841D02*
X018395Y011028D01*
X018395Y011074D01*
X018442Y011121D01*
X018536Y011121D01*
X018582Y011074D01*
X018699Y011074D02*
X018746Y011121D01*
X018839Y011121D01*
X018886Y011074D01*
X018886Y010888D01*
X018839Y010841D01*
X018582Y010841D02*
X018395Y010841D01*
X018278Y010841D02*
X018092Y011028D01*
X018092Y011074D01*
X018138Y011121D01*
X018232Y011121D01*
X018278Y011074D01*
X018278Y010841D02*
X018092Y010841D01*
X015382Y010841D02*
X015382Y011121D01*
X015242Y011121D01*
X015195Y011074D01*
X015195Y010981D01*
X015242Y010934D01*
X015382Y010934D01*
X015289Y010934D02*
X015195Y010841D01*
X015078Y010841D02*
X014892Y010841D01*
X014985Y010841D02*
X014985Y011121D01*
X015078Y011028D01*
X014775Y010981D02*
X014588Y010981D01*
X014634Y010841D02*
X014634Y011121D01*
X014775Y010981D01*
X013500Y009929D02*
X013500Y009696D01*
X013453Y009649D01*
X013360Y009649D01*
X013313Y009696D01*
X013313Y009929D01*
X013196Y009789D02*
X013056Y009929D01*
X013056Y009649D01*
X013010Y009789D02*
X013196Y009789D01*
X007821Y009320D02*
X007821Y009227D01*
X007774Y009180D01*
X007587Y009180D01*
X007774Y009367D01*
X007587Y009367D01*
X007540Y009320D01*
X007540Y009227D01*
X007587Y009180D01*
X007540Y009063D02*
X007540Y008876D01*
X007540Y008970D02*
X007821Y008970D01*
X007727Y008876D01*
X007680Y008759D02*
X007634Y008713D01*
X007634Y008572D01*
X007540Y008572D02*
X007821Y008572D01*
X007821Y008713D01*
X007774Y008759D01*
X007680Y008759D01*
X007634Y008666D02*
X007540Y008759D01*
X006836Y008713D02*
X006836Y008572D01*
X006556Y008572D01*
X006650Y008572D02*
X006650Y008713D01*
X006696Y008759D01*
X006790Y008759D01*
X006836Y008713D01*
X006743Y008876D02*
X006836Y008970D01*
X006556Y008970D01*
X006556Y009063D02*
X006556Y008876D01*
X006556Y008759D02*
X006650Y008666D01*
X005655Y008713D02*
X005655Y008572D01*
X005375Y008572D01*
X005468Y008572D02*
X005468Y008713D01*
X005515Y008759D01*
X005609Y008759D01*
X005655Y008713D01*
X005562Y008876D02*
X005655Y008970D01*
X005375Y008970D01*
X005375Y009063D02*
X005375Y008876D01*
X005375Y008759D02*
X005468Y008666D01*
X004671Y008713D02*
X004671Y008572D01*
X004391Y008572D01*
X004484Y008572D02*
X004484Y008713D01*
X004531Y008759D01*
X004624Y008759D01*
X004671Y008713D01*
X004578Y008876D02*
X004671Y008970D01*
X004391Y008970D01*
X004391Y009063D02*
X004391Y008876D01*
X004391Y008759D02*
X004484Y008666D01*
X004437Y009180D02*
X004391Y009227D01*
X004391Y009320D01*
X004437Y009367D01*
X004484Y009367D01*
X004531Y009320D01*
X004531Y009274D01*
X004531Y009320D02*
X004578Y009367D01*
X004624Y009367D01*
X004671Y009320D01*
X004671Y009227D01*
X004624Y009180D01*
X005375Y009180D02*
X005375Y009367D01*
X005562Y009367D02*
X005609Y009367D01*
X005655Y009320D01*
X005655Y009227D01*
X005609Y009180D01*
X005562Y009367D02*
X005375Y009180D01*
X006556Y009180D02*
X006556Y009367D01*
X006556Y009274D02*
X006836Y009274D01*
X006743Y009180D01*
X007774Y009367D02*
X007821Y009320D01*
X002766Y009466D02*
X002766Y009746D01*
X002626Y009746D01*
X002579Y009700D01*
X002579Y009606D01*
X002626Y009560D01*
X002766Y009560D01*
X002673Y009560D02*
X002579Y009466D01*
X002462Y009513D02*
X002415Y009466D01*
X002322Y009466D01*
X002275Y009513D01*
X002275Y009560D01*
X002322Y009606D01*
X002462Y009606D01*
X002462Y009513D01*
X002462Y009606D02*
X002369Y009700D01*
X002275Y009746D01*
X013063Y006535D02*
X013249Y006535D01*
X013109Y006675D01*
X013109Y006395D01*
X013367Y006442D02*
X013413Y006395D01*
X013507Y006395D01*
X013553Y006442D01*
X013553Y006629D01*
X013507Y006675D01*
X013413Y006675D01*
X013367Y006629D01*
X016986Y006565D02*
X016986Y006378D01*
X016986Y006471D02*
X017266Y006471D01*
X017173Y006378D01*
X017219Y006261D02*
X017266Y006214D01*
X017266Y006121D01*
X017219Y006074D01*
X017033Y006074D01*
X016986Y006121D01*
X016986Y006214D01*
X017033Y006261D01*
X017033Y006682D02*
X016986Y006729D01*
X016986Y006822D01*
X017033Y006869D01*
X017219Y006869D01*
X017266Y006822D01*
X017266Y006729D01*
X017219Y006682D01*
X017173Y006682D01*
X017126Y006729D01*
X017126Y006869D01*
X018693Y006557D02*
X018786Y006511D01*
X018879Y006417D01*
X018739Y006417D01*
X018693Y006371D01*
X018693Y006324D01*
X018739Y006277D01*
X018833Y006277D01*
X018879Y006324D01*
X018879Y006417D01*
X018996Y006324D02*
X019043Y006277D01*
X019137Y006277D01*
X019183Y006324D01*
X019183Y006511D01*
X019137Y006557D01*
X019043Y006557D01*
X018996Y006511D01*
X022551Y004660D02*
X022551Y004614D01*
X022598Y004567D01*
X022551Y004520D01*
X022551Y004473D01*
X022598Y004427D01*
X022691Y004427D01*
X022738Y004473D01*
X022855Y004427D02*
X022948Y004520D01*
X022901Y004520D02*
X023042Y004520D01*
X023042Y004427D02*
X023042Y004707D01*
X022901Y004707D01*
X022855Y004660D01*
X022855Y004567D01*
X022901Y004520D01*
X022738Y004660D02*
X022691Y004707D01*
X022598Y004707D01*
X022551Y004660D01*
X022598Y004567D02*
X022644Y004567D01*
X024018Y003901D02*
X024111Y003855D01*
X024205Y003761D01*
X024065Y003761D01*
X024018Y003714D01*
X024018Y003668D01*
X024065Y003621D01*
X024158Y003621D01*
X024205Y003668D01*
X024205Y003761D01*
X024322Y003621D02*
X024509Y003901D01*
X024322Y003901D02*
X024509Y003621D01*
X025457Y004295D02*
X025457Y004482D01*
X025363Y004482D02*
X025317Y004482D01*
X025363Y004482D02*
X025457Y004388D01*
X025574Y004342D02*
X025574Y004435D01*
X025621Y004482D01*
X025714Y004482D01*
X025761Y004435D01*
X025761Y004342D01*
X025714Y004295D01*
X025621Y004295D01*
X025574Y004342D01*
X025870Y004295D02*
X025917Y004342D01*
X025917Y004528D01*
X025963Y004482D02*
X025870Y004482D01*
X026080Y004435D02*
X026127Y004482D01*
X026220Y004482D01*
X026267Y004435D01*
X026267Y004342D01*
X026220Y004295D01*
X026127Y004295D01*
X026080Y004342D01*
X026080Y004435D01*
X026384Y004575D02*
X026384Y004295D01*
X026571Y004295D02*
X026571Y004575D01*
X026478Y004482D01*
X026384Y004575D01*
X028643Y001514D02*
X023525Y001514D01*
X023525Y001081D01*
X028643Y001081D01*
X028643Y001514D01*
X004642Y004381D02*
X004595Y004334D01*
X004502Y004334D01*
X004455Y004381D01*
X004455Y004428D01*
X004502Y004474D01*
X004595Y004474D01*
X004642Y004521D01*
X004642Y004568D01*
X004595Y004614D01*
X004502Y004614D01*
X004455Y004568D01*
X004338Y004474D02*
X004338Y004381D01*
X004291Y004334D01*
X004198Y004334D01*
X004151Y004428D02*
X004338Y004428D01*
X004338Y004474D02*
X004291Y004521D01*
X004198Y004521D01*
X004151Y004474D01*
X004151Y004428D01*
X004034Y004521D02*
X004034Y004334D01*
X003847Y004334D02*
X003847Y004474D01*
X003894Y004521D01*
X004034Y004521D01*
X003730Y004474D02*
X003684Y004428D01*
X003590Y004428D01*
X003544Y004381D01*
X003590Y004334D01*
X003730Y004334D01*
X003426Y004381D02*
X003380Y004334D01*
X003286Y004334D01*
X003240Y004381D01*
X003240Y004474D01*
X003286Y004521D01*
X003380Y004521D01*
X003426Y004474D01*
X003426Y004381D01*
X003544Y004521D02*
X003684Y004521D01*
X003730Y004474D01*
X003123Y004428D02*
X003029Y004521D01*
X002983Y004521D01*
X003123Y004521D02*
X003123Y004334D01*
X002658Y003862D02*
X002471Y003582D01*
X002354Y003628D02*
X002354Y003675D01*
X002308Y003722D01*
X002214Y003722D01*
X002168Y003675D01*
X002168Y003628D01*
X002214Y003582D01*
X002308Y003582D01*
X002354Y003628D01*
X002308Y003722D02*
X002354Y003768D01*
X002354Y003815D01*
X002308Y003862D01*
X002214Y003862D01*
X002168Y003815D01*
X002168Y003768D01*
X002214Y003722D01*
X002471Y003862D02*
X002658Y003582D01*
D12*
X012698Y007538D02*
X013722Y007538D01*
X013722Y009506D01*
X012698Y009506D01*
X012698Y007538D01*
D13*
X018138Y006725D02*
X019936Y006725D01*
X019936Y009217D01*
X018138Y009217D01*
X018138Y006725D01*
X018377Y007075D02*
X018379Y007101D01*
X018385Y007127D01*
X018394Y007151D01*
X018407Y007174D01*
X018423Y007195D01*
X018442Y007213D01*
X018463Y007229D01*
X018487Y007241D01*
X018511Y007249D01*
X018537Y007254D01*
X018564Y007255D01*
X018590Y007252D01*
X018615Y007245D01*
X018639Y007235D01*
X018662Y007221D01*
X018682Y007205D01*
X018699Y007185D01*
X018714Y007163D01*
X018725Y007139D01*
X018733Y007114D01*
X018737Y007088D01*
X018737Y007062D01*
X018733Y007036D01*
X018725Y007011D01*
X018714Y006987D01*
X018699Y006965D01*
X018682Y006945D01*
X018662Y006929D01*
X018639Y006915D01*
X018615Y006905D01*
X018590Y006898D01*
X018564Y006895D01*
X018537Y006896D01*
X018511Y006901D01*
X018487Y006909D01*
X018463Y006921D01*
X018442Y006937D01*
X018423Y006955D01*
X018407Y006976D01*
X018394Y006999D01*
X018385Y007023D01*
X018379Y007049D01*
X018377Y007075D01*
X021682Y006725D02*
X023479Y006725D01*
X023479Y009217D01*
X021682Y009217D01*
X021682Y006725D01*
X021920Y007075D02*
X021922Y007101D01*
X021928Y007127D01*
X021937Y007151D01*
X021950Y007174D01*
X021966Y007195D01*
X021985Y007213D01*
X022006Y007229D01*
X022030Y007241D01*
X022054Y007249D01*
X022080Y007254D01*
X022107Y007255D01*
X022133Y007252D01*
X022158Y007245D01*
X022182Y007235D01*
X022205Y007221D01*
X022225Y007205D01*
X022242Y007185D01*
X022257Y007163D01*
X022268Y007139D01*
X022276Y007114D01*
X022280Y007088D01*
X022280Y007062D01*
X022276Y007036D01*
X022268Y007011D01*
X022257Y006987D01*
X022242Y006965D01*
X022225Y006945D01*
X022205Y006929D01*
X022182Y006915D01*
X022158Y006905D01*
X022133Y006898D01*
X022107Y006895D01*
X022080Y006896D01*
X022054Y006901D01*
X022030Y006909D01*
X022006Y006921D01*
X021985Y006937D01*
X021966Y006955D01*
X021950Y006976D01*
X021937Y006999D01*
X021928Y007023D01*
X021922Y007049D01*
X021920Y007075D01*
D14*
X021772Y006815D02*
X023389Y006815D01*
X023389Y009127D01*
X021772Y009127D01*
X021772Y006815D01*
X019846Y006815D02*
X018228Y006815D01*
X018228Y009127D01*
X019846Y009127D01*
X019846Y006815D01*
D15*
X025765Y007734D02*
X025769Y007734D01*
D16*
X025517Y008234D02*
X025517Y007230D01*
X025002Y007230D01*
X025002Y008234D01*
X025517Y008234D01*
D17*
X025669Y008106D03*
X024842Y008106D03*
X025669Y007732D03*
X025669Y007358D03*
X024846Y007358D03*
M02*
