G75*
%MOIN*%
%OFA0B0*%
%FSLAX24Y24*%
%IPPOS*%
%LPD*%
%AMOC8*
5,1,8,0,0,1.08239X$1,22.5*
%
%ADD10C,0.0000*%
%ADD11C,0.0050*%
%ADD12C,0.0079*%
%ADD13C,0.0060*%
%ADD14C,0.0080*%
%ADD15C,0.0320*%
%ADD16C,0.0040*%
%ADD17R,0.2205X0.0079*%
%ADD18R,0.0197X0.0098*%
%ADD19R,0.0866X0.0079*%
%ADD20C,0.0100*%
%ADD21C,0.0118*%
%ADD22R,0.0059X0.0118*%
%ADD23R,0.0118X0.0118*%
D10*
X000887Y001238D02*
X033171Y001238D01*
X033171Y001239D02*
X033225Y001241D01*
X033278Y001246D01*
X033331Y001255D01*
X033383Y001268D01*
X033435Y001284D01*
X033485Y001304D01*
X033533Y001327D01*
X033580Y001354D01*
X033625Y001383D01*
X033668Y001416D01*
X033708Y001451D01*
X033746Y001489D01*
X033781Y001529D01*
X033814Y001572D01*
X033843Y001617D01*
X033870Y001664D01*
X033893Y001712D01*
X033913Y001762D01*
X033929Y001814D01*
X033942Y001866D01*
X033951Y001919D01*
X033956Y001972D01*
X033958Y002026D01*
X033958Y010687D01*
X033956Y010741D01*
X033951Y010794D01*
X033942Y010847D01*
X033929Y010899D01*
X033913Y010951D01*
X033893Y011001D01*
X033870Y011049D01*
X033843Y011096D01*
X033814Y011141D01*
X033781Y011184D01*
X033746Y011224D01*
X033708Y011262D01*
X033668Y011297D01*
X033625Y011330D01*
X033580Y011359D01*
X033533Y011386D01*
X033485Y011409D01*
X033435Y011429D01*
X033383Y011445D01*
X033331Y011458D01*
X033278Y011467D01*
X033225Y011472D01*
X033171Y011474D01*
X033171Y011475D02*
X000887Y011475D01*
X000887Y011474D02*
X000833Y011472D01*
X000780Y011467D01*
X000727Y011458D01*
X000675Y011445D01*
X000623Y011429D01*
X000573Y011409D01*
X000525Y011386D01*
X000478Y011359D01*
X000433Y011330D01*
X000390Y011297D01*
X000350Y011262D01*
X000312Y011224D01*
X000277Y011184D01*
X000244Y011141D01*
X000215Y011096D01*
X000188Y011049D01*
X000165Y011001D01*
X000145Y010951D01*
X000129Y010899D01*
X000116Y010847D01*
X000107Y010794D01*
X000102Y010741D01*
X000100Y010687D01*
X000100Y002026D01*
X000102Y001972D01*
X000107Y001919D01*
X000116Y001866D01*
X000129Y001814D01*
X000145Y001762D01*
X000165Y001712D01*
X000188Y001664D01*
X000215Y001617D01*
X000244Y001572D01*
X000277Y001529D01*
X000312Y001489D01*
X000350Y001451D01*
X000390Y001416D01*
X000433Y001383D01*
X000478Y001354D01*
X000525Y001327D01*
X000573Y001304D01*
X000623Y001284D01*
X000675Y001268D01*
X000727Y001255D01*
X000780Y001246D01*
X000833Y001241D01*
X000887Y001239D01*
D11*
X000906Y001435D02*
X000999Y001435D01*
X001046Y001481D01*
X001163Y001481D02*
X001163Y001435D01*
X001163Y001481D02*
X001350Y001668D01*
X001350Y001715D01*
X001163Y001715D01*
X001046Y001668D02*
X000999Y001715D01*
X000906Y001715D01*
X000859Y001668D01*
X000859Y001481D01*
X000906Y001435D01*
X000859Y002379D02*
X000859Y002660D01*
X000999Y002660D01*
X001046Y002613D01*
X001046Y002520D01*
X000999Y002473D01*
X000859Y002473D01*
X000953Y002473D02*
X001046Y002379D01*
X001163Y002426D02*
X001210Y002379D01*
X001303Y002379D01*
X001350Y002426D01*
X001350Y002520D01*
X001303Y002566D01*
X001257Y002566D01*
X001163Y002520D01*
X001163Y002660D01*
X001350Y002660D01*
X002157Y003744D02*
X002157Y003884D01*
X002204Y003930D01*
X002297Y003930D01*
X002344Y003884D01*
X002344Y003744D01*
X002344Y003837D02*
X002437Y003930D01*
X002390Y004048D02*
X002437Y004094D01*
X002437Y004188D01*
X002390Y004234D01*
X002344Y004234D01*
X002297Y004188D01*
X002297Y004094D01*
X002250Y004048D01*
X002204Y004048D01*
X002157Y004094D01*
X002157Y004188D01*
X002204Y004234D01*
X002297Y004351D02*
X002297Y004538D01*
X002250Y004655D02*
X002204Y004655D01*
X002157Y004702D01*
X002157Y004795D01*
X002204Y004842D01*
X002250Y004842D01*
X002297Y004795D01*
X002297Y004702D01*
X002250Y004655D01*
X002297Y004702D02*
X002344Y004655D01*
X002390Y004655D01*
X002437Y004702D01*
X002437Y004795D01*
X002390Y004842D01*
X002344Y004842D01*
X002297Y004795D01*
X002297Y004959D02*
X002250Y005053D01*
X002250Y005099D01*
X002297Y005146D01*
X002390Y005146D01*
X002437Y005099D01*
X002437Y005006D01*
X002390Y004959D01*
X002297Y004959D02*
X002157Y004959D01*
X002157Y005146D01*
X002112Y005437D02*
X001925Y005717D01*
X001808Y005670D02*
X001761Y005717D01*
X001621Y005717D01*
X001621Y005437D01*
X001621Y005530D02*
X001761Y005530D01*
X001808Y005577D01*
X001808Y005670D01*
X001714Y005530D02*
X001808Y005437D01*
X001925Y005437D02*
X002112Y005717D01*
X002487Y005670D02*
X002487Y005483D01*
X002534Y005437D01*
X002627Y005437D01*
X002674Y005483D01*
X002674Y005577D01*
X002581Y005577D01*
X002674Y005670D02*
X002627Y005717D01*
X002534Y005717D01*
X002487Y005670D01*
X002791Y005717D02*
X002978Y005437D01*
X002978Y005717D01*
X003095Y005717D02*
X003235Y005717D01*
X003282Y005670D01*
X003282Y005483D01*
X003235Y005437D01*
X003095Y005437D01*
X003095Y005717D01*
X002791Y005717D02*
X002791Y005437D01*
X003708Y005483D02*
X003708Y005670D01*
X003754Y005717D01*
X003848Y005717D01*
X003895Y005670D01*
X003895Y005577D02*
X003801Y005577D01*
X003895Y005577D02*
X003895Y005483D01*
X003848Y005437D01*
X003754Y005437D01*
X003708Y005483D01*
X004012Y005437D02*
X004012Y005717D01*
X004198Y005437D01*
X004198Y005717D01*
X004315Y005717D02*
X004456Y005717D01*
X004502Y005670D01*
X004502Y005483D01*
X004456Y005437D01*
X004315Y005437D01*
X004315Y005717D01*
X004952Y005658D02*
X005139Y005471D01*
X005092Y005518D02*
X005232Y005658D01*
X005232Y005471D02*
X004952Y005471D01*
X005232Y005354D02*
X005232Y005167D01*
X004952Y005167D01*
X004999Y005050D02*
X004952Y005003D01*
X004952Y004910D01*
X004999Y004863D01*
X005186Y004863D01*
X005232Y004910D01*
X005232Y005003D01*
X005186Y005050D01*
X005232Y004746D02*
X004952Y004746D01*
X004760Y004735D02*
X004667Y004642D01*
X004667Y004688D02*
X004667Y004548D01*
X004760Y004548D02*
X004480Y004548D01*
X004480Y004688D01*
X004527Y004735D01*
X004620Y004735D01*
X004667Y004688D01*
X004952Y004559D02*
X005232Y004559D01*
X005139Y004653D01*
X005232Y004746D01*
X004760Y004946D02*
X004480Y004946D01*
X004480Y005039D02*
X004480Y004852D01*
X004573Y004431D02*
X004760Y004431D01*
X004620Y004431D02*
X004620Y004244D01*
X004573Y004244D02*
X004480Y004338D01*
X004573Y004431D01*
X004573Y004244D02*
X004760Y004244D01*
X004713Y004127D02*
X004480Y004127D01*
X004713Y004127D02*
X004760Y004081D01*
X004760Y003987D01*
X004713Y003941D01*
X004480Y003941D01*
X004651Y003657D02*
X004651Y003423D01*
X004697Y003376D01*
X004791Y003376D01*
X004837Y003423D01*
X004837Y003657D01*
X004954Y003657D02*
X004954Y003516D01*
X005048Y003563D01*
X005095Y003563D01*
X005141Y003516D01*
X005141Y003423D01*
X005095Y003376D01*
X005001Y003376D01*
X004954Y003423D01*
X004954Y003657D02*
X005141Y003657D01*
X005186Y004255D02*
X005232Y004302D01*
X005232Y004396D01*
X005186Y004442D01*
X005139Y004442D01*
X005092Y004396D01*
X005092Y004302D01*
X005046Y004255D01*
X004999Y004255D01*
X004952Y004302D01*
X004952Y004396D01*
X004999Y004442D01*
X005976Y004420D02*
X006023Y004374D01*
X006069Y004374D01*
X006116Y004420D01*
X006116Y004514D01*
X006163Y004560D01*
X006209Y004560D01*
X006256Y004514D01*
X006256Y004420D01*
X006209Y004374D01*
X005976Y004420D02*
X005976Y004514D01*
X006023Y004560D01*
X005976Y004677D02*
X006256Y004677D01*
X006163Y004771D01*
X006256Y004864D01*
X005976Y004864D01*
X005976Y004981D02*
X005976Y005121D01*
X006023Y005168D01*
X006209Y005168D01*
X006256Y005121D01*
X006256Y004981D01*
X005976Y004981D01*
X005976Y005285D02*
X005976Y005379D01*
X005976Y005332D02*
X006256Y005332D01*
X006256Y005285D02*
X006256Y005379D01*
X006209Y005488D02*
X006023Y005488D01*
X005976Y005534D01*
X005976Y005628D01*
X006023Y005675D01*
X006209Y005675D01*
X006256Y005628D01*
X006256Y005534D01*
X006209Y005488D01*
X006960Y005363D02*
X006960Y005270D01*
X007007Y005223D01*
X007100Y005316D02*
X007100Y005363D01*
X007147Y005410D01*
X007194Y005410D01*
X007240Y005363D01*
X007240Y005270D01*
X007194Y005223D01*
X007194Y005118D02*
X007240Y005118D01*
X007240Y005071D01*
X007194Y005071D01*
X007194Y005118D01*
X007194Y004954D02*
X007147Y004954D01*
X007100Y004907D01*
X007100Y004861D01*
X007100Y004907D02*
X007054Y004954D01*
X007007Y004954D01*
X006960Y004907D01*
X006960Y004814D01*
X007007Y004767D01*
X007194Y004767D02*
X007240Y004814D01*
X007240Y004907D01*
X007194Y004954D01*
X007970Y005025D02*
X007970Y005119D01*
X008017Y005165D01*
X008203Y005165D01*
X008250Y005119D01*
X008250Y005025D01*
X008203Y004979D01*
X008110Y005025D02*
X008110Y005165D01*
X008110Y005025D02*
X008063Y004979D01*
X008017Y004979D01*
X007970Y005025D01*
X008017Y004862D02*
X007970Y004815D01*
X007970Y004721D01*
X008017Y004675D01*
X008203Y004675D01*
X008250Y004721D01*
X008250Y004815D01*
X008203Y004862D01*
X007100Y005363D02*
X007054Y005410D01*
X007007Y005410D01*
X006960Y005363D01*
X007054Y005527D02*
X007240Y005620D01*
X007054Y005714D01*
X007970Y005824D02*
X008017Y005777D01*
X008203Y005777D01*
X008250Y005824D01*
X008250Y005917D01*
X008203Y005964D01*
X008250Y006081D02*
X008250Y006268D01*
X008250Y006174D02*
X007970Y006174D01*
X008063Y006081D01*
X008017Y005964D02*
X007970Y005917D01*
X007970Y005824D01*
X008017Y006385D02*
X007970Y006432D01*
X007970Y006525D01*
X008017Y006572D01*
X008203Y006385D01*
X008250Y006432D01*
X008250Y006525D01*
X008203Y006572D01*
X008017Y006572D01*
X008017Y006385D02*
X008203Y006385D01*
X008958Y006790D02*
X010533Y006790D01*
X010533Y004270D01*
X008958Y004270D01*
X008958Y006790D01*
X009254Y006947D02*
X010238Y006947D01*
X010238Y008522D01*
X009254Y008522D01*
X009254Y006947D01*
X010346Y007019D02*
X010393Y006972D01*
X010579Y006972D01*
X010626Y007019D01*
X010626Y007112D01*
X010579Y007159D01*
X010393Y007159D01*
X010346Y007112D01*
X010346Y007019D01*
X010533Y007065D02*
X010626Y007159D01*
X010626Y007276D02*
X010439Y007463D01*
X010393Y007463D01*
X010346Y007416D01*
X010346Y007323D01*
X010393Y007276D01*
X010626Y007276D02*
X010626Y007463D01*
X011550Y007462D02*
X011682Y007330D01*
X011748Y007330D01*
X011814Y007396D01*
X011814Y007462D01*
X011930Y007512D02*
X012062Y007644D01*
X011996Y007578D02*
X011798Y007776D01*
X011798Y007644D01*
X011682Y007595D02*
X011616Y007595D01*
X011550Y007529D01*
X011550Y007462D01*
X011980Y007892D02*
X012013Y007859D01*
X012079Y007859D01*
X012145Y007925D01*
X012211Y007925D01*
X012244Y007892D01*
X012244Y007826D01*
X012178Y007760D01*
X012112Y007760D01*
X012079Y007793D01*
X012079Y007859D01*
X012145Y007925D02*
X012145Y007991D01*
X012112Y008024D01*
X012046Y008024D01*
X011980Y007958D01*
X011980Y007892D01*
X010594Y008617D02*
X010528Y008551D01*
X010461Y008551D01*
X010329Y008683D01*
X010329Y008749D01*
X010395Y008815D01*
X010461Y008815D01*
X010577Y008865D02*
X010577Y008997D01*
X010775Y008799D01*
X010709Y008733D02*
X010841Y008865D01*
X010891Y008981D02*
X010957Y008981D01*
X011023Y009047D01*
X011023Y009113D01*
X010957Y009179D01*
X010891Y009179D01*
X010858Y009146D01*
X010825Y009047D01*
X010726Y009146D01*
X010858Y009278D01*
X010594Y008683D02*
X010594Y008617D01*
X008568Y008597D02*
X008288Y008597D01*
X008382Y008504D01*
X008335Y008387D02*
X008288Y008340D01*
X008288Y008247D01*
X008335Y008200D01*
X008522Y008200D01*
X008568Y008247D01*
X008568Y008340D01*
X008522Y008387D01*
X008568Y008504D02*
X008568Y008691D01*
X008568Y008808D02*
X008568Y008995D01*
X008568Y008901D02*
X008288Y008901D01*
X008382Y008808D01*
X006807Y008755D02*
X006807Y008661D01*
X006761Y008614D01*
X006574Y008614D01*
X006527Y008661D01*
X006527Y008755D01*
X006574Y008801D01*
X006620Y008918D02*
X006527Y009012D01*
X006807Y009012D01*
X006807Y009105D02*
X006807Y008918D01*
X006761Y008801D02*
X006807Y008755D01*
X006667Y008497D02*
X006714Y008451D01*
X006714Y008311D01*
X006807Y008311D02*
X006527Y008311D01*
X006527Y008451D01*
X006574Y008497D01*
X006667Y008497D01*
X005823Y008614D02*
X005636Y008614D01*
X005543Y008708D01*
X005636Y008801D01*
X005823Y008801D01*
X005776Y008918D02*
X005823Y008965D01*
X005823Y009058D01*
X005776Y009105D01*
X005683Y009105D01*
X005636Y009058D01*
X005636Y009012D01*
X005683Y008918D01*
X005543Y008918D01*
X005543Y009105D01*
X004839Y008918D02*
X004792Y008918D01*
X004605Y009105D01*
X004559Y009105D01*
X004559Y008918D01*
X004652Y008801D02*
X004839Y008801D01*
X004699Y008801D02*
X004699Y008614D01*
X004652Y008614D02*
X004559Y008708D01*
X004652Y008801D01*
X004652Y008614D02*
X004839Y008614D01*
X004699Y008497D02*
X004745Y008451D01*
X004745Y008311D01*
X004839Y008311D02*
X004559Y008311D01*
X004559Y008451D01*
X004605Y008497D01*
X004699Y008497D01*
X003855Y008614D02*
X003668Y008614D01*
X003574Y008708D01*
X003668Y008801D01*
X003855Y008801D01*
X003855Y008918D02*
X003855Y009105D01*
X003855Y009012D02*
X003574Y009012D01*
X003668Y008918D01*
X003714Y008801D02*
X003714Y008614D01*
X003714Y008497D02*
X003761Y008451D01*
X003761Y008311D01*
X003855Y008311D02*
X003574Y008311D01*
X003574Y008451D01*
X003621Y008497D01*
X003714Y008497D01*
X002004Y008507D02*
X002004Y008648D01*
X001957Y008694D01*
X001911Y008694D01*
X001864Y008648D01*
X001864Y008507D01*
X001724Y008507D02*
X001724Y008648D01*
X001771Y008694D01*
X001817Y008694D01*
X001864Y008648D01*
X001771Y008811D02*
X001724Y008858D01*
X001724Y008951D01*
X001771Y008998D01*
X001957Y008811D01*
X002004Y008858D01*
X002004Y008951D01*
X001957Y008998D01*
X001771Y008998D01*
X001771Y008811D02*
X001957Y008811D01*
X002004Y008507D02*
X001724Y008507D01*
X003574Y009222D02*
X003714Y009222D01*
X003668Y009316D01*
X003668Y009362D01*
X003714Y009409D01*
X003808Y009409D01*
X003855Y009362D01*
X003855Y009269D01*
X003808Y009222D01*
X003574Y009222D02*
X003574Y009409D01*
X003289Y009644D02*
X003289Y010215D01*
X003328Y010215D02*
X003250Y010215D01*
X003250Y011455D01*
X007974Y011455D01*
X007974Y010451D01*
X007974Y009604D01*
X007187Y009604D01*
X004037Y009604D01*
X004037Y009644D01*
X004037Y009683D01*
X003328Y009683D01*
X003328Y010215D01*
X003250Y010215D02*
X003250Y009604D01*
X004037Y009604D01*
X004037Y009644D02*
X003289Y009644D01*
X003106Y009610D02*
X003106Y009797D01*
X003106Y009914D02*
X003106Y010100D01*
X003106Y010218D02*
X002826Y010218D01*
X002826Y010358D01*
X002873Y010404D01*
X003060Y010404D01*
X003106Y010358D01*
X003106Y010218D01*
X002826Y010100D02*
X002826Y009914D01*
X003106Y009914D01*
X002966Y009914D02*
X002966Y010007D01*
X002767Y009786D02*
X002580Y009786D01*
X002463Y009739D02*
X002463Y009646D01*
X002417Y009599D01*
X002277Y009599D01*
X002370Y009599D02*
X002463Y009505D01*
X002580Y009505D02*
X002580Y009552D01*
X002767Y009739D01*
X002767Y009786D01*
X002826Y009610D02*
X003106Y009610D01*
X002463Y009739D02*
X002417Y009786D01*
X002277Y009786D01*
X002277Y009505D01*
X003250Y010451D02*
X003328Y010451D01*
X003328Y011376D01*
X007895Y011376D01*
X007895Y010451D01*
X007935Y010451D01*
X007974Y010451D01*
X007935Y010451D02*
X007935Y011416D01*
X003289Y011416D01*
X003289Y010451D01*
X003106Y010568D02*
X003060Y010521D01*
X002873Y010708D01*
X003060Y010708D01*
X003106Y010662D01*
X003106Y010568D01*
X003060Y010521D02*
X002873Y010521D01*
X002826Y010568D01*
X002826Y010662D01*
X002873Y010708D01*
X002966Y010825D02*
X002966Y011012D01*
X002966Y011129D02*
X002966Y011316D01*
X002826Y011269D02*
X002966Y011129D01*
X003106Y011269D02*
X002826Y011269D01*
X003944Y011143D02*
X003944Y010956D01*
X004131Y011143D01*
X004131Y010956D01*
X004084Y010909D01*
X003991Y010909D01*
X003944Y010956D01*
X003944Y011143D02*
X003991Y011189D01*
X004084Y011189D01*
X004131Y011143D01*
X004313Y011219D02*
X004549Y011219D01*
X004549Y011356D01*
X004313Y011356D01*
X004313Y011219D01*
X004731Y011096D02*
X004825Y011189D01*
X004825Y010909D01*
X004918Y010909D02*
X004731Y010909D01*
X005100Y011219D02*
X005336Y011219D01*
X005336Y011356D01*
X005100Y011356D01*
X005100Y011219D01*
X005558Y011143D02*
X005605Y011189D01*
X005698Y011189D01*
X005745Y011143D01*
X005745Y011096D01*
X005558Y010909D01*
X005745Y010909D01*
X005887Y011219D02*
X006124Y011219D01*
X006124Y011356D01*
X005887Y011356D01*
X005887Y011219D01*
X006306Y011143D02*
X006353Y011189D01*
X006446Y011189D01*
X006493Y011143D01*
X006493Y011096D01*
X006446Y011049D01*
X006493Y011002D01*
X006493Y010956D01*
X006446Y010909D01*
X006353Y010909D01*
X006306Y010956D01*
X006400Y011049D02*
X006446Y011049D01*
X006694Y011219D02*
X006931Y011219D01*
X006931Y011356D01*
X006694Y011356D01*
X006694Y011219D01*
X007094Y011049D02*
X007280Y011049D01*
X007234Y010909D02*
X007234Y011189D01*
X007094Y011049D01*
X008368Y011455D02*
X013092Y011455D01*
X013092Y010451D01*
X013092Y009604D01*
X012305Y009604D01*
X009155Y009604D01*
X009155Y009644D01*
X009155Y009683D01*
X008446Y009683D01*
X008446Y010215D01*
X008368Y010215D01*
X008368Y011455D01*
X008407Y011416D02*
X008407Y010451D01*
X008446Y010451D02*
X008368Y010451D01*
X008446Y010451D02*
X008446Y011376D01*
X013013Y011376D01*
X013013Y010451D01*
X013053Y010451D01*
X013092Y010451D01*
X013053Y010451D02*
X013053Y011416D01*
X008407Y011416D01*
X009062Y011189D02*
X009062Y011049D01*
X009155Y011096D01*
X009202Y011096D01*
X009249Y011049D01*
X009249Y010956D01*
X009202Y010909D01*
X009109Y010909D01*
X009062Y010956D01*
X009062Y011189D02*
X009249Y011189D01*
X009431Y011219D02*
X009667Y011219D01*
X009667Y011356D01*
X009431Y011356D01*
X009431Y011219D01*
X009849Y011049D02*
X009990Y011049D01*
X010036Y011002D01*
X010036Y010956D01*
X009990Y010909D01*
X009896Y010909D01*
X009849Y010956D01*
X009849Y011049D01*
X009943Y011143D01*
X010036Y011189D01*
X010218Y011219D02*
X010218Y011356D01*
X010454Y011356D01*
X010454Y011219D01*
X010218Y011219D01*
X010676Y011189D02*
X010863Y011189D01*
X010863Y011143D01*
X010676Y010956D01*
X010676Y010909D01*
X011006Y011219D02*
X011242Y011219D01*
X011242Y011356D01*
X011006Y011356D01*
X011006Y011219D01*
X011424Y011143D02*
X011424Y011096D01*
X011471Y011049D01*
X011564Y011049D01*
X011611Y011002D01*
X011611Y010956D01*
X011564Y010909D01*
X011471Y010909D01*
X011424Y010956D01*
X011424Y011002D01*
X011471Y011049D01*
X011564Y011049D02*
X011611Y011096D01*
X011611Y011143D01*
X011564Y011189D01*
X011471Y011189D01*
X011424Y011143D01*
X011813Y011219D02*
X011813Y011356D01*
X012049Y011356D01*
X012049Y011219D01*
X011813Y011219D01*
X012133Y011189D02*
X012133Y011049D01*
X012226Y011096D01*
X012273Y011096D01*
X012320Y011049D01*
X012320Y010956D01*
X012273Y010909D01*
X012180Y010909D01*
X012133Y010956D01*
X012437Y011002D02*
X012530Y010909D01*
X012624Y011002D01*
X012624Y011189D01*
X012437Y011189D02*
X012437Y011002D01*
X012320Y011189D02*
X012133Y011189D01*
X013259Y011176D02*
X013259Y011269D01*
X013306Y011316D01*
X013353Y011316D01*
X013399Y011269D01*
X013399Y011176D01*
X013353Y011129D01*
X013306Y011129D01*
X013259Y011176D01*
X013399Y011176D02*
X013446Y011129D01*
X013493Y011129D01*
X013540Y011176D01*
X013540Y011269D01*
X013493Y011316D01*
X013446Y011316D01*
X013399Y011269D01*
X013399Y011012D02*
X013399Y010825D01*
X013399Y010708D02*
X013493Y010708D01*
X013540Y010662D01*
X013540Y010568D01*
X013493Y010521D01*
X013399Y010521D02*
X013353Y010615D01*
X013353Y010662D01*
X013399Y010708D01*
X013259Y010708D02*
X013259Y010521D01*
X013399Y010521D01*
X013306Y010404D02*
X013259Y010358D01*
X013259Y010218D01*
X013540Y010218D01*
X013540Y010358D01*
X013493Y010404D01*
X013306Y010404D01*
X013092Y010215D02*
X013013Y010215D01*
X013013Y009683D01*
X012305Y009683D01*
X012305Y009644D01*
X012305Y009604D01*
X012305Y009644D02*
X013053Y009644D01*
X013053Y010215D01*
X013259Y010100D02*
X013259Y009914D01*
X013540Y009914D01*
X013540Y010100D01*
X013399Y010007D02*
X013399Y009914D01*
X013540Y009797D02*
X013540Y009610D01*
X013259Y009610D01*
X014637Y009610D02*
X014637Y009750D01*
X014684Y009797D01*
X014731Y009797D01*
X014777Y009750D01*
X014777Y009610D01*
X014637Y009610D02*
X014918Y009610D01*
X014918Y009750D01*
X014871Y009797D01*
X014824Y009797D01*
X014777Y009750D01*
X014731Y009914D02*
X014871Y009914D01*
X014918Y009960D01*
X014918Y010100D01*
X014731Y010100D01*
X014731Y010218D02*
X014731Y010311D01*
X014684Y010264D02*
X014871Y010264D01*
X014918Y010311D01*
X014871Y010467D02*
X014918Y010514D01*
X014871Y010467D02*
X014684Y010467D01*
X014731Y010420D02*
X014731Y010514D01*
X014777Y010623D02*
X014871Y010623D01*
X014918Y010669D01*
X014918Y010763D01*
X014871Y010809D01*
X014777Y010809D01*
X014731Y010763D01*
X014731Y010669D01*
X014777Y010623D01*
X015061Y010451D02*
X015139Y010451D01*
X015139Y011376D01*
X018919Y011376D01*
X018919Y010451D01*
X018958Y010451D01*
X018998Y010451D01*
X018998Y009604D01*
X018210Y009604D01*
X015848Y009604D01*
X015848Y009644D01*
X015848Y009683D01*
X015139Y009683D01*
X015139Y010215D01*
X015061Y010215D01*
X015061Y011455D01*
X018998Y011455D01*
X018998Y010451D01*
X018958Y010451D02*
X018958Y011416D01*
X015100Y011416D01*
X015100Y010451D01*
X015100Y010215D02*
X015100Y009644D01*
X015848Y009644D01*
X015848Y009604D02*
X015061Y009604D01*
X015061Y010215D01*
X015243Y010870D02*
X015430Y010870D01*
X015547Y010870D02*
X015734Y010870D01*
X015851Y010870D02*
X015991Y010870D01*
X016038Y010916D01*
X016038Y011103D01*
X015991Y011150D01*
X015851Y011150D01*
X015851Y010870D01*
X015547Y010870D02*
X015547Y011150D01*
X015734Y011150D01*
X015640Y011010D02*
X015547Y011010D01*
X015243Y011150D02*
X015243Y010870D01*
X014918Y010927D02*
X014731Y010927D01*
X014731Y011067D01*
X014777Y011113D01*
X014918Y011113D01*
X016124Y011219D02*
X016360Y011219D01*
X016360Y011356D01*
X016124Y011356D01*
X016124Y011219D01*
X016306Y011103D02*
X016306Y011056D01*
X016353Y011010D01*
X016446Y011010D01*
X016493Y010963D01*
X016493Y010916D01*
X016446Y010870D01*
X016353Y010870D01*
X016306Y010916D01*
X016306Y011103D02*
X016353Y011150D01*
X016446Y011150D01*
X016493Y011103D01*
X016610Y011150D02*
X016703Y011150D01*
X016657Y011150D02*
X016657Y010870D01*
X016703Y010870D02*
X016610Y010870D01*
X016813Y010916D02*
X016859Y010870D01*
X016953Y010870D01*
X016999Y010916D01*
X016999Y011010D01*
X016906Y011010D01*
X016999Y011103D02*
X016953Y011150D01*
X016859Y011150D01*
X016813Y011103D01*
X016813Y010916D01*
X017212Y010916D02*
X017258Y010870D01*
X017352Y010870D01*
X017398Y010916D01*
X017398Y011010D01*
X017352Y011056D01*
X017305Y011056D01*
X017212Y011010D01*
X017212Y011150D01*
X017398Y011150D01*
X017515Y011150D02*
X017515Y010963D01*
X017609Y010870D01*
X017702Y010963D01*
X017702Y011150D01*
X017718Y011219D02*
X017718Y011356D01*
X017954Y011356D01*
X017954Y011219D01*
X017718Y011219D01*
X017881Y011103D02*
X017928Y011150D01*
X018021Y011150D01*
X018068Y011103D01*
X018068Y011010D02*
X017974Y011010D01*
X018068Y011010D02*
X018068Y010916D01*
X018021Y010870D01*
X017928Y010870D01*
X017881Y010916D01*
X017881Y011103D01*
X018185Y011150D02*
X018372Y010870D01*
X018372Y011150D01*
X018489Y011150D02*
X018629Y011150D01*
X018675Y011103D01*
X018675Y010916D01*
X018629Y010870D01*
X018489Y010870D01*
X018489Y011150D01*
X018185Y011150D02*
X018185Y010870D01*
X017147Y011219D02*
X017147Y011356D01*
X016911Y011356D01*
X016911Y011219D01*
X017147Y011219D01*
X019703Y011131D02*
X019703Y010897D01*
X019750Y010850D01*
X019843Y010850D01*
X019890Y010897D01*
X019890Y011131D01*
X020007Y011084D02*
X020054Y011131D01*
X020147Y011131D01*
X020194Y011084D01*
X020194Y011037D01*
X020147Y010990D01*
X020194Y010944D01*
X020194Y010897D01*
X020147Y010850D01*
X020054Y010850D01*
X020007Y010897D01*
X020100Y010990D02*
X020147Y010990D01*
X019722Y010734D02*
X019722Y004734D01*
X027722Y004734D01*
X027722Y010734D01*
X019722Y010734D01*
X018998Y010215D02*
X018919Y010215D01*
X018919Y009683D01*
X018210Y009683D01*
X018210Y009644D01*
X018210Y009604D01*
X018210Y009644D02*
X018958Y009644D01*
X018958Y010215D01*
X015905Y008502D02*
X015839Y008568D01*
X015773Y008568D01*
X015641Y008436D01*
X015641Y008370D01*
X015707Y008304D01*
X015773Y008304D01*
X015823Y008188D02*
X015955Y008056D01*
X015889Y008122D02*
X016087Y008320D01*
X015955Y008320D01*
X015905Y008436D02*
X015905Y008502D01*
X016236Y008171D02*
X016368Y008039D01*
X016335Y008006D01*
X016071Y008006D01*
X016038Y007973D01*
X010902Y006793D02*
X010902Y006607D01*
X010902Y006700D02*
X010622Y006700D01*
X010715Y006607D01*
X010668Y006490D02*
X010855Y006490D01*
X010902Y006443D01*
X010902Y006349D01*
X010855Y006303D01*
X010668Y006303D01*
X010622Y006349D01*
X010622Y006443D01*
X010668Y006490D01*
X010808Y006396D02*
X010902Y006490D01*
X008014Y007123D02*
X008014Y007216D01*
X007967Y007263D01*
X008014Y007380D02*
X008014Y007567D01*
X008014Y007474D02*
X007734Y007474D01*
X007827Y007380D01*
X007780Y007263D02*
X007734Y007216D01*
X007734Y007123D01*
X007780Y007076D01*
X007967Y007076D01*
X008014Y007123D01*
X008014Y007684D02*
X007827Y007871D01*
X007780Y007871D01*
X007734Y007824D01*
X007734Y007731D01*
X007780Y007684D01*
X008014Y007684D02*
X008014Y007871D01*
X005823Y008311D02*
X005543Y008311D01*
X005543Y008451D01*
X005589Y008497D01*
X005683Y008497D01*
X005730Y008451D01*
X005730Y008311D01*
X005683Y008614D02*
X005683Y008801D01*
X006527Y009269D02*
X006527Y009362D01*
X006574Y009409D01*
X006620Y009409D01*
X006667Y009362D01*
X006714Y009409D01*
X006761Y009409D01*
X006807Y009362D01*
X006807Y009269D01*
X006761Y009222D01*
X006667Y009316D02*
X006667Y009362D01*
X006574Y009222D02*
X006527Y009269D01*
X007187Y009604D02*
X007187Y009644D01*
X007187Y009683D01*
X007895Y009683D01*
X007895Y010215D01*
X007974Y010215D01*
X007935Y010215D02*
X007935Y009644D01*
X007187Y009644D01*
X008368Y009604D02*
X009155Y009604D01*
X009155Y009644D02*
X008407Y009644D01*
X008407Y010215D01*
X008368Y010215D02*
X008368Y009604D01*
X002004Y007738D02*
X002004Y007551D01*
X002004Y007645D02*
X001724Y007645D01*
X001817Y007551D01*
X001817Y007434D02*
X001864Y007388D01*
X001864Y007248D01*
X001724Y007248D02*
X001724Y007388D01*
X001771Y007434D01*
X001817Y007434D01*
X001864Y007388D02*
X001911Y007434D01*
X001957Y007434D01*
X002004Y007388D01*
X002004Y007248D01*
X001724Y007248D01*
X001088Y005717D02*
X000901Y005437D01*
X001088Y005437D02*
X000901Y005717D01*
X000784Y005717D02*
X000597Y005717D01*
X000691Y005717D02*
X000691Y005437D01*
X002157Y004491D02*
X002297Y004351D01*
X002437Y004491D02*
X002157Y004491D01*
X002157Y003744D02*
X002437Y003744D01*
X007133Y003862D02*
X007133Y004142D01*
X007273Y004142D01*
X007320Y004095D01*
X007320Y004002D01*
X007273Y003955D01*
X007133Y003955D01*
X007226Y003955D02*
X007320Y003862D01*
X007437Y003908D02*
X007483Y003862D01*
X007577Y003862D01*
X007624Y003955D02*
X007437Y003955D01*
X007437Y003908D02*
X007437Y004002D01*
X007483Y004049D01*
X007577Y004049D01*
X007624Y004002D01*
X007624Y003955D01*
X007741Y004002D02*
X007787Y003955D01*
X007881Y003955D01*
X007927Y003908D01*
X007881Y003862D01*
X007741Y003862D01*
X008044Y003908D02*
X008044Y004002D01*
X008091Y004049D01*
X008185Y004049D01*
X008231Y004002D01*
X008231Y003955D01*
X008044Y003955D01*
X008044Y003908D02*
X008091Y003862D01*
X008185Y003862D01*
X008395Y003908D02*
X008442Y003862D01*
X008395Y003908D02*
X008395Y004095D01*
X008348Y004049D02*
X008442Y004049D01*
X007927Y004049D02*
X007787Y004049D01*
X007741Y004002D01*
X010662Y003558D02*
X010662Y003371D01*
X010709Y003324D01*
X010803Y003324D01*
X010849Y003371D01*
X010966Y003371D02*
X010966Y003418D01*
X011013Y003464D01*
X011106Y003464D01*
X011153Y003418D01*
X011153Y003371D01*
X011106Y003324D01*
X011013Y003324D01*
X010966Y003371D01*
X011013Y003464D02*
X010966Y003511D01*
X010966Y003558D01*
X011013Y003605D01*
X011106Y003605D01*
X011153Y003558D01*
X011153Y003511D01*
X011106Y003464D01*
X010849Y003558D02*
X010803Y003605D01*
X010709Y003605D01*
X010662Y003558D01*
X012334Y003042D02*
X012334Y002976D01*
X012400Y002910D01*
X012466Y002910D01*
X012516Y002794D02*
X012780Y002794D01*
X012813Y002827D01*
X012813Y002893D01*
X012747Y002959D01*
X012681Y002959D01*
X012598Y003042D02*
X012598Y003108D01*
X012532Y003174D01*
X012466Y003174D01*
X012334Y003042D01*
X012516Y002794D02*
X012648Y002662D01*
X012730Y002579D02*
X012863Y002447D01*
X012796Y002513D02*
X012995Y002712D01*
X012863Y002712D01*
X013354Y003137D02*
X013354Y003203D01*
X013618Y003203D01*
X013486Y003071D01*
X013420Y003071D01*
X013354Y003137D01*
X013354Y003203D02*
X013486Y003335D01*
X013552Y003335D01*
X013618Y003269D01*
X013618Y003203D01*
X013403Y003418D02*
X013370Y003385D01*
X013106Y003385D01*
X013238Y003253D01*
X013403Y003418D02*
X013403Y003484D01*
X013337Y003550D01*
X013271Y003550D01*
X013188Y003633D02*
X013188Y003699D01*
X013122Y003765D01*
X013056Y003765D01*
X012924Y003633D01*
X012924Y003567D01*
X012990Y003501D01*
X013056Y003501D01*
X011736Y001872D02*
X011783Y001826D01*
X011783Y001779D01*
X011736Y001732D01*
X011643Y001732D01*
X011596Y001779D01*
X011596Y001826D01*
X011643Y001872D01*
X011736Y001872D01*
X011736Y001732D02*
X011783Y001685D01*
X011783Y001639D01*
X011736Y001592D01*
X011643Y001592D01*
X011596Y001639D01*
X011596Y001685D01*
X011643Y001732D01*
X011479Y001732D02*
X011432Y001685D01*
X011292Y001685D01*
X011292Y001592D02*
X011292Y001872D01*
X011432Y001872D01*
X011479Y001826D01*
X011479Y001732D01*
X011386Y001685D02*
X011479Y001592D01*
X017473Y001710D02*
X017473Y001990D01*
X017614Y001990D01*
X017660Y001944D01*
X017660Y001850D01*
X017614Y001804D01*
X017473Y001804D01*
X017567Y001804D02*
X017660Y001710D01*
X017777Y001850D02*
X017964Y001850D01*
X017917Y001710D02*
X017917Y001990D01*
X017777Y001850D01*
X017692Y004793D02*
X017738Y004840D01*
X017738Y004933D01*
X017692Y004980D01*
X017738Y005097D02*
X017738Y005284D01*
X017738Y005190D02*
X017458Y005190D01*
X017552Y005097D01*
X017505Y004980D02*
X017458Y004933D01*
X017458Y004840D01*
X017505Y004793D01*
X017692Y004793D01*
X017692Y005401D02*
X017738Y005447D01*
X017738Y005541D01*
X017692Y005587D01*
X017645Y005587D01*
X017598Y005541D01*
X017598Y005401D01*
X017692Y005401D01*
X017598Y005401D02*
X017505Y005494D01*
X017458Y005587D01*
X027905Y005624D02*
X028185Y005624D01*
X028185Y005531D02*
X028185Y005717D01*
X027998Y005531D02*
X027905Y005624D01*
X027952Y005414D02*
X027905Y005367D01*
X027905Y005273D01*
X027952Y005227D01*
X028139Y005227D01*
X028185Y005273D01*
X028185Y005367D01*
X028139Y005414D01*
X028129Y007786D02*
X028176Y007832D01*
X028176Y007926D01*
X028129Y007973D01*
X028129Y008090D02*
X028176Y008136D01*
X028176Y008230D01*
X028129Y008276D01*
X028082Y008276D01*
X028036Y008230D01*
X028036Y008183D01*
X028036Y008230D02*
X027989Y008276D01*
X027942Y008276D01*
X027896Y008230D01*
X027896Y008136D01*
X027942Y008090D01*
X027942Y007973D02*
X027896Y007926D01*
X027896Y007832D01*
X027942Y007786D01*
X028129Y007786D01*
X029396Y008626D02*
X029396Y008812D01*
X029443Y008812D01*
X029489Y008766D01*
X029536Y008812D01*
X029583Y008766D01*
X029583Y008626D01*
X029489Y008626D02*
X029489Y008766D01*
X029700Y008672D02*
X029747Y008719D01*
X029887Y008719D01*
X029887Y008766D02*
X029887Y008626D01*
X029747Y008626D01*
X029700Y008672D01*
X029747Y008812D02*
X029840Y008812D01*
X029887Y008766D01*
X030004Y008812D02*
X030191Y008626D01*
X030308Y008626D02*
X030354Y008626D01*
X030354Y008672D01*
X030308Y008672D01*
X030308Y008626D01*
X030191Y008812D02*
X030004Y008626D01*
X030763Y008672D02*
X030763Y008719D01*
X030810Y008766D01*
X030904Y008766D01*
X030950Y008719D01*
X030950Y008672D01*
X030904Y008626D01*
X030810Y008626D01*
X030763Y008672D01*
X030810Y008766D02*
X030763Y008812D01*
X030763Y008859D01*
X030810Y008906D01*
X030904Y008906D01*
X030950Y008859D01*
X030950Y008812D01*
X030904Y008766D01*
X031114Y008672D02*
X031114Y008626D01*
X031161Y008626D01*
X031161Y008672D01*
X031114Y008672D01*
X031161Y008626D02*
X031067Y008532D01*
X031270Y008672D02*
X031317Y008626D01*
X031410Y008626D01*
X031457Y008672D01*
X031457Y008766D01*
X031410Y008812D01*
X031363Y008812D01*
X031270Y008766D01*
X031270Y008906D01*
X031457Y008906D01*
X031574Y008906D02*
X031574Y008719D01*
X031667Y008626D01*
X031761Y008719D01*
X031761Y008906D01*
X033229Y008626D02*
X033229Y008393D01*
X033276Y008346D01*
X033369Y008346D01*
X033416Y008393D01*
X033416Y008626D01*
X033533Y008533D02*
X033627Y008626D01*
X033627Y008346D01*
X033720Y008346D02*
X033533Y008346D01*
X031793Y009604D02*
X031006Y009604D01*
X030218Y009604D01*
X030218Y009644D01*
X030218Y009683D01*
X029509Y009683D01*
X029509Y010215D01*
X029431Y010215D01*
X029431Y011455D01*
X031793Y011455D01*
X031793Y010451D01*
X031793Y009604D01*
X031754Y009644D02*
X031754Y010215D01*
X031793Y010215D02*
X031714Y010215D01*
X031714Y009683D01*
X031006Y009683D01*
X031006Y009644D01*
X031006Y009604D01*
X031006Y009644D02*
X031754Y009644D01*
X030218Y009644D02*
X029470Y009644D01*
X029470Y010215D01*
X029431Y010215D02*
X029431Y009604D01*
X030218Y009604D01*
X028290Y009339D02*
X028290Y009152D01*
X028290Y009245D02*
X028009Y009245D01*
X028103Y009152D01*
X028056Y009035D02*
X028009Y008988D01*
X028009Y008848D01*
X028290Y008848D01*
X028290Y008988D01*
X028243Y009035D01*
X028056Y009035D01*
X027970Y010462D02*
X027970Y010602D01*
X028017Y010649D01*
X028110Y010649D01*
X028157Y010602D01*
X028157Y010462D01*
X028250Y010462D02*
X027970Y010462D01*
X028157Y010556D02*
X028250Y010649D01*
X028203Y010766D02*
X028250Y010813D01*
X028250Y010906D01*
X028203Y010953D01*
X028017Y010953D01*
X027970Y010906D01*
X027970Y010813D01*
X028017Y010766D01*
X028063Y010766D01*
X028110Y010813D01*
X028110Y010953D01*
X029431Y010451D02*
X029509Y010451D01*
X029509Y011376D01*
X031714Y011376D01*
X031714Y010451D01*
X031793Y010451D01*
X031754Y010451D02*
X031754Y011416D01*
X029470Y011416D01*
X029470Y010451D01*
X030494Y011219D02*
X030730Y011219D01*
X030730Y011356D01*
X030494Y011356D01*
X030494Y011219D01*
D12*
X029809Y009270D02*
X029811Y009299D01*
X029817Y009327D01*
X029827Y009354D01*
X029840Y009380D01*
X029857Y009404D01*
X029876Y009425D01*
X029899Y009443D01*
X029923Y009458D01*
X029950Y009470D01*
X029978Y009478D01*
X030007Y009482D01*
X030035Y009482D01*
X030064Y009478D01*
X030092Y009470D01*
X030119Y009458D01*
X030143Y009443D01*
X030166Y009425D01*
X030185Y009404D01*
X030202Y009380D01*
X030215Y009354D01*
X030225Y009327D01*
X030231Y009299D01*
X030233Y009270D01*
X030231Y009241D01*
X030225Y009213D01*
X030215Y009186D01*
X030202Y009160D01*
X030185Y009136D01*
X030166Y009115D01*
X030143Y009097D01*
X030119Y009082D01*
X030092Y009070D01*
X030064Y009062D01*
X030035Y009058D01*
X030007Y009058D01*
X029978Y009062D01*
X029950Y009070D01*
X029923Y009082D01*
X029899Y009097D01*
X029876Y009115D01*
X029857Y009136D01*
X029840Y009160D01*
X029827Y009186D01*
X029817Y009213D01*
X029811Y009241D01*
X029809Y009270D01*
X030912Y009270D02*
X030914Y009299D01*
X030920Y009327D01*
X030930Y009354D01*
X030943Y009380D01*
X030960Y009404D01*
X030979Y009425D01*
X031002Y009443D01*
X031026Y009458D01*
X031053Y009470D01*
X031081Y009478D01*
X031110Y009482D01*
X031138Y009482D01*
X031167Y009478D01*
X031195Y009470D01*
X031222Y009458D01*
X031246Y009443D01*
X031269Y009425D01*
X031288Y009404D01*
X031305Y009380D01*
X031318Y009354D01*
X031328Y009327D01*
X031334Y009299D01*
X031336Y009270D01*
X031334Y009241D01*
X031328Y009213D01*
X031318Y009186D01*
X031305Y009160D01*
X031288Y009136D01*
X031269Y009115D01*
X031246Y009097D01*
X031222Y009082D01*
X031195Y009070D01*
X031167Y009062D01*
X031138Y009058D01*
X031110Y009058D01*
X031081Y009062D01*
X031053Y009070D01*
X031026Y009082D01*
X031002Y009097D01*
X030979Y009115D01*
X030960Y009136D01*
X030943Y009160D01*
X030930Y009186D01*
X030920Y009213D01*
X030914Y009241D01*
X030912Y009270D01*
X003013Y007104D02*
X001754Y007104D01*
X002029Y009152D02*
X000730Y009152D01*
D13*
X000684Y009128D02*
X001484Y009128D01*
X001584Y009028D01*
X001584Y008228D01*
X001484Y008128D01*
X001584Y008028D01*
X001584Y007228D01*
X001484Y007128D01*
X000684Y007128D01*
X000584Y007228D01*
X000584Y008028D01*
X000684Y008128D01*
X000584Y008228D01*
X000584Y009028D01*
X000684Y009128D01*
X002159Y009028D02*
X002259Y009128D01*
X003059Y009128D01*
X003159Y009028D01*
X003159Y008228D01*
X003059Y008128D01*
X003159Y008028D01*
X003159Y007228D01*
X003059Y007128D01*
X002259Y007128D01*
X002159Y007228D01*
X002159Y008028D01*
X002259Y008128D01*
X002159Y008228D01*
X002159Y009028D01*
X003612Y007886D02*
X003862Y008136D01*
X004362Y008136D01*
X004612Y007886D01*
X004862Y008136D01*
X005362Y008136D01*
X005612Y007886D01*
X005862Y008136D01*
X006362Y008136D01*
X006612Y007886D01*
X006862Y008136D01*
X007362Y008136D01*
X007612Y007886D01*
X007612Y007386D01*
X007362Y007136D01*
X006862Y007136D01*
X006612Y007386D01*
X006362Y007136D01*
X005862Y007136D01*
X005612Y007386D01*
X005362Y007136D01*
X004862Y007136D01*
X004612Y007386D01*
X004362Y007136D01*
X003862Y007136D01*
X003612Y007386D01*
X003612Y007886D01*
X003862Y006856D02*
X004362Y006856D01*
X004612Y006606D01*
X004862Y006856D01*
X005362Y006856D01*
X005612Y006606D01*
X005862Y006856D01*
X006362Y006856D01*
X006612Y006606D01*
X006862Y006856D01*
X007362Y006856D01*
X007612Y006606D01*
X007612Y006106D01*
X007362Y005856D01*
X006862Y005856D01*
X006612Y006106D01*
X006362Y005856D01*
X005862Y005856D01*
X005612Y006106D01*
X005362Y005856D01*
X004862Y005856D01*
X004612Y006106D01*
X004362Y005856D01*
X003862Y005856D01*
X003612Y006106D01*
X003612Y006606D01*
X003862Y006856D01*
X003372Y006606D02*
X003122Y006856D01*
X002622Y006856D01*
X002372Y006606D01*
X002122Y006856D01*
X001622Y006856D01*
X001372Y006606D01*
X001122Y006856D01*
X000622Y006856D01*
X000372Y006606D01*
X000372Y006106D01*
X000622Y005856D01*
X001122Y005856D01*
X001372Y006106D01*
X001622Y005856D01*
X002122Y005856D01*
X002372Y006106D01*
X002622Y005856D01*
X003122Y005856D01*
X003372Y006106D01*
X003372Y006606D01*
X002596Y005300D02*
X004296Y005300D01*
X004313Y005298D01*
X004330Y005294D01*
X004346Y005287D01*
X004360Y005277D01*
X004373Y005264D01*
X004383Y005250D01*
X004390Y005234D01*
X004394Y005217D01*
X004396Y005200D01*
X004396Y004600D01*
X004394Y004583D01*
X004390Y004566D01*
X004383Y004550D01*
X004373Y004536D01*
X004360Y004523D01*
X004346Y004513D01*
X004330Y004506D01*
X004313Y004502D01*
X004296Y004500D01*
X002596Y004500D01*
X002579Y004502D01*
X002562Y004506D01*
X002546Y004513D01*
X002532Y004523D01*
X002519Y004536D01*
X002509Y004550D01*
X002502Y004566D01*
X002498Y004583D01*
X002496Y004600D01*
X002496Y005200D01*
X002498Y005217D01*
X002502Y005234D01*
X002509Y005250D01*
X002519Y005264D01*
X002532Y005277D01*
X002546Y005287D01*
X002562Y005294D01*
X002579Y005298D01*
X002596Y005300D01*
X002596Y004394D02*
X004296Y004394D01*
X004313Y004392D01*
X004330Y004388D01*
X004346Y004381D01*
X004360Y004371D01*
X004373Y004358D01*
X004383Y004344D01*
X004390Y004328D01*
X004394Y004311D01*
X004396Y004294D01*
X004396Y003694D01*
X004394Y003677D01*
X004390Y003660D01*
X004383Y003644D01*
X004373Y003630D01*
X004360Y003617D01*
X004346Y003607D01*
X004330Y003600D01*
X004313Y003596D01*
X004296Y003594D01*
X002596Y003594D01*
X002579Y003596D01*
X002562Y003600D01*
X002546Y003607D01*
X002532Y003617D01*
X002519Y003630D01*
X002509Y003644D01*
X002502Y003660D01*
X002498Y003677D01*
X002496Y003694D01*
X002496Y004294D01*
X002498Y004311D01*
X002502Y004328D01*
X002509Y004344D01*
X002519Y004358D01*
X002532Y004371D01*
X002546Y004381D01*
X002562Y004388D01*
X002579Y004392D01*
X002596Y004394D01*
X011441Y006439D02*
X011638Y006242D01*
X011716Y006242D01*
X011795Y006321D01*
X011795Y006400D01*
X011598Y006596D01*
X011737Y006656D02*
X011776Y006617D01*
X011855Y006617D01*
X011933Y006695D01*
X012012Y006695D01*
X012052Y006656D01*
X012052Y006577D01*
X011973Y006499D01*
X011894Y006499D01*
X011855Y006538D01*
X011855Y006617D01*
X011933Y006695D02*
X011933Y006774D01*
X011894Y006813D01*
X011815Y006813D01*
X011737Y006735D01*
X011737Y006656D01*
X028387Y003738D02*
X028537Y003738D01*
X028537Y003888D01*
X028537Y003738D02*
X028687Y003738D01*
X028537Y003738D02*
X028537Y003588D01*
X027937Y004388D02*
X027939Y004454D01*
X027945Y004519D01*
X027955Y004584D01*
X027968Y004649D01*
X027986Y004712D01*
X028007Y004775D01*
X028032Y004835D01*
X028061Y004895D01*
X028093Y004952D01*
X028128Y005008D01*
X028167Y005061D01*
X028209Y005112D01*
X028253Y005160D01*
X028301Y005205D01*
X028351Y005248D01*
X028404Y005287D01*
X028459Y005324D01*
X028516Y005357D01*
X028575Y005386D01*
X028635Y005412D01*
X028697Y005434D01*
X028760Y005453D01*
X028824Y005467D01*
X028889Y005478D01*
X028955Y005485D01*
X029021Y005488D01*
X029086Y005487D01*
X029152Y005482D01*
X029217Y005473D01*
X029282Y005460D01*
X029345Y005444D01*
X029408Y005424D01*
X029469Y005399D01*
X029529Y005372D01*
X029587Y005341D01*
X029643Y005306D01*
X029697Y005268D01*
X029748Y005227D01*
X029797Y005183D01*
X029843Y005136D01*
X029887Y005087D01*
X029927Y005035D01*
X029964Y004980D01*
X029998Y004924D01*
X030028Y004865D01*
X030055Y004805D01*
X030078Y004744D01*
X030097Y004681D01*
X030113Y004617D01*
X030125Y004552D01*
X030133Y004487D01*
X030137Y004421D01*
X030137Y004355D01*
X030133Y004289D01*
X030125Y004224D01*
X030113Y004159D01*
X030097Y004095D01*
X030078Y004032D01*
X030055Y003971D01*
X030028Y003911D01*
X029998Y003852D01*
X029964Y003796D01*
X029927Y003741D01*
X029887Y003689D01*
X029843Y003640D01*
X029797Y003593D01*
X029748Y003549D01*
X029697Y003508D01*
X029643Y003470D01*
X029587Y003435D01*
X029529Y003404D01*
X029469Y003377D01*
X029408Y003352D01*
X029345Y003332D01*
X029282Y003316D01*
X029217Y003303D01*
X029152Y003294D01*
X029086Y003289D01*
X029021Y003288D01*
X028955Y003291D01*
X028889Y003298D01*
X028824Y003309D01*
X028760Y003323D01*
X028697Y003342D01*
X028635Y003364D01*
X028575Y003390D01*
X028516Y003419D01*
X028459Y003452D01*
X028404Y003489D01*
X028351Y003528D01*
X028301Y003571D01*
X028253Y003616D01*
X028209Y003664D01*
X028167Y003715D01*
X028128Y003768D01*
X028093Y003824D01*
X028061Y003881D01*
X028032Y003941D01*
X028007Y004001D01*
X027986Y004064D01*
X027968Y004127D01*
X027955Y004192D01*
X027945Y004257D01*
X027939Y004322D01*
X027937Y004388D01*
X027937Y006947D02*
X027939Y007013D01*
X027945Y007078D01*
X027955Y007143D01*
X027968Y007208D01*
X027986Y007271D01*
X028007Y007334D01*
X028032Y007394D01*
X028061Y007454D01*
X028093Y007511D01*
X028128Y007567D01*
X028167Y007620D01*
X028209Y007671D01*
X028253Y007719D01*
X028301Y007764D01*
X028351Y007807D01*
X028404Y007846D01*
X028459Y007883D01*
X028516Y007916D01*
X028575Y007945D01*
X028635Y007971D01*
X028697Y007993D01*
X028760Y008012D01*
X028824Y008026D01*
X028889Y008037D01*
X028955Y008044D01*
X029021Y008047D01*
X029086Y008046D01*
X029152Y008041D01*
X029217Y008032D01*
X029282Y008019D01*
X029345Y008003D01*
X029408Y007983D01*
X029469Y007958D01*
X029529Y007931D01*
X029587Y007900D01*
X029643Y007865D01*
X029697Y007827D01*
X029748Y007786D01*
X029797Y007742D01*
X029843Y007695D01*
X029887Y007646D01*
X029927Y007594D01*
X029964Y007539D01*
X029998Y007483D01*
X030028Y007424D01*
X030055Y007364D01*
X030078Y007303D01*
X030097Y007240D01*
X030113Y007176D01*
X030125Y007111D01*
X030133Y007046D01*
X030137Y006980D01*
X030137Y006914D01*
X030133Y006848D01*
X030125Y006783D01*
X030113Y006718D01*
X030097Y006654D01*
X030078Y006591D01*
X030055Y006530D01*
X030028Y006470D01*
X029998Y006411D01*
X029964Y006355D01*
X029927Y006300D01*
X029887Y006248D01*
X029843Y006199D01*
X029797Y006152D01*
X029748Y006108D01*
X029697Y006067D01*
X029643Y006029D01*
X029587Y005994D01*
X029529Y005963D01*
X029469Y005936D01*
X029408Y005911D01*
X029345Y005891D01*
X029282Y005875D01*
X029217Y005862D01*
X029152Y005853D01*
X029086Y005848D01*
X029021Y005847D01*
X028955Y005850D01*
X028889Y005857D01*
X028824Y005868D01*
X028760Y005882D01*
X028697Y005901D01*
X028635Y005923D01*
X028575Y005949D01*
X028516Y005978D01*
X028459Y006011D01*
X028404Y006048D01*
X028351Y006087D01*
X028301Y006130D01*
X028253Y006175D01*
X028209Y006223D01*
X028167Y006274D01*
X028128Y006327D01*
X028093Y006383D01*
X028061Y006440D01*
X028032Y006500D01*
X028007Y006560D01*
X027986Y006623D01*
X027968Y006686D01*
X027955Y006751D01*
X027945Y006816D01*
X027939Y006881D01*
X027937Y006947D01*
X029537Y007447D02*
X029537Y007597D01*
X029687Y007597D01*
X029537Y007597D02*
X029387Y007597D01*
X029537Y007597D02*
X029537Y007747D01*
X030028Y009159D02*
X030028Y009381D01*
X029917Y009270D02*
X030139Y009270D01*
X031004Y009270D02*
X031227Y009270D01*
D14*
X030454Y008206D02*
X033738Y008206D01*
X033738Y003720D01*
X030454Y003720D01*
X030454Y008206D01*
D15*
X030702Y007963D03*
D16*
X020360Y008061D02*
X020283Y007985D01*
X020206Y007985D01*
X020129Y008061D01*
X020129Y008215D01*
X020206Y008292D01*
X020283Y008292D01*
X020360Y008215D01*
X020360Y008061D01*
X020129Y008061D02*
X020053Y007985D01*
X019976Y007985D01*
X019899Y008061D01*
X019899Y008215D01*
X019976Y008292D01*
X020053Y008292D01*
X020129Y008215D01*
X020053Y008445D02*
X019976Y008445D01*
X019899Y008522D01*
X019899Y008675D01*
X019976Y008752D01*
X020053Y008752D01*
X020129Y008675D01*
X020129Y008522D01*
X020053Y008445D01*
X020129Y008522D02*
X020206Y008445D01*
X020283Y008445D01*
X020360Y008522D01*
X020360Y008675D01*
X020283Y008752D01*
X020206Y008752D01*
X020129Y008675D01*
X020129Y007831D02*
X020129Y007601D01*
X020053Y007524D01*
X019976Y007524D01*
X019899Y007601D01*
X019899Y007754D01*
X019976Y007831D01*
X020283Y007831D01*
X020360Y007754D01*
X020360Y007601D01*
X020283Y007524D01*
X020129Y007371D02*
X020129Y007064D01*
X019899Y007294D01*
X020360Y007294D01*
X020360Y006910D02*
X020053Y006910D01*
X019899Y006757D01*
X020053Y006603D01*
X020360Y006603D01*
X020129Y006603D02*
X020129Y006910D01*
D17*
X017817Y010746D03*
X011911Y010746D03*
X006793Y010746D03*
X030612Y010746D03*
D18*
X030612Y011288D03*
X017836Y011288D03*
X017029Y011288D03*
X016242Y011288D03*
X011931Y011288D03*
X011124Y011288D03*
X010336Y011288D03*
X009549Y011288D03*
X006813Y011288D03*
X006006Y011288D03*
X005218Y011288D03*
X004431Y011288D03*
D19*
X004490Y010746D03*
X005297Y010746D03*
X003722Y010746D03*
X008840Y010746D03*
X009608Y010746D03*
X010415Y010746D03*
X015533Y010746D03*
X016301Y010746D03*
D20*
X014153Y008356D02*
X015879Y006630D01*
X015879Y006477D01*
X014153Y004751D01*
X014000Y004751D01*
X012274Y006477D01*
X012274Y006630D01*
X014000Y008356D01*
X014153Y008356D01*
X012727Y006553D02*
X012729Y006583D01*
X012735Y006613D01*
X012744Y006642D01*
X012757Y006669D01*
X012774Y006694D01*
X012793Y006717D01*
X012816Y006738D01*
X012841Y006755D01*
X012867Y006769D01*
X012896Y006779D01*
X012925Y006786D01*
X012955Y006789D01*
X012986Y006788D01*
X013016Y006783D01*
X013045Y006774D01*
X013072Y006762D01*
X013098Y006747D01*
X013122Y006728D01*
X013143Y006706D01*
X013161Y006682D01*
X013176Y006655D01*
X013187Y006627D01*
X013195Y006598D01*
X013199Y006568D01*
X013199Y006538D01*
X013195Y006508D01*
X013187Y006479D01*
X013176Y006451D01*
X013161Y006424D01*
X013143Y006400D01*
X013122Y006378D01*
X013098Y006359D01*
X013072Y006344D01*
X013045Y006332D01*
X013016Y006323D01*
X012986Y006318D01*
X012955Y006317D01*
X012925Y006320D01*
X012896Y006327D01*
X012867Y006337D01*
X012841Y006351D01*
X012816Y006368D01*
X012793Y006389D01*
X012774Y006412D01*
X012757Y006437D01*
X012744Y006464D01*
X012735Y006493D01*
X012729Y006523D01*
X012727Y006553D01*
D21*
X008604Y003679D02*
X007817Y003679D01*
X007817Y002892D01*
X007423Y002695D02*
X007817Y002104D01*
X007817Y001317D01*
X007029Y001317D01*
X007817Y001317D02*
X008604Y001317D01*
X007817Y003679D02*
X007029Y003679D01*
D22*
X006941Y008975D03*
X007236Y008975D03*
X006252Y008975D03*
X005956Y008975D03*
X005267Y008975D03*
X004972Y008975D03*
X004283Y008975D03*
X003988Y008975D03*
X028496Y009053D03*
X028791Y009053D03*
D23*
X028643Y009053D03*
X007088Y008975D03*
X006104Y008975D03*
X005120Y008975D03*
X004135Y008975D03*
M02*
