G75*
%MOIN*%
%OFA0B0*%
%FSLAX24Y24*%
%IPPOS*%
%LPD*%
%AMOC8*
5,1,8,0,0,1.08239X$1,22.5*
%
%ADD10C,0.0000*%
D10*
X000887Y001238D02*
X033171Y001238D01*
X033171Y001239D02*
X033225Y001241D01*
X033278Y001246D01*
X033331Y001255D01*
X033383Y001268D01*
X033435Y001284D01*
X033485Y001304D01*
X033533Y001327D01*
X033580Y001354D01*
X033625Y001383D01*
X033668Y001416D01*
X033708Y001451D01*
X033746Y001489D01*
X033781Y001529D01*
X033814Y001572D01*
X033843Y001617D01*
X033870Y001664D01*
X033893Y001712D01*
X033913Y001762D01*
X033929Y001814D01*
X033942Y001866D01*
X033951Y001919D01*
X033956Y001972D01*
X033958Y002026D01*
X033958Y010687D01*
X033956Y010741D01*
X033951Y010794D01*
X033942Y010847D01*
X033929Y010899D01*
X033913Y010951D01*
X033893Y011001D01*
X033870Y011049D01*
X033843Y011096D01*
X033814Y011141D01*
X033781Y011184D01*
X033746Y011224D01*
X033708Y011262D01*
X033668Y011297D01*
X033625Y011330D01*
X033580Y011359D01*
X033533Y011386D01*
X033485Y011409D01*
X033435Y011429D01*
X033383Y011445D01*
X033331Y011458D01*
X033278Y011467D01*
X033225Y011472D01*
X033171Y011474D01*
X033171Y011475D02*
X000887Y011475D01*
X000887Y011474D02*
X000833Y011472D01*
X000780Y011467D01*
X000727Y011458D01*
X000675Y011445D01*
X000623Y011429D01*
X000573Y011409D01*
X000525Y011386D01*
X000478Y011359D01*
X000433Y011330D01*
X000390Y011297D01*
X000350Y011262D01*
X000312Y011224D01*
X000277Y011184D01*
X000244Y011141D01*
X000215Y011096D01*
X000188Y011049D01*
X000165Y011001D01*
X000145Y010951D01*
X000129Y010899D01*
X000116Y010847D01*
X000107Y010794D01*
X000102Y010741D01*
X000100Y010687D01*
X000100Y002026D01*
X000102Y001972D01*
X000107Y001919D01*
X000116Y001866D01*
X000129Y001814D01*
X000145Y001762D01*
X000165Y001712D01*
X000188Y001664D01*
X000215Y001617D01*
X000244Y001572D01*
X000277Y001529D01*
X000312Y001489D01*
X000350Y001451D01*
X000390Y001416D01*
X000433Y001383D01*
X000478Y001354D01*
X000525Y001327D01*
X000573Y001304D01*
X000623Y001284D01*
X000675Y001268D01*
X000727Y001255D01*
X000780Y001246D01*
X000833Y001241D01*
X000887Y001239D01*
M02*
